<svg viewBox="0 0 169 32" fill="none" xmlns="http://www.w3.org/2000/svg">
<g>
<path d="M43.4664 6.59574C36.2474 6.59574 31.0093 11.964 31.0093 19.3501C31.0093 26.7361 36.1902 31.9997 43.714 31.9997C45.407 32.0698 47.0959 31.7851 48.6722 31.1638C50.2484 30.5426 51.6771 29.5985 52.8664 28.3923C53.3357 27.9289 53.6172 27.3086 53.6569 26.6505C53.6637 26.3708 53.6129 26.0927 53.5075 25.8336C53.4021 25.5744 53.2444 25.3397 53.0442 25.1442C52.8441 24.9486 52.6057 24.7963 52.3441 24.6969C52.0825 24.5974 51.8032 24.5528 51.5236 24.566C51.195 24.575 50.8716 24.6495 50.5723 24.7852C50.2731 24.9209 50.0039 25.1149 49.7807 25.356C48.9949 26.1688 48.0519 26.8133 47.0089 27.2502C45.9659 27.6871 44.8449 27.9073 43.714 27.8973C41.7851 27.9259 39.9189 27.2129 38.501 25.9057C37.0831 24.5984 36.2218 22.7968 36.095 20.873H52.3807C54.1521 20.873 55.0188 20.0449 55.0188 18.3411C55.0296 17.8124 54.9946 17.2838 54.914 16.7611C54.0378 10.3744 49.7521 6.59574 43.4664 6.59574V6.59574ZM43.4664 10.5553C47.3807 10.5553 49.895 13.049 50.0474 17.0657H36.0855C36.276 15.2537 37.1402 13.5792 38.507 12.3736C39.8739 11.168 41.6437 10.5191 43.4664 10.5553V10.5553ZM70.5902 6.59574C69.006 6.58041 67.4467 6.99001 66.0748 7.78186C64.7029 8.57371 63.5687 9.71881 62.7902 11.0978V9.51781C62.7902 7.01454 60.8855 6.8908 60.4569 6.8908C60.1211 6.88238 59.7875 6.94681 59.479 7.07965C59.1706 7.21249 58.8946 7.41057 58.6701 7.66026C58.4456 7.90995 58.278 8.20531 58.1787 8.52598C58.0794 8.84666 58.0508 9.18504 58.095 9.51781V29.0205C58.0648 29.365 58.1066 29.712 58.2178 30.0395C58.329 30.367 58.5071 30.6678 58.7409 30.9228C58.9747 31.1778 59.259 31.3814 59.5757 31.5207C59.8924 31.66 60.2347 31.7319 60.5807 31.7319C60.9267 31.7319 61.269 31.66 61.5857 31.5207C61.9025 31.3814 62.1867 31.1778 62.4205 30.9228C62.6543 30.6678 62.8324 30.367 62.9436 30.0395C63.0548 29.712 63.0966 29.365 63.0664 29.0205V18.5505C63.0664 14.0009 65.6474 10.8123 69.3426 10.8123C73.0378 10.8123 74.6759 13.1633 74.6759 17.9985V29.0205C74.6385 29.3684 74.6748 29.7204 74.7824 30.0534C74.8901 30.3864 75.0666 30.6931 75.3006 30.9534C75.5346 31.2138 75.8208 31.422 76.1407 31.5645C76.4605 31.707 76.8067 31.7807 77.1569 31.7807C77.5071 31.7807 77.8533 31.707 78.1731 31.5645C78.4929 31.422 78.7792 31.2138 79.0132 30.9534C79.2472 30.6931 79.4237 30.3864 79.5314 30.0534C79.639 29.7204 79.6753 29.3684 79.6379 29.0205V16.428C79.6188 11.6784 77.2474 6.59574 70.5902 6.59574V6.59574ZM102.095 6.85273C101.521 6.86195 100.967 7.06138 100.518 7.41971C100.07 7.77804 99.7538 8.27498 99.6188 8.8325L92.8188 25.9081L86.0759 8.8325C85.933 8.27034 85.6079 7.77128 85.1513 7.41315C84.6948 7.05502 84.1325 6.85797 83.5521 6.85273C82.9071 6.83996 82.2833 7.08323 81.8174 7.52925C81.3514 7.97526 81.0814 8.58765 81.0664 9.23226C81.0701 9.71572 81.1773 10.1928 81.3807 10.6314L89.1902 29.0586C90.1426 31.2858 91.6474 31.7522 92.7712 31.7522C93.895 31.7522 95.4188 31.2858 96.3521 29.0681L104.219 10.5362C104.406 10.1062 104.51 9.64414 104.524 9.17516C104.524 8.86116 104.46 8.55035 104.337 8.26153C104.214 7.97272 104.033 7.71188 103.806 7.4948C103.579 7.27771 103.311 7.10889 103.016 6.99853C102.722 6.88817 102.409 6.83857 102.095 6.85273V6.85273ZM116.533 6.59574C113.567 6.53382 110.656 7.40262 108.209 9.07997C107.869 9.28182 107.587 9.56881 107.392 9.91265C107.197 10.2565 107.094 10.6453 107.095 11.0407C107.085 11.297 107.126 11.5528 107.218 11.7926C107.309 12.0324 107.447 12.2514 107.625 12.4363C107.803 12.6212 108.017 12.7683 108.253 12.8687C108.489 12.969 108.743 13.0207 109 13.0205C109.533 12.9953 110.046 12.8132 110.476 12.497C112.102 11.323 114.051 10.6782 116.057 10.6505C119.724 10.6505 121.828 12.5541 121.828 15.7712V16.3138C113.59 16.3138 105.209 17.3227 105.209 24.4898C105.209 29.6487 109.619 31.9521 113.99 31.9521C115.558 32.023 117.119 31.6942 118.525 30.9966C119.931 30.2989 121.137 29.2553 122.028 27.964V29.2204C121.993 29.5445 122.027 29.8725 122.129 30.1823C122.231 30.492 122.398 30.7764 122.619 31.0162C122.84 31.2561 123.11 31.4459 123.411 31.5728C123.711 31.6998 124.036 31.7609 124.362 31.7522C124.688 31.7648 125.013 31.706 125.313 31.5799C125.614 31.4538 125.884 31.2635 126.104 31.0223C126.323 30.7811 126.487 30.4949 126.585 30.1836C126.682 29.8723 126.71 29.5436 126.666 29.2204V16.0758C126.666 10.1365 122.857 6.59574 116.533 6.59574ZM120.819 19.9878H121.905V21.1299C121.905 25.3179 119.247 28.0116 115.124 28.0116C114 28.0116 110.362 27.7546 110.362 24.4042C110.305 20.4256 116.305 19.9878 120.819 19.9878ZM139.562 11.3548C139.849 11.3948 140.142 11.3719 140.42 11.2878C140.698 11.2037 140.955 11.0604 141.172 10.8677C141.389 10.675 141.562 10.4375 141.679 10.1716C141.795 9.90569 141.853 9.6177 141.847 9.32745C141.857 9.03417 141.802 8.74237 141.688 8.47221C141.573 8.20205 141.401 7.95997 141.184 7.76268C140.966 7.56539 140.709 7.4176 140.429 7.32951C140.149 7.24143 139.853 7.21515 139.562 7.25249H135.095V2.73137C135.132 2.386 135.096 2.03665 134.99 1.70605C134.883 1.37546 134.708 1.07102 134.476 0.812549C134.243 0.554078 133.959 0.347363 133.642 0.205854C133.324 0.0643445 132.981 -0.00878906 132.633 -0.00878906C132.286 -0.00878906 131.942 0.0643445 131.624 0.205854C131.307 0.347363 131.023 0.554078 130.791 0.812549C130.558 1.07102 130.383 1.37546 130.277 1.70605C130.17 2.03665 130.134 2.386 130.171 2.73137V24.1853C130.171 29.1347 132.619 31.7998 137.238 31.7998C138.31 31.8266 139.377 31.6322 140.371 31.2287C140.763 31.0661 141.1 30.7953 141.343 30.448C141.586 30.1007 141.724 29.6913 141.743 29.268C141.753 29.0051 141.709 28.7429 141.614 28.4978C141.518 28.2527 141.372 28.0302 141.186 27.8442C141 27.6581 140.777 27.5127 140.532 27.417C140.287 27.3213 140.025 27.2774 139.762 27.2882C139.461 27.3031 139.164 27.3543 138.876 27.4405C138.541 27.5343 138.195 27.5855 137.847 27.5928C135.943 27.5928 135.095 26.3649 135.095 23.7284V11.3548H139.562ZM155.981 6.59574C148.476 6.59574 143.019 11.9164 143.019 19.2454C142.991 20.9448 143.307 22.6324 143.947 24.2072C144.587 25.7821 145.538 27.2119 146.743 28.4113C149.233 30.7709 152.55 32.0594 155.981 31.9997C163.4 31.9997 169 26.5172 169 19.2454C169 11.9735 163.524 6.59574 155.981 6.59574ZM155.981 27.7926C150.828 27.7926 148.143 23.5 148.143 19.2263C148.143 13.3917 152.209 10.7361 155.981 10.7361C159.752 10.7361 163.809 13.4107 163.809 19.2454C163.809 25.08 159.762 27.7926 155.981 27.7926Z" fill="white"/>
<path opacity="0.65" d="M22.5141 4.34033C18.5237 -0.33308 5.60938 8.71867 5.71414 20.3879C5.71169 20.531 5.65372 20.6676 5.55244 20.7688C5.45116 20.8701 5.3145 20.928 5.17129 20.9305C5.07723 20.9294 4.985 20.9044 4.90333 20.8578C4.82166 20.8111 4.75327 20.7444 4.70462 20.6639C3.94973 19.0321 3.55973 17.2554 3.56176 15.4575C3.5608 14.105 3.77952 12.7614 4.20938 11.4789C4.24681 11.3685 4.2448 11.2485 4.20367 11.1393C4.16255 11.0302 4.08486 10.9387 3.98382 10.8803C3.88278 10.822 3.76463 10.8004 3.64948 10.8193C3.53433 10.8382 3.4293 10.8964 3.35224 10.984C1.19979 13.2765 0.00118414 16.3019 -0.000142641 19.4456C-0.0192931 21.0946 0.291566 22.7308 0.914165 24.258C1.53676 25.7852 2.45854 27.1726 3.62532 28.3387C4.7921 29.5048 6.18034 30.426 7.70845 31.0482C9.23656 31.6704 10.8737 31.9811 12.5237 31.962C30.1427 31.5622 26.076 8.50928 22.5141 4.34033V4.34033Z" fill="white"/>
</g>
</svg>
