<svg viewBox="0 0 328 32" fill="none" xmlns="http://www.w3.org/2000/svg">
<g id="logo">
<path fill-rule="evenodd" clip-rule="evenodd" d="M125.745 12.5892C126.002 12.6248 126.265 12.6042 126.512 12.5286C126.761 12.453 126.99 12.3242 127.184 12.1513C127.378 11.9784 127.531 11.7653 127.634 11.5269C127.7 11.3736 127.745 11.2123 127.766 11.0475C127.778 10.9561 127.783 10.8637 127.781 10.771C127.789 10.6242 127.779 10.4774 127.752 10.3338C127.73 10.2182 127.697 10.1047 127.652 9.99493C127.553 9.74896 127.401 9.52772 127.207 9.34695C127.139 9.28407 127.067 9.22674 126.991 9.17518C126.849 9.07832 126.693 9.00227 126.528 8.94933C126.276 8.86819 126.009 8.84345 125.745 8.8772H121.75V4.8624C121.759 4.78912 121.763 4.71561 121.764 4.64209C121.765 4.59262 121.764 4.54338 121.761 4.49414C121.751 4.30666 121.718 4.12057 121.661 3.94071C121.566 3.64342 121.409 3.36925 121.202 3.13646C121.119 3.0433 121.027 2.95753 120.93 2.88009C120.89 2.84842 120.85 2.81813 120.808 2.78924C120.697 2.71225 120.579 2.64545 120.454 2.58973C120.169 2.46212 119.861 2.39624 119.549 2.39624C119.237 2.39624 118.929 2.46212 118.644 2.58973C118.359 2.71734 118.104 2.90367 117.897 3.13646C117.689 3.36925 117.533 3.64342 117.438 3.94071C117.343 4.23823 117.313 4.5524 117.348 4.8624V24.0653C117.348 28.4967 119.535 30.8355 123.672 30.8355C124.627 30.8563 125.577 30.6857 126.464 30.3338C126.609 30.2737 126.746 30.197 126.872 30.1057C126.987 30.0227 127.091 29.9277 127.186 29.8223C127.24 29.7624 127.291 29.699 127.337 29.6327C127.42 29.5127 127.49 29.3846 127.546 29.2508C127.564 29.2083 127.579 29.165 127.594 29.1213C127.653 28.9449 127.687 28.7602 127.696 28.5725C127.703 28.3411 127.664 28.1106 127.58 27.8947C127.496 27.679 127.369 27.4823 127.208 27.3168C127.046 27.1515 126.852 27.0204 126.638 26.9319C126.425 26.8433 126.194 26.7992 125.963 26.8017C125.846 26.8068 125.729 26.8179 125.614 26.8353C125.463 26.8579 125.314 26.891 125.168 26.9344C125.018 26.9765 124.866 27.0086 124.712 27.0308C124.55 27.0542 124.386 27.0662 124.221 27.0669C122.536 27.0669 121.759 25.9686 121.759 23.6108V12.5892H125.745ZM97.6853 10.5532C99.8727 9.04411 102.479 8.26205 105.136 8.31845C110.816 8.31845 114.177 11.4906 114.177 16.812V28.601C114.213 28.8844 114.189 29.1722 114.105 29.4454C114.021 29.7187 113.88 29.9709 113.69 30.1852C113.502 30.3993 113.269 30.5708 113.008 30.6878C112.911 30.7315 112.811 30.7673 112.709 30.7948C112.634 30.8149 112.558 30.8306 112.481 30.842C112.381 30.857 112.281 30.8644 112.179 30.8639C112.006 30.869 111.834 30.8519 111.667 30.8138C111.551 30.7876 111.438 30.7513 111.329 30.7053C111.06 30.5921 110.819 30.4224 110.622 30.2079C110.424 29.9931 110.275 29.7386 110.185 29.4614C110.094 29.1842 110.064 28.8906 110.097 28.601V27.474C109.298 28.6306 108.219 29.565 106.961 30.1894C105.702 30.814 104.305 31.108 102.901 31.0438C98.9917 31.0438 95.044 28.9796 95.044 24.3589C95.044 17.9956 102.542 17.0487 109.917 17.0487V16.5471C109.917 13.6306 108.032 11.9641 104.748 11.9641C102.955 11.9872 101.212 12.5623 99.759 13.6116C99.3772 13.8974 98.9186 14.0622 98.4425 14.0851C98.2123 14.0851 97.9839 14.0391 97.7704 13.9496C97.5577 13.8602 97.3654 13.7291 97.2037 13.5643C97.1362 13.4951 97.0751 13.4207 97.0206 13.3416C96.9439 13.2321 96.8801 13.1139 96.8311 12.9891C96.746 12.7746 96.7053 12.545 96.71 12.3143C96.7072 11.9618 96.795 11.6141 96.9661 11.3055C96.9947 11.2527 97.0261 11.2014 97.0604 11.1515C97.1094 11.0794 97.1621 11.0107 97.2194 10.9455C97.3534 10.7927 97.5106 10.6605 97.6853 10.5532ZM109.869 20.2873H108.979C104.946 20.2873 99.5787 20.7038 99.5316 24.2452C99.5316 27.2467 102.798 27.474 103.801 27.474C107.483 27.474 109.869 25.0596 109.869 21.3192V20.2873ZM60.0329 9.37076C61.2579 8.66845 62.6474 8.30528 64.0592 8.31868C70.0139 8.31868 72.144 12.873 72.1153 17.1246V28.4116C72.1264 28.5362 72.1273 28.6613 72.119 28.7857C72.1153 28.834 72.1098 28.8823 72.1033 28.9304C72.0839 29.0652 72.0525 29.1981 72.009 29.3278C71.9572 29.4813 71.8897 29.6283 71.8065 29.7665C71.7307 29.8935 71.642 30.013 71.5412 30.1228C71.3323 30.3523 71.0771 30.5359 70.7933 30.6614C70.6121 30.7414 70.4216 30.7967 70.2275 30.8262C70.1609 30.8364 70.0925 30.8436 70.0241 30.8475C69.9797 30.8503 69.9353 30.8517 69.891 30.8517C69.5803 30.8517 69.2725 30.7869 68.9886 30.6614C68.7039 30.5359 68.4487 30.3523 68.2398 30.1228C68.1704 30.0467 68.1067 29.966 68.0493 29.8814C67.9985 29.8075 67.9523 29.7307 67.9107 29.6514C67.8755 29.5846 67.8441 29.5159 67.8164 29.4457C67.8006 29.4068 67.7859 29.3675 67.772 29.3278C67.674 29.033 67.637 28.7209 67.6657 28.4116V18.5354C67.6657 14.2083 66.2364 12.1062 62.9322 12.1062C59.628 12.1062 57.3186 14.9564 57.3186 19.0373V28.4116C57.3537 28.7242 57.3232 29.0409 57.2271 29.3407C57.1318 29.6405 56.9747 29.917 56.7648 30.1517C56.5549 30.3863 56.2989 30.574 56.0113 30.7028C55.7238 30.8313 55.4132 30.8977 55.0988 30.8977C54.9519 30.8977 54.8058 30.8833 54.6625 30.8549C54.4988 30.8223 54.3389 30.7715 54.1854 30.7028C53.8988 30.574 53.6418 30.3863 53.432 30.1517C53.223 29.917 53.0649 29.6405 52.9697 29.3407C52.8745 29.0409 52.8431 28.7242 52.8782 28.4116V10.9037C52.844 10.6064 52.8726 10.3052 52.9623 10.0199C52.979 9.96672 52.9974 9.91425 53.0187 9.8627C53.0437 9.80074 53.0723 9.74017 53.1028 9.68099C53.125 9.63869 53.1481 9.59708 53.1731 9.55616C53.2045 9.50484 53.2378 9.45467 53.2729 9.4059C53.3136 9.35134 53.3562 9.29863 53.4015 9.248C53.6002 9.02446 53.8443 8.84576 54.117 8.72324C54.3898 8.60072 54.6856 8.53761 54.9851 8.53761C55.2837 8.53761 55.5796 8.60072 55.8532 8.72324C55.9781 8.77941 56.0973 8.84761 56.2092 8.92644C56.3405 9.01937 56.4616 9.1271 56.5688 9.248C56.7676 9.47155 56.9174 9.73463 57.007 10.0199C57.0551 10.1699 57.0856 10.3241 57.0986 10.4799C57.1023 10.5222 57.1041 10.5648 57.105 10.6073L57.1041 10.7273L57.1013 10.7879C57.0986 10.8265 57.0958 10.8651 57.0912 10.9037V12.3145C57.7929 11.0891 58.808 10.0731 60.0329 9.37076ZM28.6709 19.7382C28.6709 13.1195 33.3572 8.31868 39.8131 8.31868C45.4368 8.31868 49.28 11.7086 50.0279 17.3805C50.101 17.847 50.1324 18.319 50.1232 18.7913C50.1232 20.3157 49.3466 21.0543 47.7657 21.0543H33.1862C33.2981 22.7839 34.0737 24.4035 35.3514 25.5751C36.6281 26.7465 38.308 27.3794 40.0405 27.3418C41.0519 27.3503 42.0541 27.1533 42.986 26.7627C43.9188 26.372 44.7619 25.7959 45.4655 25.0691C45.6661 24.8546 45.9074 24.6821 46.1755 24.5617C46.4436 24.4414 46.7339 24.3758 47.027 24.3684C47.2784 24.3578 47.5299 24.3994 47.7647 24.4907C47.9986 24.5822 48.2122 24.7212 48.3897 24.8992C48.5681 25.0774 48.7068 25.2903 48.7983 25.525C48.8899 25.7596 48.9315 26.0107 48.9204 26.2622C48.9083 26.608 48.8205 26.9434 48.668 27.247C48.6365 27.3101 48.6023 27.3718 48.5644 27.4319C48.533 27.4825 48.4988 27.532 48.4637 27.5803C48.3906 27.68 48.3093 27.7743 48.2205 27.8624C47.1573 28.9443 45.8787 29.7915 44.4689 30.3491C43.0581 30.9069 41.5465 31.1631 40.0312 31.1009C33.348 31.1009 28.6709 26.357 28.6709 19.7382ZM45.7022 17.6928C45.5598 14.0948 43.316 11.86 39.8131 11.86C38.1785 11.8226 36.5893 12.4017 35.3616 13.4824C34.1338 14.5629 33.3572 16.066 33.1862 17.6928H45.7022ZM92.2418 8.52697C91.7176 8.52674 91.2092 8.70475 90.8005 9.03163C90.391 9.35851 90.1044 9.81507 89.9888 10.326L83.949 25.571L77.9184 10.326C77.7927 9.81831 77.5024 9.36637 77.0938 9.04087C76.6842 8.71538 76.1785 8.5346 75.6553 8.52697C75.0784 8.5168 74.5218 8.7348 74.1049 9.13404C73.9024 9.32753 73.7415 9.5557 73.6278 9.80536C73.5742 9.92234 73.5307 10.0439 73.4984 10.1688C73.4577 10.3274 73.4346 10.4913 73.4309 10.6575C73.4355 11.0925 73.5326 11.5218 73.7147 11.9167L80.7012 28.4116C80.8944 29.1186 81.3151 29.7423 81.8975 30.1868C82.1277 30.3627 82.3783 30.5068 82.6427 30.6166C83.0467 30.7844 83.4821 30.8725 83.925 30.8725C84.2153 30.8725 84.5019 30.8348 84.7783 30.7617C85.2008 30.6501 85.6002 30.4557 85.9524 30.1868C86.5348 29.7423 86.9555 29.1186 87.1487 28.4116L94.1352 11.8411C94.1703 11.7613 94.2027 11.6804 94.2314 11.5983L94.2536 11.529L94.2878 11.4169C94.3599 11.1607 94.4015 10.8963 94.4098 10.629C94.4107 10.544 94.4061 10.4594 94.3969 10.3752L94.3839 10.2818L94.3682 10.1935C94.3414 10.061 94.3016 9.93112 94.2489 9.80583C94.1398 9.54506 93.9799 9.30927 93.7765 9.11254C93.574 8.91604 93.3337 8.76254 93.0693 8.66198C92.8058 8.56119 92.5238 8.51541 92.2418 8.52697ZM128.84 19.6813C128.84 13.0531 133.716 8.31868 140.428 8.31868C147.178 8.31868 152.072 13.0816 152.072 19.6813C152.093 21.2059 151.803 22.7185 151.223 24.128C150.641 25.5374 149.78 26.8147 148.692 27.882C147.604 28.9493 146.311 29.785 144.89 30.3382C143.47 30.8914 141.952 31.1508 140.428 31.1009C137.358 31.151 134.391 29.9952 132.164 27.8813C131.09 26.8064 130.242 25.5266 129.671 24.1183C129.1 22.7097 128.818 21.2011 128.84 19.6813ZM133.413 19.6055C133.413 23.412 135.827 27.2565 140.428 27.2565V27.2944C143.808 27.2944 147.443 24.7945 147.443 19.6055C147.443 14.4166 143.808 12.0304 140.428 12.0304C137.048 12.0304 133.413 14.3882 133.413 19.6055Z" fill="white"/>
<path fill-rule="evenodd" clip-rule="evenodd" d="M167.41 9.22775H162.514V6.89844C162.432 5.68015 162.8 4.47412 163.547 3.50851C163.594 3.45719 163.642 3.40725 163.692 3.35894C163.769 3.28381 163.849 3.2126 163.933 3.14533C164.197 2.93265 164.491 2.75904 164.806 2.63097C165.286 2.43586 165.804 2.35079 166.32 2.38176C167.04 2.36836 167.756 2.45782 168.451 2.64669C168.634 2.69339 168.827 2.66611 168.99 2.5711C169.069 2.51908 169.136 2.45089 169.187 2.3709C169.213 2.32929 169.234 2.2849 169.251 2.23844C169.259 2.21671 169.266 2.19475 169.271 2.17232C169.277 2.15082 169.281 2.12909 169.283 2.10713L169.444 1.10337C169.467 0.94525 169.433 0.783891 169.348 0.648654C169.322 0.607968 169.293 0.570517 169.26 0.536766C169.184 0.457705 169.087 0.398293 168.98 0.364773C168.11 0.111175 167.207 -0.00996029 166.301 0.00506601C165.8 -0.0159708 165.3 0.0286458 164.813 0.136373C164.65 0.172436 164.488 0.215434 164.329 0.265368C164.16 0.318538 163.993 0.379568 163.828 0.448226C163.046 0.775569 162.346 1.27074 161.776 1.89884C160.648 3.28496 160.065 5.03633 160.138 6.82262V9.22775H157.204C157.028 9.22775 156.859 9.29756 156.735 9.4217C156.611 9.54608 156.541 9.7146 156.541 9.89052V10.9414L156.544 11.0085C156.547 11.0399 156.553 11.0709 156.56 11.1012C156.572 11.1456 156.587 11.1886 156.607 11.2297C156.639 11.2961 156.682 11.3571 156.735 11.4103C156.792 11.4676 156.859 11.5134 156.931 11.546C156.988 11.5712 157.047 11.5885 157.108 11.5975C157.139 11.6021 157.172 11.6044 157.204 11.6044H160.185V30.9019C160.185 31.0778 160.256 31.2464 160.38 31.3707C160.504 31.4949 160.673 31.5647 160.848 31.5647H161.899C161.965 31.5647 162.03 31.555 162.092 31.5363C162.194 31.5048 162.29 31.4484 162.368 31.3707C162.432 31.3067 162.482 31.2311 162.515 31.1486C162.524 31.1245 162.533 31.1 162.539 31.0748C162.555 31.0189 162.562 30.9609 162.562 30.9019V11.6044H167.457C167.632 11.6044 167.801 11.5346 167.925 11.4103C168.049 11.2859 168.12 11.1174 168.12 10.9414V9.89052C168.12 9.85747 168.117 9.82464 168.112 9.79204L168.103 9.74257C168.094 9.70258 168.082 9.66328 168.065 9.62537C168.028 9.54168 167.975 9.46655 167.909 9.40413C167.842 9.34195 167.764 9.29433 167.678 9.26381C167.592 9.23353 167.5 9.22128 167.41 9.22775ZM183.257 10.2408C181.729 9.30149 179.966 8.81557 178.174 8.83938C176.362 8.81372 174.582 9.31721 173.052 10.2881C171.529 11.2653 170.314 12.654 169.549 14.2935C168.72 16.0717 168.304 18.0133 168.328 19.9748V20.9217C168.311 22.8855 168.738 24.8276 169.577 26.603C170.354 28.2309 171.574 29.6062 173.099 30.5704C174.642 31.5055 176.411 32 178.216 32C180.02 32 181.789 31.5055 183.332 30.5704C184.86 29.5803 186.072 28.1743 186.826 26.5177C187.652 24.7391 188.066 22.7972 188.038 20.8364V19.8895C188.057 17.9245 187.626 15.9813 186.779 14.2082C186.007 12.577 184.785 11.2006 183.257 10.2408ZM185.662 19.9937V20.5902C185.766 22.9465 185.02 25.262 183.56 27.1144C182.918 27.9091 182.102 28.5451 181.174 28.9721C180.246 29.3991 179.232 29.606 178.211 29.5761C176.839 29.6009 175.491 29.215 174.339 28.4684C173.177 27.6893 172.255 26.6005 171.679 25.3246C171.03 23.9089 170.706 22.3654 170.732 20.8079V20.1831C170.644 17.8434 171.397 15.5494 172.853 13.7158C173.487 12.9101 174.302 12.2642 175.23 11.8301C176.159 11.3959 177.177 11.1858 178.201 11.2161C179.546 11.2073 180.864 11.5959 181.988 12.3333C183.149 13.1251 184.072 14.2186 184.658 15.496C184.793 15.7808 184.914 16.071 185.022 16.3655C185.117 16.6198 185.2 16.8775 185.273 17.1381C185.534 18.0646 185.665 19.0256 185.662 19.9937ZM205.39 9.22775H206.431C206.607 9.22775 206.776 9.29756 206.9 9.42194C206.933 9.45522 206.963 9.49175 206.989 9.53082C207.014 9.56919 207.034 9.60988 207.051 9.65218C207.068 9.69726 207.08 9.74419 207.087 9.79228L207.092 9.83574L207.094 9.89052V30.9019C207.094 31.0778 207.025 31.2464 206.9 31.3707C206.776 31.4951 206.607 31.5649 206.431 31.5649H205.437C205.349 31.5649 205.263 31.5476 205.184 31.5148C205.153 31.5016 205.122 31.4859 205.092 31.4676L205.06 31.4461L205.042 31.4332L205.004 31.4033L204.969 31.3707C204.845 31.2464 204.774 31.0778 204.774 30.9019V29.5195C204.262 30.0406 203.679 30.487 203.042 30.8453C201.551 31.6308 199.88 32.0129 198.196 31.9531C197.141 32.028 196.083 31.8652 195.1 31.4769C194.117 31.0885 193.234 30.4844 192.515 29.7088C191.165 27.9045 190.494 25.6813 190.622 23.4311V9.89052C190.622 9.71483 190.691 9.54608 190.816 9.42194C190.94 9.29756 191.108 9.22775 191.284 9.22775H192.306C192.388 9.22775 192.467 9.24278 192.542 9.27098L192.567 9.28138L192.601 9.29687L192.644 9.31953C192.669 9.33432 192.693 9.35096 192.716 9.36923C192.736 9.38541 192.757 9.40298 192.775 9.42194C192.9 9.54608 192.969 9.71483 192.969 9.89052V23.4879C192.873 25.1383 193.351 26.7713 194.323 28.1086C194.804 28.6225 195.393 29.0225 196.049 29.2795C196.187 29.3336 196.326 29.381 196.468 29.4219C196.581 29.4545 196.696 29.483 196.811 29.5072C196.912 29.5285 197.015 29.5463 197.119 29.5609C197.183 29.5699 197.248 29.5775 197.313 29.584C197.372 29.5898 197.431 29.5946 197.49 29.5983C197.547 29.6018 197.603 29.6041 197.659 29.6055L197.753 29.6069C197.871 29.6076 197.99 29.6036 198.11 29.5953C199.705 29.6725 201.282 29.2234 202.597 28.3169C203.756 27.4054 204.518 26.0831 204.727 24.6242V9.89052C204.727 9.71483 204.797 9.54608 204.921 9.42194C204.968 9.37616 205.019 9.33779 205.075 9.3075C205.171 9.25572 205.279 9.22775 205.39 9.22775ZM220.424 8.83938C218.694 8.84261 217.009 9.39651 215.614 10.4206C214.859 10.9431 214.191 11.5823 213.636 12.3144V9.89052C213.636 9.7146 213.566 9.54608 213.442 9.4217C213.318 9.29733 213.149 9.22752 212.973 9.22752H211.923C211.747 9.22752 211.578 9.29733 211.454 9.4217C211.33 9.54608 211.26 9.7146 211.26 9.89052V30.9019C211.26 31.0115 211.287 31.1183 211.337 31.2133C211.368 31.2706 211.408 31.3236 211.454 31.3705C211.578 31.4949 211.747 31.5647 211.923 31.5647H212.973C213.149 31.5647 213.318 31.4949 213.442 31.3705C213.518 31.2935 213.575 31.1999 213.606 31.098C213.626 31.0351 213.636 30.969 213.636 30.9019V17.5317C214.002 15.7991 214.864 14.2102 216.116 12.9584C216.395 12.6766 216.7 12.4244 217.028 12.2055C217.174 12.1077 217.325 12.0164 217.479 11.932C217.668 11.8287 217.864 11.7355 218.064 11.6532C218.795 11.3539 219.578 11.2052 220.367 11.2161C221.061 11.1534 221.76 11.245 222.415 11.484C223.069 11.7228 223.663 12.1036 224.154 12.5985C225.062 13.9393 225.489 15.548 225.366 17.1626V30.9019C225.366 31.0776 225.435 31.2461 225.56 31.3705C225.684 31.4949 225.852 31.5647 226.028 31.5647H227.079C227.157 31.5647 227.232 31.5511 227.304 31.5252C227.394 31.4926 227.478 31.4401 227.548 31.3705C227.672 31.2461 227.742 31.0776 227.742 30.9019V17.191C227.742 14.4638 227.108 12.3807 225.915 10.9794C225.852 10.9128 225.787 10.8474 225.722 10.7835C225.662 10.7246 225.601 10.6668 225.538 10.6102C225.401 10.4863 225.259 10.3679 225.113 10.2555C224.867 10.0667 224.609 9.89445 224.34 9.74026C224.041 9.56919 223.73 9.42009 223.409 9.29456C222.953 9.11702 222.481 8.98895 222.002 8.9115C221.482 8.82736 220.952 8.80285 220.424 8.83938ZM246.609 0.412163H247.66C247.836 0.412163 248.004 0.481978 248.129 0.606349C248.253 0.73049 248.323 0.899247 248.323 1.07494V30.9019C248.323 30.9891 248.306 31.0753 248.272 31.1555C248.239 31.236 248.19 31.309 248.129 31.3707C248.067 31.4322 247.994 31.481 247.914 31.5143L247.884 31.5261L247.856 31.5351L247.836 31.5411L247.786 31.5524C247.745 31.5605 247.703 31.5647 247.66 31.5647H246.609C246.563 31.5647 246.518 31.5598 246.473 31.5504C246.434 31.542 246.394 31.53 246.356 31.5143C246.275 31.481 246.202 31.4322 246.141 31.3707C246.079 31.309 246.03 31.236 245.997 31.1555C245.964 31.0753 245.947 30.9891 245.947 30.9019V29.4626L245.816 29.5889L245.689 29.7068C245.59 29.7962 245.49 29.8831 245.386 29.9675L245.224 30.0972L245.083 30.2047C245.005 30.262 244.927 30.3182 244.848 30.3728C244.573 30.5633 244.285 30.7369 243.987 30.8924C242.583 31.6151 241.022 31.9794 239.443 31.9531C238.213 31.9887 236.993 31.7184 235.892 31.1664C234.792 30.6143 233.845 29.7981 233.138 28.7904C231.652 26.7547 230.894 23.9519 230.894 20.4577V20.1831C230.894 16.6607 231.652 13.9243 233.147 11.9262C233.87 10.9334 234.826 10.1328 235.93 9.59485C237.034 9.05668 238.254 8.7973 239.481 8.83938C241.067 8.81048 242.631 9.21319 244.006 10.004C244.736 10.4356 245.392 10.9824 245.947 11.6234V1.07494C245.947 1.04257 245.949 1.01044 245.954 0.97877L245.964 0.924445L245.981 0.866651C246.013 0.769558 246.067 0.680094 246.141 0.606349C246.265 0.481978 246.434 0.412163 246.609 0.412163ZM233.308 20.5904C233.182 22.9341 233.759 25.2622 234.965 27.2755C235.441 28.0166 236.104 28.6195 236.886 29.0234C237.669 29.4273 238.545 29.618 239.424 29.5764C240.86 29.6208 242.278 29.2564 243.514 28.5252C244.619 27.8248 245.471 26.7898 245.947 25.5711V15.9505C244.82 12.7691 242.699 11.2161 239.462 11.2161C238.585 11.1775 237.711 11.3654 236.927 11.7616C236.866 11.7926 236.805 11.8248 236.746 11.858C236.647 11.9131 236.55 11.9713 236.455 12.0326C236.396 12.0705 236.339 12.1096 236.282 12.1498L236.14 12.2536L236.047 12.3262L235.961 12.3955L235.859 12.4829C235.784 12.5488 235.711 12.6168 235.64 12.6868C235.596 12.7298 235.553 12.7735 235.511 12.8181C235.427 12.9073 235.347 12.9998 235.269 13.0953C235.168 13.2185 235.073 13.3466 234.984 13.4793C233.877 15.051 233.308 17.4467 233.308 20.5904ZM268.034 26.0255V15.979C268.065 14.9837 267.876 13.9941 267.479 13.0805C267.083 12.1671 266.49 11.3525 265.743 10.6952C264.094 9.38171 262.026 8.70899 259.92 8.80146C257.786 8.73257 255.693 9.40136 253.994 10.6952C253.871 10.7838 253.752 10.8767 253.636 10.9738C253.362 11.2041 253.109 11.4583 252.88 11.733C252.6 12.0691 252.356 12.4357 252.154 12.8271C251.718 13.6732 251.489 14.6106 251.485 15.5624C251.485 15.7348 251.553 15.9006 251.673 16.0245C251.793 16.1482 251.957 16.2203 252.129 16.2252H253.18C253.219 16.2275 253.257 16.2263 253.295 16.2217C253.344 16.2159 253.393 16.2041 253.44 16.1865C253.524 16.1556 253.599 16.1073 253.662 16.0453C253.7 16.0078 253.733 15.966 253.761 15.9209C253.781 15.8899 253.797 15.8576 253.811 15.8238C253.845 15.7411 253.862 15.6521 253.861 15.5624C253.864 14.9451 254.016 14.3378 254.307 13.7932C254.467 13.4927 254.666 13.2162 254.899 12.9707C255.088 12.7714 255.299 12.5925 255.528 12.4376C256.801 11.5124 258.348 11.0422 259.92 11.1026C261.464 10.9967 262.995 11.4542 264.228 12.3902C264.72 12.8452 265.105 13.4044 265.354 14.0267C265.432 14.2241 265.497 14.4264 265.547 14.6319L265.572 14.7387L265.587 14.8081L265.607 14.9146C265.624 15.0106 265.637 15.1072 265.649 15.2041C265.661 15.3079 265.668 15.4119 265.673 15.5164C265.676 15.5998 265.677 15.6835 265.675 15.7672L265.672 15.8816L265.667 15.9884V18.3936H261.132C258.567 18.3046 256.032 18.9625 253.833 20.2873C253.023 20.7885 252.338 21.4703 251.835 22.2796C251.331 23.0889 251.021 24.0037 250.929 24.9527C250.838 25.9014 250.966 26.8587 251.307 27.7494C251.646 28.6403 252.187 29.4404 252.887 30.0877C254.316 31.2954 256.147 31.9207 258.018 31.8393C259.816 31.9066 261.604 31.543 263.234 30.7789C263.343 30.7214 263.45 30.6617 263.556 30.6002L263.701 30.5154L263.835 30.4333C263.908 30.3878 263.98 30.3411 264.052 30.2937C264.116 30.2514 264.179 30.2086 264.24 30.1649C264.328 30.1037 264.415 30.0408 264.501 29.9768C264.939 29.6492 265.347 29.2842 265.723 28.8852C265.767 29.6178 265.884 30.3443 266.074 31.0533C266.116 31.1909 266.201 31.3111 266.318 31.3962C266.433 31.4815 266.574 31.5272 266.717 31.5268H267.967C268.143 31.5268 268.311 31.457 268.436 31.3328C268.56 31.2085 268.63 31.0399 268.63 30.864V30.6936C268.631 30.6021 268.612 30.5115 268.573 30.4285C268.298 29.955 268.034 28.7714 268.034 26.0255ZM265.667 20.8838V25.0692C265.051 26.4266 264.046 27.5705 262.779 28.3548C261.35 29.2037 259.708 29.6272 258.045 29.5764C256.795 29.6332 255.568 29.2176 254.609 28.4117C254.197 28.0795 253.865 27.6581 253.638 27.1793C253.614 27.1285 253.591 27.0771 253.57 27.0254L253.547 26.9676C253.518 26.8948 253.492 26.821 253.468 26.7466C253.355 26.3919 253.299 26.0207 253.303 25.6466C253.304 25.2929 253.355 24.9425 253.455 24.6057C253.528 24.3576 253.627 24.117 253.751 23.8879C254.044 23.3476 254.466 22.888 254.979 22.5503C256.446 21.452 258.632 20.8932 261.473 20.8932L265.667 20.8838ZM276.601 28.7999C277.169 29.6332 278.361 29.7183 280.473 29.4155C280.562 29.3993 280.654 29.4016 280.742 29.4224C280.831 29.443 280.913 29.4818 280.986 29.5359L281.009 29.5546L281.04 29.5801L281.062 29.6009L281.087 29.6275L281.108 29.6524C281.129 29.6792 281.149 29.7074 281.165 29.7373C281.211 29.8159 281.239 29.9028 281.25 29.9929L281.42 30.9398C281.433 31.0073 281.434 31.0758 281.426 31.1428C281.415 31.2286 281.387 31.3123 281.344 31.3883C281.265 31.5238 281.141 31.6269 280.993 31.6784C280.21 31.9018 279.394 31.9947 278.58 31.9531C278.198 31.9852 277.814 31.9688 277.44 31.9052C277.121 31.8511 276.807 31.7628 276.505 31.6412C275.848 31.3763 275.261 30.9611 274.793 30.4285C273.939 29.1186 273.537 27.5661 273.647 26.0066V11.6044H270.372C270.196 11.6044 270.027 11.5346 269.903 11.4103C269.779 11.2861 269.709 11.1174 269.709 10.9417V9.89052C269.709 9.81863 269.721 9.74789 269.743 9.68085C269.776 9.58422 269.83 9.49545 269.903 9.42194C270.027 9.29756 270.196 9.22775 270.372 9.22775H273.6V4.21867C273.6 4.04298 273.67 3.87422 273.794 3.75008C273.918 3.62571 274.086 3.5559 274.262 3.5559H275.323C275.498 3.5559 275.667 3.62571 275.791 3.75008C275.916 3.87422 275.985 4.04298 275.985 4.21867V9.22775H280.104C280.216 9.22775 280.325 9.25618 280.422 9.30912C280.455 9.32762 280.488 9.34912 280.518 9.37362C280.538 9.38865 280.555 9.40483 280.572 9.42194C280.697 9.54631 280.766 9.71483 280.766 9.89052V10.9417C280.766 11.0795 280.724 11.2128 280.645 11.324L280.615 11.3624C280.601 11.3791 280.588 11.395 280.572 11.4103C280.448 11.5346 280.28 11.6044 280.104 11.6044H275.985V25.8646C275.909 26.8816 276.121 27.8997 276.601 28.7999ZM283.947 2.09765C283.817 2.23173 283.71 2.38431 283.628 2.54913C283.574 2.66079 283.53 2.778 283.5 2.8989C283.465 3.0383 283.446 3.18255 283.445 3.32865C283.448 3.78753 283.631 4.22676 283.956 4.5511C284.28 4.87567 284.719 5.05899 285.178 5.06153C285.406 5.06408 285.633 5.02085 285.843 4.93462C286.055 4.84862 286.247 4.72101 286.408 4.55965C286.575 4.40084 286.706 4.20966 286.796 3.9979C286.811 3.96138 286.825 3.92416 286.838 3.88648C286.851 3.84903 286.863 3.81111 286.873 3.77274C286.911 3.62825 286.93 3.47892 286.929 3.32865C286.93 3.19365 286.914 3.05957 286.884 2.92872C286.861 2.83625 286.833 2.74563 286.797 2.65756C286.709 2.44464 286.58 2.25115 286.418 2.08817C286.086 1.7673 285.642 1.58861 285.181 1.59046C285.09 1.59092 285 1.59832 284.912 1.61242C284.794 1.63091 284.679 1.6612 284.568 1.70258C284.436 1.75158 284.311 1.81631 284.194 1.89561C284.147 1.92751 284.102 1.96149 284.058 1.99779C284.02 2.02946 283.983 2.06274 283.947 2.09765ZM284.657 9.22775H285.708C286.074 9.22775 286.37 9.52458 286.37 9.89052V30.9019C286.37 31.2681 286.074 31.5649 285.708 31.5649H284.657C284.291 31.5649 283.994 31.2681 283.994 30.9019V9.89052C283.994 9.67461 284.098 9.48273 284.258 9.36183C284.369 9.27768 284.508 9.22775 284.657 9.22775ZM304.121 10.2408C302.594 9.30149 300.831 8.81557 299.037 8.83938C297.225 8.81372 295.445 9.31721 293.915 10.2881C292.389 11.2609 291.173 12.651 290.412 14.2935C289.58 16.0703 289.162 18.0128 289.191 19.9748V20.9217C289.17 22.886 289.598 24.8292 290.441 26.603C291.206 28.2395 292.428 29.6194 293.961 30.5757C295.493 31.5319 297.269 32.0233 299.075 31.9908C300.885 32.0148 302.664 31.515 304.197 30.5515C305.735 29.572 306.96 28.1722 307.727 26.5177C308.553 24.7391 308.967 22.7972 308.939 20.8364V19.8895C308.953 17.925 308.523 15.9829 307.68 14.2082C306.894 12.5751 305.659 11.1992 304.121 10.2408ZM306.526 19.9937V20.5902C306.627 22.9479 305.878 25.2634 304.414 27.1144C303.773 27.908 302.959 28.543 302.032 28.97C301.106 29.397 300.095 29.6043 299.075 29.5761C297.7 29.6004 296.349 29.2148 295.194 28.4684C294.053 27.6777 293.15 26.5908 292.58 25.3246C291.931 23.9089 291.608 22.3654 291.634 20.8079V20.1831C291.551 17.8441 292.303 15.5517 293.754 13.7158C294.393 12.9127 295.21 12.2688 296.14 11.8352C297.07 11.4012 298.088 11.1895 299.113 11.2161C300.446 11.2082 301.752 11.5901 302.871 12.3144C304.03 13.108 304.953 14.201 305.541 15.4771C306.207 16.8889 306.543 18.4331 306.526 19.9937ZM323.679 9.28832C324.633 9.65843 325.494 10.2361 326.198 10.9794C327.391 12.3807 328.006 14.4638 327.996 17.191V30.9019C327.996 31.0776 327.927 31.2464 327.802 31.3705C327.678 31.4949 327.509 31.5647 327.333 31.5647H326.283C326.108 31.5647 325.938 31.4949 325.814 31.3705C325.69 31.2464 325.62 31.0776 325.62 30.9019V17.1626C325.745 15.5464 325.314 13.9363 324.399 12.5985C323.908 12.1036 323.315 11.723 322.66 11.484C322.006 11.245 321.307 11.1534 320.612 11.2161C319.825 11.2047 319.042 11.3534 318.313 11.6528C317.585 11.9524 316.924 12.3964 316.371 12.9584C315.115 14.2093 314.251 15.7982 313.881 17.5317V30.9019C313.881 31.0776 313.812 31.2464 313.687 31.3705C313.563 31.4949 313.395 31.5647 313.218 31.5647H312.168C311.992 31.5647 311.823 31.4949 311.699 31.3705C311.575 31.2464 311.505 31.0776 311.505 30.9019V9.89052C311.505 9.7146 311.575 9.54608 311.699 9.4217C311.823 9.29756 311.992 9.22752 312.168 9.22752H313.218C313.395 9.22752 313.563 9.29756 313.687 9.4217C313.812 9.54608 313.881 9.7146 313.881 9.89052V12.3144C314.442 11.5841 315.112 10.9454 315.87 10.4206C317.264 9.39651 318.948 8.84261 320.679 8.83938C321.7 8.76494 322.724 8.91844 323.679 9.28832Z" fill="#F3857D"/>
<path d="M12.19 31.1009C15.193 31.1842 18.1068 30.0743 20.2937 28.0141C17.5636 26.9397 15.157 25.1784 13.3071 22.9009C11.8591 25.0244 11.0869 27.5363 11.0918 30.1067C11.0918 30.4286 11.0918 30.7506 11.0918 31.0536C11.4567 31.0904 11.8233 31.1062 12.19 31.1009V31.1009Z" fill="#F3857D"/>
<path d="M13.3066 22.9007C15.1513 25.1757 17.5511 26.9367 20.2743 28.0139C22.9629 25.3153 23.8907 21.2248 23.8718 17.2952C21.7877 17.2993 19.736 17.8121 17.8949 18.7889C16.0538 19.7658 14.4789 21.1772 13.3066 22.9007V22.9007Z" fill="#F3C36A"/>
<path d="M13.3066 22.9008C12.5147 21.9343 11.8321 20.8832 11.2712 19.7666C10.8665 18.9576 10.5247 18.1187 10.2487 17.2573C9.08291 17.5584 7.88376 17.7111 6.6797 17.7118H6.38623C6.17644 18.7113 6.07173 19.73 6.07382 20.7513V20.7513C6.07149 20.8771 6.02116 20.9971 5.93315 21.0869C5.84513 21.1767 5.7261 21.2294 5.60047 21.2343V21.2343C5.53816 21.2485 5.47345 21.2485 5.41113 21.2343V21.2343C6.65581 22.4142 7.64696 23.8356 8.32408 25.4115C9.00119 26.9874 9.35006 28.6848 9.34938 30.4001C9.34938 30.5327 9.34938 30.6653 9.34938 30.7978C9.97058 30.9571 10.6039 31.0647 11.2428 31.1198C11.2428 30.7978 11.2428 30.4759 11.2428 30.1729C11.1796 27.5959 11.8992 25.0603 13.3066 22.9008V22.9008Z" fill="#EF6E8D"/>
<path d="M5.35439 21.1868C5.30914 21.1538 5.26784 21.1157 5.23132 21.0732C4.03004 19.9621 2.62522 19.094 1.09426 18.5166V18.6018C1.03927 19.029 1.00766 19.4589 0.999594 19.8896C0.946356 22.3707 1.73689 24.7963 3.24177 26.7694C4.74665 28.7425 6.8767 30.1461 9.28317 30.7504C9.28317 30.6178 9.28317 30.4853 9.28317 30.3527C9.28507 28.6381 8.93769 26.9411 8.26222 25.3652C7.58674 23.7893 6.59735 22.3676 5.35439 21.1868V21.1868Z" fill="#EF8DA9"/>
<path d="M5.16537 20.9976C4.66092 19.8892 4.34107 18.7058 4.21848 17.4941C4.17255 17.114 4.15041 16.7313 4.1522 16.3484C4.15235 15.1376 4.35066 13.9349 4.73927 12.7881C4.80205 12.6851 4.82136 12.5615 4.79295 12.4443C4.76454 12.3271 4.69073 12.2259 4.58777 12.1632C4.4848 12.1004 4.36112 12.0811 4.24392 12.1095C4.12672 12.1379 4.0256 12.2117 3.96282 12.3147C2.80432 13.5686 1.9491 15.0717 1.46304 16.7082C1.2911 17.3001 1.16759 17.9049 1.09375 18.5168C2.61268 19.0889 4.00773 19.9472 5.20325 21.045L5.16537 20.9976Z" fill="#F0A6BB"/>
<path d="M10.268 17.2573C9.75784 15.5883 9.50558 13.8513 9.51994 12.1062C9.51994 11.7274 9.51994 11.3392 9.51994 10.9604C7.98678 12.9502 6.91611 15.2565 6.38574 17.7118H6.67928C7.88992 17.7126 9.09578 17.5599 10.268 17.2573V17.2573Z" fill="#84CEE2"/>
<path d="M21.1072 6.40611C20.9622 6.23239 20.7969 6.07663 20.615 5.94214C20.2735 7.96471 19.4953 9.88849 18.3344 11.5794C17.1735 13.2704 15.658 14.6878 13.8934 15.733C12.7637 16.4115 11.5427 16.9249 10.2676 17.2575C10.5435 18.1189 10.8853 18.9578 11.29 19.7667C11.8449 20.8824 12.5212 21.9335 13.3065 22.9009C14.4787 21.1774 16.0537 19.7659 17.8948 18.7891C19.7359 17.8122 21.7875 17.2995 23.8716 17.2953C23.8621 12.523 22.4421 7.97795 21.1072 6.40611Z" fill="#00BAD6"/>
<path d="M11.6969 8.57429C10.9042 9.3059 10.1757 10.1042 9.51954 10.9604C9.51954 11.3392 9.51954 11.7274 9.51954 12.1062C9.51745 13.8532 9.78243 15.5903 10.3053 17.2573C11.5804 16.9247 12.8014 16.4113 13.9311 15.7328C15.6957 14.6876 17.2113 13.2702 18.3721 11.5792C19.533 9.88829 20.3112 7.96451 20.6527 5.94194C18.5699 4.41745 14.8589 5.68628 11.6969 8.57429Z" fill="#54C3DE"/>
</g>
</svg>
