<svg viewBox="0 0 164 36" fill="none" xmlns="http://www.w3.org/2000/svg">
<g>
<path fill-rule="evenodd" clip-rule="evenodd" d="M63.7546 16.7474C63.7546 14.5555 63.1855 12.6175 60.7116 12.6175C58.6063 12.6175 57.0662 14.3835 57.0662 17.0588V22.9424C57.0662 24.1962 56.1857 24.4215 55.7311 24.4215C55.2765 24.4215 54.3918 24.1962 54.3918 22.9424V3.93567C54.3918 2.68191 55.2929 2.45654 55.7311 2.45654C56.1693 2.45654 57.0662 2.68191 57.0662 3.93567V12.7609H57.1236C57.7504 11.4252 59.4583 10.3436 61.3956 10.3436C64.8646 10.3436 66.4293 12.8019 66.4293 15.8379V22.9424C66.4293 24.1962 65.5485 24.4215 65.094 24.4215C64.6394 24.4215 63.7546 24.1962 63.7546 22.9424V16.7474ZM46.0814 24.5813C45.1547 24.5999 44.2371 24.3916 43.4092 23.9746C42.581 23.5576 41.8674 22.9444 41.3305 22.1886H41.2443V29.7888C41.2443 31.0384 40.3637 31.2679 39.905 31.2679C39.4464 31.2679 38.5698 31.0384 38.5698 29.7888V11.9375C38.5698 10.6837 39.4504 10.4829 39.8764 10.4829C40.3023 10.4829 41.1871 10.6837 41.1871 11.9375V12.8183H41.2731C42.1536 11.3966 43.9189 10.36 46.1388 10.36C50.1526 10.36 52.8846 13.4616 52.8846 17.4481C52.8846 21.4347 50.2388 24.5813 46.0814 24.5813ZM45.6268 12.5642C42.895 12.5642 41.0723 14.8669 41.0723 17.4604C41.0723 20.0539 42.895 22.3278 45.6268 22.3278C48.5595 22.3278 50.1322 19.9637 50.1322 17.4112C50.1322 14.8587 48.5595 12.5642 45.6268 12.5642ZM67.7972 17.4358C67.7972 21.5903 70.9264 24.5813 75.055 24.5813C79.1794 24.5813 82.325 21.5903 82.325 17.4317C82.325 13.273 79.1834 10.3477 75.055 10.3477C70.9264 10.3477 67.7972 13.2812 67.7972 17.4358ZM70.5497 17.4358C70.5497 14.871 72.188 12.5683 75.055 12.5683V12.5642C77.9588 12.5642 79.5604 14.8546 79.5604 17.4358C79.5604 20.0171 77.922 22.3524 75.055 22.3524C72.188 22.3524 70.5497 20.0007 70.5497 17.4358ZM88.1369 24.4338C85.577 24.4338 84.2091 22.9834 84.2091 20.2219V8.09435C84.2091 6.8406 85.0939 6.61113 85.5484 6.61113C86.003 6.61113 86.8592 6.8406 86.8592 8.09435V10.7124H89.4476C90.5002 10.7124 90.6763 11.454 90.6763 11.8227C90.6763 12.1915 90.5044 12.9044 89.4476 12.9044H86.8592V19.9351C86.8592 21.574 87.4817 22.1845 88.4975 22.1845C88.6983 22.1821 88.8978 22.1531 89.0912 22.0985C89.232 22.0572 89.3766 22.0309 89.5228 22.0199L89.5786 22.0165C89.6282 22.0147 89.6776 22.0165 89.7266 22.0219C89.7534 22.0248 89.78 22.0288 89.8066 22.0338L89.844 22.0417C89.8928 22.0529 89.9408 22.0678 89.9876 22.0862C90.0502 22.1108 90.11 22.1414 90.1662 22.1777L90.198 22.1991C90.2466 22.2331 90.2922 22.2713 90.3344 22.3134C90.3656 22.3447 90.3948 22.3779 90.4216 22.4128C90.4796 22.4883 90.5268 22.5716 90.5618 22.6605C90.6127 22.7906 90.6363 22.9298 90.6313 23.0694C90.6215 23.2976 90.5464 23.5181 90.415 23.7047C90.3744 23.7625 90.3288 23.8163 90.279 23.8657C90.2588 23.8857 90.2378 23.905 90.2162 23.9235C90.1986 23.9386 90.1806 23.9532 90.1622 23.9672L90.136 23.9865C90.06 24.0411 89.9776 24.0868 89.89 24.1224C89.3326 24.3434 88.7363 24.4492 88.1369 24.4338ZM91.1063 17.4358C91.1063 21.5903 94.2355 24.5813 98.3641 24.5813C102.488 24.5813 105.671 21.5903 105.671 17.4317C105.671 13.273 102.492 10.3477 98.3641 10.3477C94.2355 10.3477 91.1063 13.2812 91.1063 17.4358ZM93.8588 17.4358C93.8588 14.871 95.4971 12.5683 98.3641 12.5683V12.5642C101.264 12.5642 102.869 14.8546 102.869 17.4358C102.869 20.0171 101.231 22.3524 98.3641 22.3524C95.4971 22.3524 93.8588 20.0007 93.8588 17.4358ZM119.765 24.4337C119.355 24.4337 118.454 24.2371 118.454 23.012V22.0698H118.397C117.859 22.861 117.132 23.5054 116.283 23.944C115.433 24.3826 114.487 24.6017 113.531 24.5813C109.378 24.5813 106.728 21.3937 106.728 17.4358C106.728 13.4779 109.46 10.3477 113.502 10.3477C114.436 10.3335 115.36 10.543 116.196 10.9585C117.032 11.374 117.757 11.9836 118.31 12.7364H118.368V3.93567C118.368 2.68191 119.281 2.45654 119.707 2.45654C120.133 2.45654 121.046 2.68191 121.046 3.93567V23.012C121.046 24.2371 120.162 24.4337 119.765 24.4337ZM113.985 22.3278C116.717 22.3278 118.54 20.0498 118.54 17.4604C118.54 14.871 116.73 12.5642 113.985 12.5642C111.057 12.5642 109.517 14.8956 109.517 17.4317C109.517 19.9678 111.057 22.3278 113.985 22.3278ZM132.74 21.9878H132.826V23.0285C132.826 24.2536 133.711 24.4502 134.108 24.4502C134.505 24.4502 135.361 24.2577 135.361 23.0285V11.9662C135.361 10.7124 134.477 10.4829 134.022 10.4829C133.567 10.4829 132.687 10.7124 132.687 11.9662V17.8866C132.687 20.562 131.175 22.3278 129.07 22.3278C126.592 22.3278 125.998 20.394 125.998 18.1979V11.9662C125.998 10.7124 125.113 10.4829 124.659 10.4829C124.204 10.4829 123.32 10.7124 123.32 11.9662V19.0829C123.32 22.0985 124.884 24.5772 128.357 24.5772C130.282 24.5772 132.084 23.4382 132.74 21.9878ZM139.686 12.933H139.768C140.424 11.4826 142.226 10.3436 144.155 10.3436C147.624 10.3436 149.193 12.8019 149.193 15.8379V22.9424C149.193 24.1962 148.308 24.4215 147.853 24.4215C147.399 24.4215 146.514 24.1962 146.514 22.9424V16.7188C146.514 14.5268 145.916 12.5929 143.442 12.5929C141.337 12.5929 139.825 14.3547 139.825 17.0343V22.9424C139.825 24.1962 138.945 24.4215 138.49 24.4215C138.036 24.4215 137.151 24.1962 137.151 22.9424V11.88C137.151 10.6509 138.007 10.4542 138.433 10.4542C138.859 10.4542 139.686 10.655 139.686 11.88V12.933ZM154.651 21.1908C153.833 20.4263 153.344 19.3736 153.288 18.2553L162.573 18.2594C163.515 18.2594 163.999 17.8332 163.999 16.895C164.005 16.5989 163.986 16.3028 163.941 16.01C163.429 12.3103 160.923 10.3477 157.536 10.3477C153.587 10.3477 150.573 13.273 150.573 17.4931C150.573 21.7132 153.591 24.5813 157.687 24.5813C158.634 24.6195 159.579 24.46 160.461 24.1129C161.343 23.7658 162.144 23.2389 162.811 22.5655C163.063 22.3033 163.208 21.9575 163.221 21.5944C163.224 21.4452 163.197 21.2968 163.141 21.1586C163.084 21.0204 163 20.8952 162.893 20.7911C162.786 20.6869 162.659 20.6058 162.519 20.553C162.38 20.5002 162.231 20.4767 162.082 20.4841C161.906 20.4855 161.732 20.5225 161.571 20.5929C161.41 20.6633 161.265 20.7657 161.144 20.8938C160.693 21.3577 160.152 21.726 159.556 21.9765C158.959 22.2271 158.318 22.3549 157.671 22.3524C156.552 22.3719 155.469 21.9553 154.651 21.1908ZM157.527 12.4495C160.006 12.4495 161.259 14.1294 161.316 16.264H153.288C153.382 15.2101 153.872 14.2308 154.658 13.5231C155.445 12.8155 156.47 12.4319 157.527 12.4495Z" fill="black"/>
<path d="M28.5641 4.06299H6.81557C5.84063 4.06299 5.05029 4.8536 5.05029 5.82887V27.5848C5.05029 28.5601 5.84063 29.3507 6.81557 29.3507H28.5641C29.5391 29.3507 30.3294 28.5601 30.3294 27.5848V5.82887C30.3294 4.8536 29.5391 4.06299 28.5641 4.06299Z" fill="url(#paint0_radial)"/>
<path fill-rule="evenodd" clip-rule="evenodd" d="M6.81626 4.26763C5.95442 4.26763 5.25577 4.96652 5.25577 5.82865V27.5846C5.25577 28.4468 5.95442 29.1457 6.81626 29.1457H28.5648C29.4267 29.1457 30.1253 28.4468 30.1253 27.5846V5.82865C30.1253 4.96652 29.4267 4.26763 28.5648 4.26763H6.81626ZM4.84619 5.82865C4.84619 4.74024 5.72822 3.85791 6.81626 3.85791H28.5648C29.6529 3.85791 30.5349 4.74024 30.5349 5.82865V27.5846C30.5349 28.673 29.6529 29.5554 28.5648 29.5554H6.81626C5.72822 29.5554 4.84619 28.673 4.84619 27.5846V5.82865Z" fill="black"/>
<path d="M26.7662 25.4907C25.9672 29.9239 26.9423 29.4691 26.9423 29.4691L27.9994 24.3722L25.9508 19.7014L25.1724 21.201" fill="#050505"/>
<path d="M33.688 9.75764C32.7173 10.2124 31.0339 12.3225 31.0339 12.3225C30.1001 12.0316 27.2085 12.4331 27.2085 12.4331L27.442 13.695L31.1282 13.0641C34.4293 9.69619 33.688 9.75764 33.688 9.75764Z" fill="#050505"/>
<path d="M23.0999 19.1895L23.6815 20.5374L21.224 23.6841L20.069 28.1786L15.3138 33.8123C11.0133 35.2586 11.4925 36.0001 11.4925 36.0001C12.0659 35.4921 14.8142 34.8447 15.5063 34.4268C16.1985 34.0089 21.3428 28.5884 21.3428 28.5884L23.6897 20.5579L24.9184 23.385" fill="#050505"/>
<path d="M19.3771 3.16955V6.89798H20.655C20.655 6.89798 20.5649 3.98079 20.1184 3.11219C20.1184 3.11219 21.9206 1.09638 22.2032 0.0597974C22.1991 0.0557003 22.1377 -0.685888 19.3771 3.16955ZM12.144 11.3229L13.5161 10.3027L8.56836 9.07357L3.70668 10.9706C3.70668 10.9706 3.41997 12.0071 7.655 10.4789L12.144 11.3229ZM11.3043 11.917L14.2328 12.8676L6.45084 15.9527C6.45084 15.9527 1.54001 21.5781 1.18777 22.3074C0.835538 23.0367 0.450535 25.8351 0 26.4538C0 26.4538 0.778197 26.8635 1.82262 22.4426L6.98739 17.2065L11.3535 15.6454L14.2574 12.8839L15.6499 13.3346" fill="#050505"/>
<path d="M27.3843 11.6014C27.3843 11.6014 28.4451 9.2619 26.2662 7.14776C26.2129 7.09859 26.1556 7.06581 26.1024 7.02484C26.0491 6.98387 26.0081 6.93061 25.9549 6.88554C23.4974 5.09098 21.384 6.53318 21.384 6.53318C-1.05263 9.4012 7.81882 23.6553 7.81882 23.6553C8.53148 25.5031 9.01069 26.302 9.2851 26.6298C9.2851 26.6298 9.2851 26.679 9.42846 26.7732C9.57181 26.8674 9.59638 26.8879 9.59638 26.8879C9.98548 27.1051 10.8497 27.441 12.787 27.8303C12.787 27.859 28.3345 34.2055 27.3843 11.6014Z" fill="black"/>
<path d="M26.8722 7.13165C27.4397 7.72594 27.8316 8.46585 28.0044 9.26932C28.1772 10.0728 28.1241 10.9084 27.8511 11.6836C28.146 19.0012 26.7248 23.3769 24.5745 25.9377C20.1511 31.0796 13.2702 28.5148 12.6599 28.269C11.5612 28.0934 10.4892 27.7796 9.46928 27.3348V27.3348C9.36261 27.3024 9.26461 27.2464 9.18258 27.1709V27.1709H9.1621L9.12524 27.134L9.08018 27.0972C8.98981 27.0302 8.91794 26.9414 8.8713 26.839V26.839C8.26018 25.9102 7.77148 24.9063 7.4173 23.8522V23.8522C7.08554 23.2868 3.40344 16.9321 7.73267 11.7328C9.89524 9.17614 13.9664 7.03742 21.2487 6.09916C21.9658 5.69991 22.7789 5.5059 23.599 5.53842C24.419 5.57094 25.2142 5.82874 25.8974 6.28354V6.28354L26.8722 7.13165ZM25.7131 7.24637C25.1952 6.82412 24.5703 6.55384 23.9079 6.4656C23.2456 6.37735 22.5718 6.4746 21.9614 6.74652V6.74652C21.8569 6.79143 21.7557 6.84345 21.6583 6.90221V6.90221L21.5723 6.96367H21.4617C14.2572 7.87734 10.4031 9.97509 8.44124 12.29C5.3817 15.8955 6.77017 20.3163 7.68352 22.3444C7.83446 22.712 8.00397 23.0717 8.1914 23.422V23.422V23.4548V23.4958C8.89178 25.319 9.3587 26.0852 9.58806 26.3638L9.65769 26.4457L9.74779 26.4949C10.0632 26.6711 10.8987 27.007 12.8073 27.3881H12.8524H12.8893C13.2558 27.5295 13.6305 27.6486 14.0115 27.7445V27.7445C14.9339 27.9794 15.8783 28.1167 16.8294 28.1542V28.1542C19.0698 28.2321 21.7443 27.7117 23.7922 25.2862C25.75 22.9672 27.1712 18.8086 26.864 11.5484H27.3146L27.7241 11.7328L27.3146 11.5484H26.864V11.5115L26.9091 11.4132C26.9091 11.4132 26.9541 11.3108 27.0156 11.0854C27.0927 10.7857 27.1298 10.4771 27.1262 10.1677C27.1183 9.65841 27.005 9.15632 26.7936 8.69303C26.5821 8.22974 26.277 7.81529 25.8974 7.47581V7.47581L25.8442 7.37338L25.8032 7.3447L25.6844 7.25457L25.7131 7.24637Z" fill="black"/>
<path d="M20.9749 6.25073C20.9749 6.25073 24.2065 10.4872 27.737 11.9622L27.6469 12.6095C26.3855 11.9095 25.0658 11.32 23.7027 10.8478C22.0275 10.352 21.9579 8.26244 20.5039 6.57441L20.9749 6.25073Z" fill="black"/>
<path d="M26.1719 13.134C25.5493 11.7123 23.141 11.9745 20.274 12.9906C21.3307 10.4462 21.6215 8.36897 20.0692 7.97974C20.0692 7.97974 3.68609 8.97535 7.87607 21.4308C7.94695 21.8167 8.08561 22.1871 8.28565 22.5247C8.35937 22.705 8.43719 22.8852 8.51501 23.0655C8.51501 23.0655 8.67884 23.2376 8.94916 23.4752C10.5301 25.3845 13.2456 27.0685 13.2456 27.0685C28.0969 30.8624 26.1719 13.134 26.1719 13.134Z" fill="url(#paint1_radial)"/>
<path d="M28.4902 7.56175C28.4902 7.56175 29.0188 8.99985 28.6213 10.1962C28.8968 10.1324 29.1385 9.96813 29.2992 9.73547C29.4598 9.50282 29.5279 9.21858 29.4899 8.9384C29.3343 7.93869 29.2769 7.46341 28.4902 7.56175Z" fill="#174E51"/>
<path d="M24.5757 4.91493C24.5757 4.91493 23.0598 4.68549 21.9658 5.32465C21.9733 5.04236 22.0858 4.773 22.2813 4.56919C22.4767 4.36539 22.7412 4.24178 23.0229 4.22251C24.0226 4.15695 24.4979 4.11598 24.5757 4.91493Z" fill="#174E51"/>
<path d="M22.2573 7.27912C22.5769 7.27912 23.0767 6.79565 22.5564 6.79565C22.2368 6.79565 21.737 7.27912 22.2573 7.27912Z" fill="black"/>
<path d="M21.9907 6.31223C22.1229 6.38322 22.2432 6.47447 22.3471 6.58265C22.552 6.78341 23.3018 6.48841 23.0805 6.26717C22.9437 6.12944 22.7878 6.01214 22.6176 5.91891C22.5251 5.88539 22.4261 5.87423 22.3285 5.88633C22.231 5.89844 22.1377 5.93347 22.0562 5.98856C21.9456 6.06231 21.8227 6.22619 21.9907 6.31223Z" fill="black"/>
<path d="M16.2891 8.19267C16.2891 8.19267 17.0222 16.1822 26.4179 15.9773C26.4179 15.9773 28.5518 4.50521 16.2891 8.19267Z" fill="black"/>
<path opacity="0.97" d="M17.3667 8.21307C17.3667 8.21307 18.022 15.379 26.2341 15.211C26.2341 15.211 26.8853 11.6014 24.1206 9.57333C22.7936 8.6023 20.844 7.13961 17.3667 8.21307Z" fill="url(#paint2_linear)"/>
<path opacity="0.97" d="M21.8343 6.66444C21.8343 6.66444 24.0951 5.65653 25.6925 7.25033C27.2898 8.84413 27.4742 9.67995 27.1178 10.9132C26.7615 12.1465 28.0844 10.524 21.7646 6.83652" fill="url(#paint3_linear)"/>
<path opacity="0.47" d="M15.6497 10.4624C15.3377 10.5919 15.0476 10.7688 14.7896 10.9869C14.5439 11.1795 14.3186 11.3966 14.0892 11.6097L12.6147 12.8675C12.1314 13.2772 11.6236 13.6869 11.0747 14.0966C10.5057 14.5206 9.88494 14.8703 9.22754 15.1373C9.43155 14.4471 9.74251 13.7932 10.1491 13.1994C10.5476 12.6128 11.0244 12.0835 11.5662 11.626C11.8442 11.3941 12.14 11.1845 12.4509 10.9992C12.6025 10.909 12.7827 10.8107 12.9424 10.737L13.1759 10.6345L13.2373 10.6099C13.2373 10.6099 13.266 10.6099 13.2783 10.6099L13.4052 10.5567C13.7576 10.3935 14.1336 10.287 14.5193 10.2412C14.9101 10.1905 15.3068 10.2681 15.6497 10.4624V10.4624Z" fill="white"/>
<path d="M20.344 14.6089L10.4609 25.9539L18.7139 13.3674L20.344 14.6089Z" fill="#231F20"/>
<defs>
<radialGradient id="paint0_radial" cx="0" cy="0" r="1" gradientUnits="userSpaceOnUse" gradientTransform="translate(22.1747 8.95091) scale(25.3078 25.3164)">
<stop stop-color="#373638"/>
<stop offset="1"/>
</radialGradient>
<radialGradient id="paint1_radial" cx="0" cy="0" r="1" gradientUnits="userSpaceOnUse" gradientTransform="translate(15.8546 8.40584) scale(17.0016 17.0074)">
<stop stop-color="#74CBD1"/>
<stop offset="0.72" stop-color="#0E8594"/>
<stop offset="1" stop-color="#0F637A"/>
</radialGradient>
<linearGradient id="paint2_linear" x1="19.4433" y1="7.74189" x2="24.6349" y2="14.9103" gradientUnits="userSpaceOnUse">
<stop stop-color="#7DCCC4"/>
<stop offset="0.76" stop-color="#0E8594"/>
<stop offset="1" stop-color="#0D7489"/>
</linearGradient>
<linearGradient id="paint3_linear" x1="22.9115" y1="5.30008" x2="26.0873" y2="10.8303" gradientUnits="userSpaceOnUse">
<stop stop-color="#60C3B2"/>
<stop offset="0.76" stop-color="#0E8594"/>
<stop offset="1" stop-color="#0D7489"/>
</linearGradient>
</defs>
</g>
</svg>
