<svg viewBox="0 0 31 35" fill="none" xmlns="http://www.w3.org/2000/svg">
<g id="logo">
<path d="M15.1669 34.9745C19.2363 35.0873 23.1848 33.5832 26.1482 30.7915C22.4486 29.3355 19.1876 26.9489 16.6807 23.8625C14.7185 26.7402 13.672 30.144 13.6787 33.6272C13.6787 34.0635 13.6787 34.4997 13.6787 34.9103C14.1731 34.9602 14.67 34.9816 15.1669 34.9745V34.9745Z" fill="#F3857D"/>
<path d="M16.6807 23.8623C19.1804 26.945 22.4323 29.3314 26.1226 30.7912C29.7659 27.1342 31.0232 21.5911 30.9975 16.2661C28.1733 16.2718 25.3932 16.9666 22.8983 18.2903C20.4034 19.614 18.2691 21.5267 16.6807 23.8623V23.8623Z" fill="#F3C36A"/>
<path d="M16.6806 23.8623C15.6075 22.5526 14.6825 21.1282 13.9224 19.6151C13.3741 18.5189 12.9109 17.3821 12.5369 16.2148C10.9571 16.6228 9.33211 16.8297 7.70049 16.8307H7.3028C7.01852 18.1852 6.87663 19.5656 6.87945 20.9496V20.9496C6.8763 21.12 6.8081 21.2827 6.68883 21.4044C6.56956 21.526 6.40826 21.5975 6.23802 21.604V21.604C6.15358 21.6232 6.06589 21.6232 5.98145 21.604V21.604C7.66811 23.203 9.01123 25.1291 9.92879 27.2646C10.8464 29.4001 11.3191 31.7003 11.3182 34.0247C11.3182 34.2044 11.3182 34.384 11.3182 34.5636C12.16 34.7794 13.0181 34.9253 13.8839 34.9999C13.8839 34.5636 13.8839 34.1274 13.8839 33.7168C13.7983 30.2247 14.7735 26.7887 16.6806 23.8623V23.8623Z" fill="#EF6E8D"/>
<path d="M5.90462 21.5391C5.8433 21.4943 5.78734 21.4427 5.73785 21.3851C4.10999 19.8795 2.20631 18.7031 0.131706 17.9207V18.0361C0.0571788 18.615 0.0143525 19.1976 0.00341943 19.7812C-0.0687237 23.1433 1.00254 26.4304 3.0418 29.1041C5.08107 31.7778 7.96751 33.6798 11.2285 34.4987C11.2285 34.3191 11.2285 34.1394 11.2285 33.9598C11.2311 31.6363 10.7604 29.3367 9.84503 27.2012C8.92969 25.0658 7.58896 23.1392 5.90462 21.5391V21.5391Z" fill="#EF8DA9"/>
<path d="M5.64931 21.2831C4.96572 19.7811 4.5323 18.1774 4.36617 16.5356C4.30393 16.0204 4.27393 15.5019 4.27635 14.983C4.27655 13.3421 4.54529 11.7124 5.0719 10.1584C5.15697 10.0189 5.18314 9.85126 5.14464 9.69244C5.10614 9.53362 5.00612 9.3966 4.86659 9.31152C4.72707 9.22645 4.55946 9.20028 4.40064 9.23878C4.24182 9.27728 4.1048 9.3773 4.01973 9.51682C2.44984 11.216 1.29092 13.2529 0.632258 15.4706C0.399261 16.2726 0.231902 17.0922 0.131836 17.9213C2.19014 18.6966 4.08058 19.8596 5.70063 21.3473L5.64931 21.2831Z" fill="#F0A6BB"/>
<path d="M12.5646 16.2147C11.8732 13.9531 11.5314 11.5993 11.5509 9.23447C11.5509 8.72122 11.5509 8.19514 11.5509 7.68188C9.47328 10.3782 8.02242 13.5035 7.30371 16.8306H7.70148C9.34203 16.8318 10.9761 16.6248 12.5646 16.2147V16.2147Z" fill="#84CEE2"/>
<path d="M27.2523 1.51008C27.0558 1.27467 26.8319 1.0636 26.5852 0.881348C26.1226 3.62214 25.0679 6.22907 23.4949 8.52047C21.9218 10.8119 19.8681 12.7326 17.4769 14.1489C15.946 15.0685 14.2914 15.7641 12.5635 16.2148C12.9374 17.3821 13.4006 18.5189 13.949 19.6151C14.7009 21.127 15.6173 22.5513 16.6815 23.8622C18.27 21.5267 20.4042 19.614 22.8991 18.2903C25.394 16.9666 28.1741 16.2717 30.9983 16.2661C30.9855 9.79912 29.0612 3.64008 27.2523 1.51008Z" fill="#00BAD6"/>
<path d="M14.4994 4.44818C13.4252 5.43959 12.4381 6.52139 11.5488 7.68168C11.5488 8.19493 11.5488 8.72101 11.5488 9.23427C11.546 11.6017 11.9051 13.9556 12.6136 16.2145C14.3416 15.7638 15.9961 15.0682 17.527 14.1487C19.9182 12.7324 21.9719 10.8116 23.545 8.5202C25.1181 6.2288 26.1727 3.62187 26.6354 0.881076C23.8131 -1.18477 18.7842 0.534631 14.4994 4.44818Z" fill="#54C3DE"/>
</g>
</svg>
