<svg viewBox="0 0 169 32" fill="none" xmlns="http://www.w3.org/2000/svg">
<g>
<path d="M43.4664 6.59598C36.2474 6.59598 31.0093 11.9642 31.0093 19.3503C31.0093 26.7364 36.1902 31.9999 43.714 31.9999C45.407 32.0701 47.0959 31.7854 48.6722 31.1641C50.2484 30.5428 51.6771 29.5987 52.8664 28.3925C53.3357 27.9291 53.6172 27.3088 53.6569 26.6507C53.6637 26.371 53.6129 26.093 53.5075 25.8338C53.4021 25.5747 53.2444 25.34 53.0442 25.1444C52.8441 24.9488 52.6057 24.7966 52.3441 24.6971C52.0825 24.5976 51.8032 24.5531 51.5236 24.5662C51.195 24.5752 50.8716 24.6498 50.5723 24.7854C50.2731 24.9211 50.0039 25.1152 49.7807 25.3562C48.9949 26.1691 48.0519 26.8136 47.0089 27.2505C45.9659 27.6874 44.8449 27.9076 43.714 27.8976C41.7851 27.9262 39.9189 27.2132 38.501 25.9059C37.0831 24.5986 36.2218 22.797 36.095 20.8732H52.3807C54.1521 20.8732 55.0188 20.0451 55.0188 18.3414C55.0296 17.8127 54.9946 17.284 54.914 16.7614C54.0378 10.3747 49.7521 6.59598 43.4664 6.59598V6.59598ZM43.4664 10.5555C47.3807 10.5555 49.895 13.0493 50.0474 17.0659H36.0855C36.276 15.254 37.1402 13.5795 38.507 12.3739C39.8739 11.1682 41.6437 10.5193 43.4664 10.5555V10.5555ZM70.5902 6.59598C69.006 6.58065 67.4467 6.99025 66.0748 7.7821C64.7029 8.57395 63.5687 9.71905 62.7902 11.0981V9.51805C62.7902 7.01478 60.8855 6.89104 60.4569 6.89104C60.1211 6.88263 59.7875 6.94706 59.479 7.07989C59.1706 7.21273 58.8946 7.41081 58.6701 7.6605C58.4456 7.91019 58.278 8.20555 58.1787 8.52623C58.0794 8.84691 58.0508 9.18529 58.095 9.51805V29.0207C58.0648 29.3652 58.1066 29.7123 58.2178 30.0398C58.329 30.3672 58.5071 30.668 58.7409 30.923C58.9747 31.178 59.259 31.3816 59.5757 31.5209C59.8924 31.6602 60.2347 31.7322 60.5807 31.7322C60.9267 31.7322 61.269 31.6602 61.5857 31.5209C61.9025 31.3816 62.1867 31.178 62.4205 30.923C62.6543 30.668 62.8324 30.3672 62.9436 30.0398C63.0548 29.7123 63.0966 29.3652 63.0664 29.0207V18.5508C63.0664 14.0011 65.6474 10.8125 69.3426 10.8125C73.0378 10.8125 74.6759 13.1635 74.6759 17.9987V29.0207C74.6385 29.3687 74.6748 29.7206 74.7824 30.0536C74.8901 30.3867 75.0666 30.6933 75.3006 30.9537C75.5346 31.214 75.8208 31.4222 76.1407 31.5648C76.4605 31.7073 76.8067 31.7809 77.1569 31.7809C77.5071 31.7809 77.8533 31.7073 78.1731 31.5648C78.4929 31.4222 78.7792 31.214 79.0132 30.9537C79.2472 30.6933 79.4237 30.3867 79.5314 30.0536C79.639 29.7206 79.6753 29.3687 79.6379 29.0207V16.4282C79.6188 11.6787 77.2474 6.59598 70.5902 6.59598V6.59598ZM102.095 6.85297C101.521 6.86219 100.967 7.06162 100.518 7.41995C100.07 7.77828 99.7538 8.27522 99.6188 8.83275L92.8188 25.9083L86.0759 8.83275C85.933 8.27059 85.6079 7.77152 85.1513 7.4134C84.6948 7.05527 84.1325 6.85822 83.5521 6.85297C82.9071 6.8402 82.2833 7.08347 81.8174 7.52949C81.3514 7.9755 81.0814 8.5879 81.0664 9.23251C81.0701 9.71596 81.1773 10.193 81.3807 10.6317L89.1902 29.0588C90.1426 31.286 91.6474 31.7524 92.7712 31.7524C93.895 31.7524 95.4188 31.286 96.3521 29.0683L104.219 10.5365C104.406 10.1064 104.51 9.64438 104.524 9.1754C104.524 8.8614 104.46 8.5506 104.337 8.26178C104.214 7.97296 104.033 7.71212 103.806 7.49504C103.579 7.27796 103.311 7.10913 103.016 6.99877C102.722 6.88842 102.409 6.83882 102.095 6.85297V6.85297ZM116.533 6.59598C113.567 6.53407 110.656 7.40287 108.209 9.08022C107.869 9.28206 107.587 9.56906 107.392 9.91289C107.197 10.2567 107.094 10.6455 107.095 11.041C107.085 11.2973 107.126 11.553 107.218 11.7928C107.309 12.0327 107.447 12.2516 107.625 12.4365C107.803 12.6214 108.017 12.7685 108.253 12.8689C108.489 12.9693 108.743 13.0209 109 13.0207C109.533 12.9956 110.046 12.8134 110.476 12.4972C112.102 11.3232 114.051 10.6785 116.057 10.6507C119.724 10.6507 121.828 12.5543 121.828 15.7715V16.314C113.59 16.314 105.209 17.3229 105.209 24.4901C105.209 29.6489 109.619 31.9523 113.99 31.9523C115.558 32.0233 117.119 31.6945 118.525 30.9968C119.931 30.2992 121.137 29.2556 122.028 27.9642V29.2206C121.993 29.5448 122.027 29.8727 122.129 30.1825C122.231 30.4923 122.398 30.7766 122.619 31.0165C122.84 31.2563 123.11 31.4461 123.411 31.5731C123.711 31.7 124.036 31.7612 124.362 31.7524C124.688 31.765 125.013 31.7062 125.313 31.5802C125.614 31.4541 125.884 31.2638 126.104 31.0226C126.323 30.7814 126.487 30.4951 126.585 30.1838C126.682 29.8726 126.71 29.5438 126.666 29.2206V16.0761C126.666 10.1367 122.857 6.59598 116.533 6.59598ZM120.819 19.988H121.905V21.1302C121.905 25.3182 119.247 28.0118 115.124 28.0118C114 28.0118 110.362 27.7548 110.362 24.4044C110.305 20.4258 116.305 19.988 120.819 19.988ZM139.562 11.3551C139.849 11.395 140.142 11.3721 140.42 11.288C140.698 11.2039 140.955 11.0606 141.172 10.8679C141.389 10.6752 141.562 10.4377 141.679 10.1718C141.795 9.90594 141.853 9.61794 141.847 9.32769C141.857 9.03441 141.802 8.74261 141.688 8.47245C141.573 8.20229 141.401 7.96021 141.184 7.76292C140.966 7.56563 140.709 7.41784 140.429 7.32976C140.149 7.24167 139.853 7.21539 139.562 7.25273H135.095V2.73162C135.132 2.38624 135.096 2.03689 134.99 1.7063C134.883 1.3757 134.708 1.07126 134.476 0.812793C134.243 0.554322 133.959 0.347607 133.642 0.206098C133.324 0.0645887 132.981 -0.00854492 132.633 -0.00854492C132.286 -0.00854492 131.942 0.0645887 131.624 0.206098C131.307 0.347607 131.023 0.554322 130.791 0.812793C130.558 1.07126 130.383 1.3757 130.277 1.7063C130.17 2.03689 130.134 2.38624 130.171 2.73162V24.1855C130.171 29.1349 132.619 31.8 137.238 31.8C138.31 31.8268 139.377 31.6324 140.371 31.2289C140.763 31.0664 141.1 30.7955 141.343 30.4482C141.586 30.1009 141.724 29.6916 141.743 29.2682C141.753 29.0053 141.709 28.7431 141.614 28.498C141.518 28.253 141.372 28.0304 141.186 27.8444C141 27.6584 140.777 27.5129 140.532 27.4172C140.287 27.3215 140.025 27.2777 139.762 27.2884C139.461 27.3034 139.164 27.3545 138.876 27.4407C138.541 27.5345 138.195 27.5857 137.847 27.593C135.943 27.593 135.095 26.3652 135.095 23.7286V11.3551H139.562ZM155.981 6.59598C148.476 6.59598 143.019 11.9166 143.019 19.2456C142.991 20.9451 143.307 22.6326 143.947 24.2075C144.587 25.7823 145.538 27.2121 146.743 28.4116C149.233 30.7711 152.55 32.0596 155.981 31.9999C163.4 31.9999 169 26.5175 169 19.2456C169 11.9737 163.524 6.59598 155.981 6.59598ZM155.981 27.7929C150.828 27.7929 148.143 23.5002 148.143 19.2266C148.143 13.3919 152.209 10.7364 155.981 10.7364C159.752 10.7364 163.809 13.411 163.809 19.2456C163.809 25.0802 159.762 27.7929 155.981 27.7929Z" fill="black"/>
<path opacity="0.65" d="M22.5141 4.34008C18.5237 -0.333324 5.60938 8.71843 5.71414 20.3877C5.71169 20.5308 5.65372 20.6674 5.55244 20.7686C5.45116 20.8698 5.3145 20.9278 5.17129 20.9302C5.07723 20.9292 4.985 20.9041 4.90333 20.8575C4.82166 20.8109 4.75327 20.7442 4.70462 20.6637C3.94973 19.0318 3.55973 17.2551 3.56176 15.4573C3.5608 14.1048 3.77952 12.7611 4.20938 11.4787C4.24681 11.3682 4.2448 11.2482 4.20367 11.1391C4.16255 11.0299 4.08486 10.9384 3.98382 10.8801C3.88278 10.8217 3.76463 10.8002 3.64948 10.8191C3.53433 10.838 3.4293 10.8962 3.35224 10.9837C1.19979 13.2763 0.00118414 16.3016 -0.000142641 19.4454C-0.0192931 21.0944 0.291566 22.7305 0.914165 24.2577C1.53676 25.7849 2.45854 27.1723 3.62532 28.3384C4.7921 29.5045 6.18034 30.4257 7.70845 31.048C9.23656 31.6702 10.8737 31.9809 12.5237 31.9617C30.1427 31.562 26.076 8.50903 22.5141 4.34008V4.34008Z" fill="#141614"/>
</g>
</svg>
