<svg viewBox="0 0 227 32" fill="none" xmlns="http://www.w3.org/2000/svg">
<g>
<path fill-rule="evenodd" clip-rule="evenodd" d="M104.811 12.5204C105.029 12.5461 105.25 12.5255 105.459 12.4598C105.668 12.3941 105.862 12.2849 106.026 12.1392C106.19 11.9936 106.321 11.815 106.41 11.6151C106.501 11.4151 106.547 11.1984 106.547 10.9793C106.547 10.7601 106.501 10.5434 106.41 10.3435C106.321 10.1436 106.19 9.96496 106.026 9.81937C105.862 9.67377 105.668 9.56453 105.459 9.49882C105.25 9.43312 105.029 9.41245 104.811 9.43818H101.454V6.04124C101.482 5.78174 101.455 5.51926 101.375 5.27087C101.295 5.02248 101.163 4.79374 100.989 4.59953C100.814 4.40533 100.601 4.25002 100.362 4.14369C100.123 4.03737 99.865 3.98242 99.6036 3.98242C99.3421 3.98242 99.084 4.03737 98.8453 4.14369C98.6066 4.25002 98.393 4.40533 98.2185 4.59953C98.0439 4.79374 97.9124 5.02248 97.832 5.27087C97.7525 5.51926 97.7249 5.78174 97.7533 6.04124V22.1606C97.7533 25.8793 99.593 27.8818 103.065 27.8818C103.87 27.9005 104.671 27.757 105.42 27.4598C105.715 27.3364 105.968 27.1316 106.151 26.8694C106.333 26.6073 106.437 26.2986 106.45 25.9794C106.458 25.7819 106.426 25.585 106.354 25.4008C106.281 25.2167 106.173 25.0495 106.032 24.9097C105.892 24.7699 105.725 24.6606 105.541 24.5887C105.357 24.5169 105.159 24.4839 104.962 24.4919C104.735 24.5031 104.512 24.5416 104.296 24.6064C104.045 24.6804 103.785 24.719 103.523 24.7208C102.091 24.7208 101.454 23.7983 101.454 21.8173V12.5204H104.811ZM81.2469 10.8182C83.0834 9.5523 85.2722 8.89669 87.5032 8.94451C92.256 8.94451 95.1195 11.612 95.1195 16.0674V25.9435C95.1504 26.1839 95.1293 26.4282 95.057 26.6596C94.9848 26.891 94.863 27.1041 94.7006 27.2841C94.5374 27.4642 94.3385 27.6069 94.1152 27.7026C93.892 27.7983 93.6516 27.8447 93.4089 27.8386C93.1621 27.8455 92.9169 27.7991 92.6904 27.7029C92.463 27.6068 92.2593 27.4629 92.0928 27.281C91.9264 27.0991 91.8014 26.8836 91.7259 26.6492C91.6503 26.4147 91.626 26.1667 91.6552 25.922V24.9781C90.9854 25.9554 90.0769 26.7457 89.0158 27.2739C87.9547 27.8021 86.7758 28.0506 85.5921 27.996C82.3064 27.996 78.9918 26.2653 78.9918 22.3892C78.9918 17.0042 85.2909 16.2461 91.4831 16.2461V15.8456C91.4831 13.4213 89.9007 11.991 87.1452 11.991C85.6375 12.0119 84.1729 12.4963 82.9502 13.3783C82.6271 13.6159 82.2414 13.7528 81.8412 13.7717C81.6479 13.7719 81.4571 13.7331 81.2793 13.6576C81.1015 13.5822 80.9414 13.4717 80.8076 13.3327C80.6739 13.1939 80.5697 13.0293 80.5012 12.8491C80.4327 12.6689 80.4014 12.4768 80.4091 12.2842C80.4084 11.988 80.4852 11.6968 80.6322 11.4396C80.7791 11.1824 80.991 10.9681 81.2469 10.8182ZM91.5399 18.9922H90.724C87.3311 18.9922 82.8211 19.3355 82.8641 22.3106C82.8641 24.8278 85.5986 25.0281 86.4437 25.0281C89.5435 25.0281 91.5399 22.9971 91.5399 19.8504V18.9922ZM49.5768 9.83575C50.608 9.2408 51.78 8.93304 52.9707 8.94456C57.9744 8.94456 59.7568 12.7634 59.7712 16.332V25.7933C59.7992 26.0548 59.772 26.3192 59.6911 26.5694C59.6102 26.8197 59.4775 27.05 59.3016 27.2456C59.1257 27.4413 58.9106 27.5977 58.6702 27.7048C58.4298 27.8119 58.1695 27.8672 57.9064 27.8672C57.6432 27.8672 57.3829 27.8119 57.1425 27.7048C56.9022 27.5977 56.687 27.4413 56.5112 27.2456C56.3353 27.05 56.2026 26.8197 56.1217 26.5694C56.0408 26.3192 56.0135 26.0548 56.0416 25.7933V17.5048C56.0416 13.8718 54.8104 12.1055 52.0329 12.1055C49.2555 12.1055 47.3156 14.5012 47.3156 17.9268V25.7933C47.3383 26.0522 47.3069 26.3129 47.2233 26.559C47.1397 26.8051 47.0058 27.031 46.8301 27.2227C46.6544 27.4142 46.4407 27.5672 46.2027 27.6719C45.9647 27.7766 45.7074 27.8305 45.4472 27.8305C45.1872 27.8305 44.9299 27.7766 44.6919 27.6719C44.4538 27.5672 44.2401 27.4142 44.0644 27.2227C43.8888 27.031 43.7549 26.8051 43.6712 26.559C43.5877 26.3129 43.5563 26.0522 43.5789 25.7933V11.1114C43.5457 10.8614 43.5672 10.6071 43.6419 10.3662C43.7165 10.1253 43.8425 9.90339 44.0113 9.71578C44.18 9.52818 44.3874 9.37934 44.6193 9.27954C44.8511 9.17973 45.1019 9.13133 45.3542 9.13765C45.6764 9.13765 47.108 9.23062 47.108 11.1114V12.3271C47.6931 11.291 48.5456 10.4307 49.5768 9.83575ZM23.2207 18.5276C23.2207 12.978 27.1578 8.94464 32.5838 8.94464C37.3084 8.94464 40.5296 11.7909 41.1882 16.5466C41.2487 16.9393 41.2751 17.3365 41.2669 17.7337C41.2669 19.0138 40.6155 19.636 39.2841 19.636H27.0433C27.1385 21.0815 27.7859 22.4351 28.8517 23.4174C29.9174 24.3996 31.3201 24.9353 32.7699 24.9138C33.6199 24.9213 34.4625 24.7558 35.2464 24.4276C36.0304 24.0993 36.7392 23.6151 37.3298 23.0044C37.4976 22.8232 37.6998 22.6774 37.9248 22.5755C38.1498 22.4735 38.3929 22.4175 38.6398 22.4108C38.85 22.4009 39.0599 22.4343 39.2565 22.5091C39.4532 22.5838 39.6323 22.6983 39.7827 22.8452C39.9332 22.9921 40.0517 23.1685 40.1309 23.3631C40.2102 23.5579 40.2484 23.7669 40.2432 23.9769C40.2222 24.484 40.01 24.9643 39.6491 25.3214C38.7555 26.2286 37.682 26.9391 36.4972 27.4071C35.3125 27.8751 34.0429 28.0904 32.7699 28.039C27.1148 28.039 23.2207 24.0771 23.2207 18.5276ZM37.5302 16.8183C37.4157 13.7933 35.5259 11.9196 32.5838 11.9196C31.2127 11.8926 29.8815 12.3811 28.854 13.2884C27.8264 14.1958 27.1777 15.4556 27.0361 16.8183H37.5302ZM76.6505 9.13784C76.2192 9.14477 75.8024 9.29461 75.4655 9.56385C75.1286 9.83308 74.8908 10.2065 74.7893 10.6253L69.6783 23.498L64.6101 10.6253C64.5027 10.203 64.2584 9.828 63.9152 9.55892C63.5721 9.28984 63.1494 9.14178 62.7132 9.13784C62.2284 9.12825 61.7595 9.31103 61.4093 9.64614C61.0591 9.98126 60.8562 10.4414 60.8449 10.9257C60.8476 11.2889 60.9282 11.6474 61.0811 11.9769L66.951 25.8293C67.6668 27.4956 68.7978 27.846 69.6424 27.846C70.4872 27.846 71.6325 27.4956 72.334 25.8293L78.2468 11.9054C78.3878 11.5823 78.4656 11.2351 78.4759 10.8828C78.4761 10.6468 78.4285 10.4133 78.3359 10.1963C78.2431 9.97934 78.1074 9.78336 77.9368 9.62026C77.7662 9.45716 77.5642 9.33031 77.3432 9.2474C77.122 9.16447 76.8864 9.12721 76.6505 9.13784ZM107.41 18.4489C107.41 12.9422 111.511 8.94464 117.152 8.94464C122.822 8.94464 126.938 12.9422 126.938 18.4489C126.954 19.7285 126.711 20.9982 126.222 22.1813C125.734 23.3643 125.011 24.4363 124.096 25.3324C123.181 26.2286 122.095 26.9305 120.902 27.3956C119.708 27.8608 118.433 28.0796 117.152 28.039C114.573 28.0811 112.08 27.1105 110.209 25.3358C109.303 24.4346 108.589 23.3602 108.108 22.177C107.627 20.9938 107.39 19.7258 107.41 18.4489ZM111.261 18.4346C111.261 21.6456 113.28 24.8709 117.152 24.8709C119.995 24.8709 123.037 22.8327 123.037 18.4489C123.037 14.065 119.988 12.0555 117.152 12.0555C114.318 12.0555 111.261 14.0507 111.261 18.4346Z" fill="white"/>
<path opacity="0.65" d="M16.8136 7.4474C13.8262 3.96295 4.15268 10.7185 4.22381 19.394C4.22381 19.6074 4.01042 19.8207 3.79703 19.8207C3.65477 19.8207 3.51252 19.7496 3.44139 19.6074C2.87235 18.3985 2.58784 17.0474 2.58784 15.6963C2.58784 14.7007 2.7301 13.7052 3.08574 12.7096C3.15687 12.5674 3.08574 12.354 2.87235 12.2829C2.7301 12.2118 2.58784 12.2829 2.44558 12.4252C-1.03974 16.194 -0.755234 22.1674 3.01461 25.6518C4.72171 27.2163 6.99784 28.0696 9.34508 28.0696C22.5039 27.7852 19.4454 10.5763 16.8136 7.4474Z" fill="white"/>
<path opacity="0.65" d="M216.758 13.1556C216.829 12.3733 216.473 11.5911 215.904 11.0933C215.193 10.5244 214.268 10.24 213.344 10.3111H210.143V15.9289H213.841C214.624 16 215.406 15.7156 215.975 15.1467C216.544 14.6489 216.829 13.9378 216.758 13.1556ZM200.256 10.1689C199.118 10.0978 198.051 10.5956 197.339 11.4489C196.557 12.5156 196.13 13.7956 196.201 15.0756V17.0667C196.201 17.9911 196.344 18.8444 196.699 19.6978C196.984 20.4089 197.482 20.9778 198.122 21.3333C198.762 21.76 199.473 21.9022 200.256 21.9022C201.323 21.9733 202.39 21.4756 203.101 20.6222C203.883 19.5556 204.31 18.2756 204.168 16.9956V15.0044C204.239 13.7244 203.812 12.4444 203.03 11.4489C202.461 10.5956 201.394 10.0978 200.256 10.1689ZM226.218 0H135.03C134.604 0 134.248 0.355556 134.248 0.782222V31.2178C134.248 31.6444 134.604 32 135.03 32H226.218C226.645 32 227 31.6444 227 31.2178V0.782222C227 0.355556 226.716 0 226.218 0ZM154.022 23.04C153.951 23.1822 153.737 23.2533 153.595 23.2533H153.026C152.813 23.2533 152.599 23.1111 152.528 22.8978L151.177 19.2711H145.344L143.993 22.8978C143.922 23.1111 143.708 23.2533 143.495 23.2533H142.926C142.712 23.2533 142.57 23.1822 142.499 23.04C142.428 22.8978 142.357 22.6844 142.428 22.5422L147.478 9.10222C147.549 8.88889 147.763 8.74667 147.976 8.74667H148.616C148.829 8.74667 149.043 8.88889 149.114 9.10222L154.164 22.5422C154.164 22.6844 154.164 22.8978 154.022 23.04ZM165.972 18.4178C166.043 19.7689 165.545 21.12 164.549 22.1156C162.415 23.8933 159.214 23.8933 157.08 22.1156C156.085 21.12 155.587 19.7689 155.658 18.4178V9.31556C155.658 9.03111 155.871 8.74667 156.227 8.74667H156.725C157.009 8.74667 157.294 8.96 157.294 9.31556V18.4178C157.223 19.3422 157.578 20.2667 158.29 20.9778C159.783 22.1867 161.988 22.1867 163.482 20.9778C164.122 20.2667 164.478 19.3422 164.407 18.4178V9.31556C164.407 9.03111 164.62 8.74667 164.976 8.74667H165.474C165.758 8.74667 166.043 8.96 166.043 9.31556L165.972 18.4178ZM179.202 9.81333C179.202 10.0978 178.988 10.3822 178.704 10.3822H174.294V22.7556C174.294 23.04 174.08 23.3244 173.725 23.3244H173.227C172.942 23.3244 172.658 23.1111 172.658 22.7556V10.3111H168.319C168.034 10.3111 167.75 10.0978 167.75 9.74222V9.24444C167.75 8.96 167.963 8.67556 168.319 8.67556H178.561C178.846 8.67556 179.13 8.88889 179.13 9.24444L179.202 9.81333ZM191.934 22.7556C191.934 23.04 191.72 23.3244 191.365 23.3244H190.867C190.582 23.3244 190.298 23.1111 190.298 22.7556V16.64H182.829V22.7556C182.829 23.04 182.616 23.3244 182.26 23.3244H181.762C181.478 23.3244 181.193 23.1111 181.193 22.7556V9.31556C181.193 9.03111 181.407 8.74667 181.762 8.74667H182.26C182.545 8.74667 182.829 9.03111 182.829 9.31556V15.0044H190.298V9.31556C190.298 9.03111 190.511 8.74667 190.867 8.74667H191.365C191.649 8.74667 191.934 9.03111 191.934 9.31556V22.7556ZM205.875 17.0667C205.875 18.2044 205.662 19.3422 205.164 20.4089C204.737 21.3333 204.026 22.1867 203.172 22.6844C202.319 23.1822 201.252 23.4667 200.256 23.4667C198.691 23.5378 197.197 22.8267 196.13 21.6889C195.063 20.3378 194.494 18.7022 194.565 16.9956V15.0756C194.565 13.9378 194.779 12.8 195.277 11.7333C195.704 10.8089 196.415 9.95556 197.268 9.38667C199.118 8.32 201.394 8.32 203.172 9.38667C204.026 9.95556 204.737 10.7378 205.164 11.7333C205.662 12.8 205.875 13.9378 205.875 15.0756V17.0667ZM218.963 22.7556C218.963 23.04 218.749 23.3244 218.394 23.3244H217.896C217.682 23.3244 217.54 23.2533 217.469 23.04L214.055 17.5644H210.214V22.7556C210.214 23.04 210 23.3244 209.645 23.3244H209.147C208.862 23.3244 208.578 23.1111 208.578 22.7556V9.31556C208.578 9.03111 208.791 8.74667 209.147 8.74667H213.415C214.695 8.67556 215.975 9.10222 216.971 9.95556C217.896 10.7378 218.465 11.9467 218.394 13.2267C218.394 14.2222 218.038 15.2178 217.398 16C216.971 16.5689 216.331 16.9956 215.62 17.28L218.82 22.4C218.892 22.4711 218.892 22.6133 218.892 22.6844L218.963 22.7556ZM145.913 17.7067H150.537L148.26 11.52L145.913 17.7067Z" fill="white"/>
</g>
</svg>
