<svg viewBox="0 0 159 33" fill="none" xmlns="http://www.w3.org/2000/svg">
<g>
<path fill-rule="evenodd" clip-rule="evenodd" d="M72.4403 23.886C72.4403 25.2095 73.3964 25.4271 73.8633 25.4271C74.2948 25.4271 75.2687 25.2095 75.2687 23.886V3.20741C75.2687 1.84835 74.2592 1.59961 73.7966 1.59961C73.3341 1.59961 72.3423 1.84835 72.3423 3.20741V12.7428H72.28C71.6806 11.9254 70.8937 11.2634 69.9853 10.8121C69.0767 10.3609 68.0735 10.1335 67.0589 10.1491C62.6693 10.1491 59.7029 13.5511 59.7029 17.837C59.7029 22.1228 62.5805 25.5826 67.0945 25.5826C68.1319 25.6028 69.1579 25.3649 70.0802 24.8905C71.0027 24.416 71.7923 23.7197 72.3779 22.8644H72.4403V23.886ZM72.5336 17.868C72.5336 20.6749 70.5545 23.1443 67.5881 23.1443C64.4037 23.1443 62.736 20.5683 62.736 17.8192C62.736 15.0701 64.4037 12.5385 67.5881 12.5385C70.5545 12.5385 72.5336 15.0612 72.5336 17.868ZM56.6476 7.10687C56.1481 7.11284 55.6664 6.92157 55.3075 6.5747C54.9485 6.22794 54.7411 5.75356 54.7307 5.25489C54.7546 4.75904 54.9685 4.29149 55.3283 3.94896C55.6882 3.60654 56.1661 3.41548 56.6632 3.41548C57.16 3.41548 57.638 3.60654 57.9978 3.94896C58.3577 4.29149 58.5716 4.75904 58.5954 5.25489C58.5898 5.50428 58.5346 5.7502 58.4337 5.97833C58.3325 6.20647 58.1874 6.41249 58.0063 6.58457C57.8254 6.75664 57.6122 6.89131 57.3792 6.98098C57.1459 7.07055 56.8973 7.11338 56.6476 7.10687ZM58.1018 23.8061C58.1018 25.1384 57.1411 25.4094 56.6476 25.4094C56.154 25.4094 55.1976 25.1607 55.1976 23.8061V11.9079C55.1976 10.5755 56.154 10.3046 56.6476 10.3046C57.1411 10.3046 58.1018 10.5533 58.1018 11.9079V23.8061ZM46.1118 25.4272C45.4314 25.4272 44.533 25.1474 43.9771 23.8239L39.1873 12.5252C39.0698 12.2639 39.0077 11.9811 39.0049 11.6948C39.0084 11.5083 39.0485 11.3244 39.1235 11.1535C39.1612 11.0672 39.2075 10.9851 39.2613 10.9083C39.3139 10.8331 39.374 10.7629 39.4407 10.699C39.4789 10.6624 39.5191 10.6281 39.5608 10.5961L39.6023 10.5657C39.6223 10.5515 39.6427 10.5378 39.6635 10.5246C39.6965 10.5035 39.7306 10.4839 39.7656 10.4657C39.8118 10.4416 39.8596 10.4199 39.9085 10.4009C39.9673 10.378 40.0275 10.359 40.0887 10.3443C40.1211 10.3365 40.1536 10.3297 40.1864 10.3242C40.2288 10.317 40.2713 10.3118 40.3141 10.3085C40.3608 10.3049 40.4077 10.3036 40.4546 10.3046C40.8994 10.3046 41.5354 10.4601 41.9402 11.4771L46.1118 22.0341H46.1741L50.3635 11.4771C50.7326 10.4912 51.3507 10.3046 51.8132 10.3046L51.8595 10.3034L51.8868 10.3035L51.937 10.3049L51.9639 10.3065L52.015 10.311C52.0849 10.3183 52.1541 10.3311 52.2223 10.3493C52.2664 10.361 52.3098 10.3748 52.3526 10.391C52.4536 10.4289 52.5494 10.4786 52.6382 10.5388L52.6686 10.5601C52.6864 10.5728 52.7038 10.586 52.7207 10.5995L52.7528 10.6257L52.7728 10.6431L52.8147 10.6814C52.9476 10.8083 53.0536 10.9608 53.1259 11.1295C53.1985 11.2983 53.236 11.48 53.2365 11.6636C53.2276 11.9398 53.1641 12.2115 53.0497 12.4631L48.2421 23.8239C47.6951 25.1474 46.8056 25.4272 46.1118 25.4272ZM79.8583 18.7297C79.918 19.9423 80.4483 21.084 81.3365 21.9131C82.2249 22.742 83.4015 23.1932 84.6169 23.171C85.319 23.1757 86.0145 23.0385 86.6618 22.7675C87.3094 22.4965 87.8951 22.0974 88.3839 21.5943C88.4629 21.5113 88.5515 21.4384 88.6475 21.3768C88.6855 21.3524 88.7246 21.3298 88.7648 21.3091L88.7791 21.3019L88.8184 21.2829L88.8501 21.2687C89.0258 21.1923 89.2152 21.1521 89.4067 21.1502C89.5687 21.1415 89.7307 21.1664 89.8827 21.2235C90.0345 21.2805 90.1728 21.3683 90.289 21.4814C90.4052 21.5945 90.4966 21.7304 90.5576 21.8806C90.5798 21.9354 90.5978 21.9917 90.6115 22.0489C90.6254 22.1072 90.6347 22.1665 90.6397 22.2262C90.6432 22.2685 90.6443 22.3111 90.6432 22.3537C90.6317 22.7465 90.4729 23.1204 90.1985 23.4019C89.4714 24.136 88.5982 24.7095 87.6351 25.0851C86.6721 25.4608 85.6408 25.6303 84.608 25.5826C80.1606 25.5826 76.8785 22.4737 76.8785 17.8991C76.8785 13.3246 80.1563 10.1491 84.439 10.1491C88.117 10.1491 90.8343 12.2809 91.3902 16.2914C91.4156 16.4582 91.4332 16.6259 91.4434 16.7941C91.4478 16.8662 91.4508 16.9384 91.4525 17.0108C91.4543 17.0907 91.4543 17.1707 91.4525 17.2507C91.4525 18.2678 90.9277 18.7297 89.9092 18.7297H79.8583ZM88.5707 16.5712C88.5083 14.2573 87.1474 12.4363 84.4612 12.4363C83.312 12.4141 82.1971 12.8287 81.3426 13.5965C80.4879 14.3642 79.9574 15.4276 79.8583 16.5712H88.5707ZM92.7379 17.837C92.7379 22.3404 96.1357 25.5826 100.619 25.5826C105.106 25.5826 108.535 22.3493 108.535 17.837C108.535 13.3246 105.097 10.1491 100.619 10.1491C96.1401 10.1491 92.7379 13.3335 92.7379 17.837ZM95.7266 17.837C95.7266 15.0567 97.5056 12.5562 100.619 12.5562C103.776 12.5562 105.511 15.039 105.511 17.837C105.511 20.635 103.732 23.1665 100.619 23.1665C97.5056 23.1665 95.7266 20.6172 95.7266 17.837ZM120.307 17.0952C120.307 14.7192 119.689 12.6185 117.003 12.6185C114.712 12.6185 113.044 14.5327 113.044 17.4328V23.8238C113.044 25.1562 112.088 25.4271 111.595 25.4271C111.101 25.4271 110.14 25.1784 110.14 23.8238V3.20741C110.14 1.84835 111.097 1.59961 111.595 1.59961C112.093 1.59961 113.044 1.84835 113.044 3.20741V12.7739H113.107C113.787 11.3215 115.642 10.1491 117.741 10.1491C121.512 10.1491 123.211 12.8139 123.211 16.1048V23.8238C123.211 25.1562 122.255 25.4271 121.761 25.4271C121.268 25.4271 120.307 25.1784 120.307 23.8238V17.0952ZM125.733 6.56049C126.083 6.91029 126.558 7.10676 127.054 7.10676C127.205 7.11067 127.357 7.09646 127.504 7.06458C127.545 7.05558 127.587 7.04518 127.628 7.03336C127.681 7.01818 127.733 7.00061 127.785 6.98077C128.018 6.8911 128.23 6.75632 128.411 6.58424C128.592 6.41216 128.736 6.20604 128.837 5.9779C128.938 5.74976 128.992 5.50406 128.997 5.25478C128.996 5.14407 128.985 5.03391 128.965 4.92559C128.951 4.85283 128.933 4.78083 128.911 4.71003C128.891 4.64725 128.868 4.58544 128.842 4.52483C128.743 4.2942 128.598 4.08547 128.418 3.91079C128.237 3.736 128.023 3.59884 127.789 3.50711C127.67 3.46016 127.546 3.42557 127.42 3.40367C127.299 3.38285 127.177 3.37352 127.054 3.37612C126.558 3.37612 126.083 3.5726 125.733 3.9225C125.383 4.2723 125.186 4.74679 125.186 5.24144C125.186 5.73621 125.383 6.21059 125.733 6.56049ZM127.054 25.4093C127.547 25.4093 128.504 25.1384 128.504 23.8061V11.9078C128.504 10.5532 127.547 10.3046 127.054 10.3046C126.56 10.3046 125.6 10.5754 125.6 11.9078V23.8061C125.6 25.1607 126.56 25.4093 127.054 25.4093ZM137.532 25.4271C136.851 25.4271 135.957 25.1473 135.402 23.8238L130.616 12.5252C130.555 12.3932 130.509 12.2553 130.477 12.1141C130.447 11.9767 130.431 11.8362 130.429 11.6946C130.433 11.5083 130.473 11.3243 130.548 11.1535C130.623 10.9826 130.731 10.8281 130.865 10.6989C131 10.5698 131.159 10.4685 131.333 10.4009C131.507 10.3331 131.693 10.3005 131.879 10.3046C132.324 10.3046 132.964 10.46 133.365 11.477L137.532 22.034H137.594L141.797 11.477C142.166 10.4911 142.784 10.3046 143.251 10.3046C143.434 10.2974 143.617 10.3272 143.789 10.3922C143.961 10.4572 144.117 10.5561 144.25 10.683C144.382 10.8099 144.488 10.9621 144.56 11.1306C144.582 11.1838 144.602 11.2384 144.618 11.2938C144.652 11.4138 144.67 11.5382 144.67 11.6635C144.666 11.7837 144.652 11.9031 144.628 12.0204C144.597 12.1722 144.55 12.3206 144.487 12.463L139.671 23.8238C139.115 25.1473 138.217 25.4271 137.532 25.4271ZM148.844 21.9118C147.956 21.0831 147.426 19.9419 147.365 18.7297L157.447 18.743C158.466 18.743 158.995 18.2811 158.995 17.264C159.001 16.9431 158.981 16.6221 158.933 16.3048C158.377 12.2943 155.655 10.1624 151.977 10.1624C147.69 10.1624 144.416 13.3379 144.416 17.9125C144.416 22.487 147.694 25.5959 152.142 25.5959C153.171 25.637 154.197 25.4631 155.155 25.0853C156.113 24.7075 156.982 24.1342 157.705 23.4019C157.978 23.1198 158.137 22.7461 158.15 22.3537C158.154 22.1919 158.125 22.0307 158.064 21.8806C158.003 21.7304 157.912 21.5945 157.796 21.4814C157.68 21.3683 157.541 21.2805 157.389 21.2235C157.238 21.1664 157.076 21.1415 156.914 21.1502C156.801 21.1511 156.69 21.1655 156.582 21.1925C156.506 21.2115 156.431 21.2369 156.359 21.2685C156.184 21.3448 156.026 21.4556 155.895 21.5943C155.405 22.0972 154.819 22.496 154.17 22.767C153.522 23.0379 152.826 23.1753 152.124 23.171C150.908 23.1921 149.733 22.7405 148.844 21.9118ZM151.968 12.4364C154.659 12.4364 156.015 14.2573 156.077 16.5712H147.365C147.464 15.4276 147.995 14.3642 148.849 13.5965C149.704 12.8287 150.819 12.4141 151.968 12.4364Z" fill="black"/>
<path d="M31.8805 2.27466H8.26496C7.20633 2.27466 6.34814 3.13167 6.34814 4.18885V27.7721C6.34814 28.8293 7.20633 29.6863 8.26496 29.6863H31.8805C32.9391 29.6863 33.7973 28.8293 33.7973 27.7721V4.18885C33.7973 3.13167 32.9391 2.27466 31.8805 2.27466Z" fill="url(#paint0_radial)" stroke="black"/>
<path d="M14.7398 29.3354L9.73654 26.5152C9.60046 26.3802 9.49247 26.2197 9.41877 26.0429C9.34507 25.866 9.30713 25.6764 9.30713 25.4848C9.30713 25.2933 9.34507 25.1037 9.41877 24.9268C9.49247 24.75 9.60046 24.5894 9.73654 24.4545V24.4545C10.0051 24.1832 10.3698 24.0283 10.7517 24.0233C11.1337 24.0183 11.5023 24.1636 11.7779 24.4278L14.7398 29.3354Z" fill="black"/>
<path d="M3.37687 18.1212C3.73629 17.7613 4.16329 17.4758 4.63339 17.2809C5.10349 17.0861 5.60747 16.9858 6.11645 16.9858C6.62542 16.9858 7.1294 17.0861 7.5995 17.2809C8.06961 17.4758 8.4966 17.7613 8.85603 18.1212L11.5956 20.8748C11.956 21.2337 12.2419 21.6601 12.437 22.1296C12.6321 22.5991 12.7325 23.1023 12.7325 23.6106C12.7325 24.1189 12.6321 24.6222 12.437 25.0917C12.2419 25.5611 11.956 25.9875 11.5956 26.3465V26.3465C10.8685 27.0711 9.88326 27.4781 8.85603 27.4781C7.82879 27.4781 6.84352 27.0711 6.11645 26.3465L3.37687 23.5929C2.65121 22.8668 2.24365 21.8829 2.24365 20.857C2.24365 19.8312 2.65121 18.8473 3.37687 18.1212V18.1212Z" fill="url(#paint1_linear)"/>
<path d="M3.79992 18.5386C4.41532 17.9249 5.24949 17.5801 6.11922 17.5801C6.98895 17.5801 7.82313 17.9249 8.43852 18.5386L11.1781 21.2744C11.7568 21.8959 12.0715 22.7174 12.0561 23.5659C12.0406 24.4144 11.6962 25.2239 11.0953 25.824C10.4944 26.4241 9.68379 26.768 8.8341 26.7835C7.98442 26.7989 7.16186 26.4846 6.5395 25.9067L3.79992 23.1709C3.49401 22.8675 3.25122 22.5066 3.08555 22.1091C2.91987 21.7116 2.83458 21.2853 2.83458 20.8547C2.83458 20.4242 2.91987 19.9979 3.08555 19.6004C3.25122 19.2029 3.49401 18.842 3.79992 18.5386V18.5386ZM2.95937 17.6992C2.54185 18.1121 2.21043 18.6036 1.98424 19.1453C1.75806 19.6869 1.6416 20.2679 1.6416 20.8547C1.6416 21.4416 1.75806 22.0226 1.98424 22.5642C2.21043 23.1058 2.54185 23.5973 2.95937 24.0103L5.69895 26.7461C6.53758 27.583 7.67478 28.0529 8.86037 28.0525C10.046 28.0521 11.1828 27.5814 12.0209 26.7439C12.8589 25.9064 13.3295 24.7707 13.3291 23.5868C13.3287 22.4028 12.8573 21.2675 12.0187 20.4306L9.27908 17.6948C8.44034 16.8592 7.30396 16.3899 6.11922 16.3899C4.93448 16.3899 3.79811 16.8592 2.95937 17.6948V17.6992Z" fill="black"/>
<path d="M11.3652 20.8508L6.11523 26.0972L7.25718 27.2368L12.5071 21.9904L11.3652 20.8508Z" fill="black"/>
<path d="M9.46751 18.9582L4.21484 24.2019L5.35619 25.3421L10.6089 20.0984L9.46751 18.9582Z" fill="black"/>
<path d="M7.56572 17.0579L2.31396 22.3025L3.45551 23.4425L8.70727 18.1979L7.56572 17.0579Z" fill="black"/>
<g opacity="0.5">
<path opacity="0.5" d="M13.2847 23.0956C10.5096 23.9527 7.84562 23.3087 7.33417 21.6566C6.82273 20.0044 8.66838 17.9792 11.4435 17.122C14.2187 16.2649 16.8827 16.9133 17.3941 18.561C17.9056 20.2087 16.0644 22.2339 13.2847 23.0956Z" fill="white"/>
<path opacity="0.5" d="M13.183 22.7446C11.5063 23.2598 9.78073 23.2199 8.67779 22.638C8.44134 22.5395 8.22948 22.3902 8.05723 22.2007C7.88497 22.0113 7.75653 21.7864 7.681 21.5419C7.60547 21.2974 7.58469 21.0393 7.62015 20.7858C7.6556 20.5324 7.74641 20.2899 7.88615 20.0754C8.46876 18.9784 9.87413 17.9747 11.5508 17.4595C14.0902 16.6778 16.6074 17.2286 17.0477 18.6586C17.1127 18.9043 17.1281 19.1604 17.093 19.412C17.0579 19.6636 16.9729 19.9058 16.8432 20.1243C16.2605 21.2257 14.8596 22.2294 13.183 22.7446ZM17.7415 18.4455C17.1634 16.5801 14.3482 15.8429 11.3373 16.7711C9.45608 17.3485 7.92618 18.4588 7.25018 19.7379C7.06257 20.0367 6.94161 20.3724 6.89553 20.7221C6.84945 21.0718 6.87933 21.4273 6.98314 21.7644C7.08695 22.1015 7.26225 22.4123 7.49712 22.6758C7.73198 22.9392 8.02091 23.149 8.34423 23.2909C9.62508 23.9704 11.5108 24.0282 13.392 23.4508C15.2732 22.8734 16.8031 21.7631 17.4791 20.4796C17.6569 20.1753 17.7717 19.8385 17.8167 19.4891C17.8618 19.1397 17.8362 18.7848 17.7415 18.4455V18.4455Z" fill="#231F20"/>
</g>
<path d="M13.183 22.7446C11.5063 23.2598 9.78073 23.2199 8.67779 22.638C8.44134 22.5395 8.22948 22.3902 8.05723 22.2007C7.88497 22.0113 7.75653 21.7864 7.681 21.5419C7.60547 21.2974 7.58469 21.0393 7.62015 20.7858C7.6556 20.5324 7.74641 20.2899 7.88615 20.0754C8.46876 18.9784 9.87413 17.9747 11.5508 17.4595C14.0902 16.6778 16.6074 17.2286 17.0477 18.6586C17.1127 18.9043 17.1281 19.1604 17.093 19.412C17.0579 19.6636 16.9729 19.9058 16.8432 20.1243C16.2605 21.2257 14.8596 22.2294 13.183 22.7446ZM17.7415 18.4455C17.1634 16.5801 14.3482 15.8429 11.3373 16.7711C9.45608 17.3485 7.92618 18.4588 7.25018 19.7379C7.06257 20.0367 6.94161 20.3724 6.89553 20.7221C6.84945 21.0718 6.87933 21.4273 6.98314 21.7644C7.08695 22.1015 7.26225 22.4123 7.49712 22.6758C7.73198 22.9392 8.02091 23.149 8.34423 23.2909C9.62508 23.9704 11.5108 24.0282 13.392 23.4508C15.2732 22.8734 16.8031 21.7631 17.4791 20.4796C17.6569 20.1753 17.7717 19.8385 17.8167 19.4891C17.8618 19.1397 17.8362 18.7848 17.7415 18.4455V18.4455Z" fill="black"/>
<path d="M7.49978 27.9808C6.70815 29.5442 5.48068 30.7566 4.30212 31.1475C4.06326 31.2376 3.80871 31.2789 3.55355 31.269C3.2984 31.2591 3.04783 31.1981 2.8167 31.0897C2.37787 30.8345 2.05807 30.4161 1.92723 29.9261C1.53586 28.7447 1.78491 27.0393 2.57655 25.4848C3.77289 23.1176 5.91652 21.6831 7.25517 22.3759C7.47361 22.5015 7.66504 22.6689 7.81845 22.8686C7.97186 23.0683 8.08423 23.2963 8.1491 23.5395C8.55825 24.7165 8.28696 26.4219 7.49978 27.9808ZM7.5576 21.723C5.80978 20.8348 3.32815 22.3537 1.90944 25.165C1.01997 26.9238 0.76202 28.7936 1.21565 30.1704C1.31211 30.5056 1.47473 30.8181 1.69393 31.0897C1.91313 31.3612 2.18449 31.5862 2.49205 31.7515C2.808 31.9004 3.15063 31.9846 3.49972 31.9991C3.8488 32.0136 4.19725 31.9581 4.52449 31.8359C5.90318 31.3917 7.25517 30.0593 8.14465 28.3095C9.03412 26.5596 9.28762 24.6854 8.83399 23.3086C8.73753 22.9734 8.57491 22.6608 8.35571 22.3893C8.13651 22.1178 7.86515 21.8927 7.5576 21.7275V21.723Z" fill="black"/>
<path d="M18.5513 14.9056L21.62 9.47839C21.9133 9.18402 22.3105 9.01633 22.7263 9.01134C23.1422 9.00636 23.5433 9.16449 23.8436 9.45174V9.45174C24.1384 9.74466 24.3063 10.1414 24.3113 10.5566C24.3163 10.9719 24.158 11.3725 23.8703 11.6724L18.5513 14.9056Z" fill="black"/>
<path d="M30.7506 2.58113C31.142 2.97099 31.4524 3.4341 31.6642 3.94395C31.8761 4.4538 31.9851 5.00037 31.9851 5.55236C31.9851 6.10435 31.8761 6.65091 31.6642 7.16076C31.4524 7.67061 31.142 8.13372 30.7506 8.52358L27.7754 11.4948C27.385 11.8856 26.9212 12.1956 26.4107 12.4071C25.9001 12.6187 25.3528 12.7276 24.8001 12.7276C24.2473 12.7276 23.7 12.6187 23.1895 12.4071C22.6789 12.1956 22.2152 11.8856 21.8248 11.4948V11.4948C21.4335 11.1049 21.123 10.6418 20.9112 10.132C20.6994 9.62214 20.5903 9.07557 20.5903 8.52358C20.5903 7.97159 20.6994 7.42502 20.9112 6.91517C21.123 6.40533 21.4335 5.94221 21.8248 5.55236L24.8001 2.58113C25.5897 1.79409 26.6597 1.35205 27.7754 1.35205C28.891 1.35205 29.961 1.79409 30.7506 2.58113Z" fill="url(#paint2_linear)"/>
<path d="M30.2967 3.03864C30.6282 3.36871 30.8911 3.76084 31.0706 4.19258C31.25 4.62432 31.3424 5.08718 31.3424 5.55463C31.3424 6.02209 31.25 6.48494 31.0706 6.91669C30.8911 7.34843 30.6282 7.74056 30.2967 8.07062L27.3214 11.0418C26.6532 11.7097 25.7467 12.0852 24.8013 12.0856C23.8559 12.086 22.9491 11.7113 22.2803 11.0441C21.6115 10.3768 21.2356 9.47152 21.2352 8.52743C21.2347 7.58333 21.6099 6.67774 22.2781 6.00987L25.2578 3.03864C25.5883 2.70763 25.981 2.445 26.4133 2.2658C26.8457 2.0866 27.3092 1.99436 27.7773 1.99436C28.2453 1.99436 28.7088 2.0866 29.1412 2.2658C29.5735 2.445 29.9662 2.70763 30.2967 3.03864V3.03864ZM31.2084 2.15039C30.7578 1.69972 30.2226 1.34219 29.6334 1.09825C29.0443 0.854319 28.4128 0.72876 27.775 0.72876C27.1373 0.72876 26.5058 0.854319 25.9166 1.09825C25.3275 1.34219 24.7923 1.69972 24.3417 2.15039L21.3664 5.0994C20.9158 5.54966 20.5584 6.08414 20.3147 6.67232C20.0709 7.2605 19.9456 7.89087 19.9458 8.52743C19.946 9.16398 20.0718 9.79427 20.3159 10.3823C20.56 10.9703 20.9177 11.5046 21.3686 11.9545C21.8195 12.4045 22.3547 12.7614 22.9437 13.0048C23.5327 13.2482 24.1639 13.3734 24.8013 13.3732C25.4387 13.373 26.0699 13.2474 26.6587 13.0036C27.2475 12.7598 27.7825 12.4026 28.2331 11.9523L31.2084 8.98109C31.6595 8.53144 32.0175 7.99735 32.2617 7.40939C32.5059 6.82144 32.6316 6.19116 32.6316 5.55463C32.6316 4.91811 32.5059 4.28783 32.2617 3.69988C32.0175 3.11192 31.6595 2.57783 31.2084 2.12818V2.15039Z" fill="black"/>
<path d="M22.0762 5.55126L20.8374 6.78882L26.543 12.4846L27.7818 11.2471L22.0762 5.55126Z" fill="black"/>
<path d="M24.1372 3.48919L22.8979 4.72632L28.6016 10.4241L29.8408 9.18699L24.1372 3.48919Z" fill="black"/>
<path d="M26.1988 1.42479L24.96 2.66235L30.6656 8.35816L31.9044 7.1206L26.1988 1.42479Z" fill="black"/>
<g opacity="0.5">
<path opacity="0.5" d="M25.3465 13.3247C24.417 10.3135 25.1197 7.42219 26.912 6.87147C28.7043 6.32075 30.9146 8.31489 31.8441 11.3128C32.7736 14.3106 32.0754 17.233 30.2787 17.7659C28.4819 18.2989 26.276 16.3447 25.3465 13.3247Z" fill="white"/>
<path opacity="0.5" d="M25.7205 13.2136C25.1601 11.3971 25.2046 9.52734 25.8361 8.32819C25.9429 8.0712 26.1051 7.8409 26.3113 7.65369C26.5174 7.46648 26.7623 7.32698 27.0286 7.24512C27.2949 7.16326 27.576 7.14107 27.8519 7.18011C28.1277 7.21916 28.3916 7.31849 28.6246 7.47102C29.8165 8.10169 30.9105 9.62505 31.4709 11.4415C32.3204 14.1951 31.72 16.9265 30.1634 17.4062C29.8966 17.4777 29.6182 17.4949 29.3447 17.4567C29.0712 17.4186 28.8081 17.3259 28.5712 17.1841C27.3749 16.5579 26.2853 15.0345 25.7205 13.2136ZM30.3946 18.1612C32.4271 17.535 33.2276 14.4838 32.2181 11.215C31.591 9.17648 30.3813 7.51988 28.9893 6.77374C28.665 6.57284 28.3014 6.44371 27.923 6.39508C27.5445 6.34645 27.16 6.37944 26.7954 6.49183C26.4308 6.60422 26.0946 6.79339 25.8094 7.04659C25.5242 7.29978 25.2967 7.61111 25.1423 7.95957C24.4085 9.34969 24.3418 11.3971 24.9733 13.4357C25.6048 15.4742 26.8101 17.1353 28.2021 17.877C28.5304 18.0673 28.8933 18.1904 29.2698 18.2393C29.6462 18.2881 30.0286 18.2615 30.3946 18.1612Z" fill="#231F20"/>
</g>
<path d="M25.7205 13.2136C25.1601 11.3971 25.2046 9.52734 25.8361 8.32819C25.9429 8.0712 26.1051 7.8409 26.3113 7.65369C26.5174 7.46648 26.7623 7.32698 27.0286 7.24512C27.2949 7.16326 27.576 7.14107 27.8519 7.18011C28.1277 7.21916 28.3916 7.31849 28.6246 7.47102C29.8165 8.10169 30.9105 9.62505 31.4709 11.4415C32.3204 14.1951 31.72 16.9265 30.1634 17.4062C29.8966 17.4777 29.6182 17.4949 29.3447 17.4567C29.0712 17.4186 28.8081 17.3259 28.5712 17.1841C27.3749 16.5579 26.2853 15.0345 25.7205 13.2136ZM30.3946 18.1612C32.4271 17.535 33.2276 14.4838 32.2181 11.215C31.591 9.17648 30.3813 7.51988 28.9893 6.77374C28.665 6.57284 28.3014 6.44371 27.923 6.39508C27.5445 6.34645 27.16 6.37944 26.7954 6.49183C26.4308 6.60422 26.0946 6.79339 25.8094 7.04659C25.5242 7.29978 25.2967 7.61111 25.1423 7.95957C24.4085 9.34969 24.3418 11.3971 24.9733 13.4357C25.6048 15.4742 26.8101 17.1353 28.2021 17.877C28.5304 18.0673 28.8933 18.1904 29.2698 18.2393C29.6462 18.2881 30.0286 18.2615 30.3946 18.1612Z" fill="black"/>
<path d="M20.0188 7.05354C18.3421 6.19193 17.0079 4.88619 16.5632 3.58489C16.3636 3.06282 16.3796 2.48301 16.6077 1.97271C16.7462 1.73053 16.9316 1.51826 17.153 1.34824C17.3744 1.17822 17.6274 1.05383 17.8974 0.982298C19.1827 0.560375 21.0106 0.831294 22.7361 1.68846C25.3112 2.98532 26.8677 5.31255 26.1339 6.76485C25.9993 7.00585 25.8178 7.21758 25.6001 7.38765C25.3825 7.55771 25.1331 7.68269 24.8664 7.75526C23.5767 8.17718 21.7221 7.91071 20.0188 7.05354ZM26.8277 7.10683C27.7883 5.21485 26.1428 2.51898 23.083 0.982298C21.1751 0.0274206 19.1427 -0.252381 17.6484 0.240602C17.283 0.344216 16.9421 0.519804 16.6457 0.757021C16.3494 0.994238 16.1036 1.28829 15.9228 1.62184C15.7589 1.9669 15.6665 2.34148 15.6512 2.72309C15.6359 3.1047 15.698 3.48546 15.8338 3.84249C16.3275 5.33032 17.7595 6.78706 19.6764 7.75082C21.5932 8.71458 23.6167 8.99438 25.1155 8.5014C25.4797 8.39488 25.8188 8.21661 26.1129 7.9771C26.4069 7.73758 26.65 7.44167 26.8277 7.10683V7.10683Z" fill="black"/>
<g opacity="0.4">
<path opacity="0.4" d="M7.8194 28.1496C6.51187 30.7389 4.19924 32.209 2.65601 31.4318C1.11277 30.6545 0.921532 27.9231 2.21127 25.3339C3.501 22.7446 5.83587 21.2701 7.37911 22.0473C8.92234 22.8245 9.13137 25.5559 7.8194 28.1496Z" fill="white"/>
<path opacity="0.4" d="M7.49978 27.9808C6.70815 29.5442 5.48068 30.7566 4.30212 31.1475C4.06326 31.2376 3.80871 31.2789 3.55355 31.269C3.2984 31.2591 3.04783 31.1981 2.8167 31.0897C2.37787 30.8345 2.05807 30.4161 1.92723 29.9261C1.53586 28.7447 1.78491 27.0393 2.57655 25.4848C3.77289 23.1176 5.91652 21.6831 7.25517 22.3759C7.47361 22.5015 7.66504 22.6689 7.81845 22.8686C7.97186 23.0683 8.08423 23.2963 8.1491 23.5395C8.55825 24.7165 8.28696 26.4219 7.49978 27.9808ZM7.5576 21.723C5.80978 20.8348 3.32815 22.3537 1.90944 25.165C1.01997 26.9238 0.76202 28.7936 1.21565 30.1704C1.31211 30.5056 1.47473 30.8181 1.69393 31.0897C1.91313 31.3612 2.18449 31.5862 2.49205 31.7515C2.808 31.9004 3.15063 31.9846 3.49972 31.9991C3.8488 32.0136 4.19725 31.9581 4.52449 31.8359C5.90318 31.3917 7.25517 30.0593 8.14465 28.3095C9.03412 26.5596 9.28762 24.6854 8.83399 23.3086C8.73753 22.9734 8.57491 22.6608 8.35571 22.3893C8.13651 22.1178 7.86515 21.8927 7.5576 21.7275V21.723Z" fill="#231F20"/>
</g>
<g opacity="0.4">
<path opacity="0.4" d="M19.8449 7.40004C17.0253 5.97883 15.4242 3.47394 16.287 1.79958C17.1498 0.125213 20.0895 -0.0790864 22.9047 1.33324C25.7199 2.74557 27.3254 5.26378 26.4626 6.93815C25.5998 8.61252 22.6601 8.82126 19.8449 7.40004Z" fill="white"/>
<path opacity="0.4" d="M20.0188 7.05354C18.3421 6.19193 17.0079 4.88619 16.5632 3.58489C16.3636 3.06282 16.3796 2.48301 16.6077 1.97271C16.7462 1.73053 16.9316 1.51826 17.153 1.34824C17.3744 1.17822 17.6274 1.05383 17.8974 0.982298C19.1827 0.560375 21.0106 0.831294 22.7361 1.68846C25.3112 2.98532 26.8677 5.31255 26.1339 6.76485C25.9993 7.00585 25.8178 7.21758 25.6001 7.38765C25.3825 7.55771 25.1331 7.68269 24.8664 7.75526C23.5767 8.17718 21.7221 7.91071 20.0188 7.05354ZM26.8277 7.10683C27.7883 5.21485 26.1428 2.51898 23.083 0.982298C21.1751 0.0274206 19.1427 -0.252381 17.6484 0.240602C17.283 0.344216 16.9421 0.519804 16.6457 0.757021C16.3494 0.994238 16.1036 1.28829 15.9228 1.62184C15.7589 1.9669 15.6665 2.34148 15.6512 2.72309C15.6359 3.1047 15.698 3.48546 15.8338 3.84249C16.3275 5.33032 17.7595 6.78706 19.6764 7.75082C21.5932 8.71458 23.6167 8.99438 25.1155 8.5014C25.4797 8.39488 25.8188 8.21661 26.1129 7.9771C26.4069 7.73758 26.65 7.44167 26.8277 7.10683V7.10683Z" fill="#231F20"/>
</g>
<defs>
<radialGradient id="paint0_radial" cx="0" cy="0" r="1" gradientUnits="userSpaceOnUse" gradientTransform="translate(15.6076 12.6806) scale(21.0716 21.0428)">
<stop stop-color="#373638"/>
<stop offset="1"/>
</radialGradient>
<linearGradient id="paint1_linear" x1="11.5957" y1="26.3479" x2="3.3865" y2="18.1275" gradientUnits="userSpaceOnUse">
<stop stop-color="#FBED1F"/>
<stop offset="0.65" stop-color="#F8B020"/>
<stop offset="1" stop-color="#F79420"/>
</linearGradient>
<linearGradient id="paint2_linear" x1="-22887" y1="-10897.7" x2="-22658.6" y2="-11126.5" gradientUnits="userSpaceOnUse">
<stop stop-color="#FBED1F"/>
<stop offset="0.65" stop-color="#F8B020"/>
<stop offset="1" stop-color="#F79420"/>
</linearGradient>
</defs>
</g>
</svg>
