<svg viewBox="0 0 102 32" fill="none" xmlns="http://www.w3.org/2000/svg">
<path d="M26.496 9.41254C26.0116 8.57427 25.2882 7.89819 24.4174 7.47009C23.358 6.94019 22.1829 6.68109 20.9979 6.71611C19.9281 6.70061 18.8698 6.93672 17.9089 7.40525C16.948 7.87378 16.1116 8.5615 15.4678 9.41254C14.3771 7.60427 12.5487 6.71611 9.99535 6.71611C7.97446 6.71611 6.40267 7.38702 5.22222 8.73523V7.16977H0V24.7477H5.22222V15.3166C5.21647 14.4862 5.36886 13.6623 5.6713 12.8885C5.86376 12.3773 6.17812 11.9684 6.65287 11.6745C7.16617 11.3571 7.76188 11.1971 8.36581 11.2144C10.3033 11.2144 11.2849 12.3198 11.2849 14.537V24.7796H16.5071V15.0674C16.6995 12.486 17.7389 11.2144 19.6186 11.2144C20.4077 11.2144 21.0236 11.4317 21.4727 11.8662C21.9218 12.2943 22.2297 12.7288 22.3452 13.1569C22.4542 13.5914 22.512 14.0514 22.512 14.5306V24.7796H27.7342V13.4508C27.7321 12.8227 27.6369 12.1983 27.4519 11.5978C27.2162 10.8361 26.8956 10.1031 26.496 9.41254V9.41254ZM34.1882 0.000592873C33.3478 0.000592873 32.6485 0.294516 32.0839 0.863195C31.8046 1.1201 31.5826 1.43259 31.4322 1.78043C31.2819 2.12826 31.2067 2.50367 31.2114 2.88232C31.2114 3.66825 31.4937 4.33916 32.0839 4.90784C32.3594 5.18375 32.6875 5.40215 33.0488 5.55026C33.4101 5.69837 33.7975 5.77323 34.1882 5.77044C35.0286 5.77044 35.7279 5.47652 36.2925 4.90784C36.5726 4.65022 36.7951 4.33668 36.9454 3.98768C37.0958 3.63868 37.1706 3.26204 37.165 2.88232C37.165 2.10279 36.8827 1.43187 36.2925 0.863195C36.0201 0.583099 35.6926 0.361939 35.3306 0.213523C34.9685 0.0651067 34.5796 -0.00737842 34.1882 0.000592873V0.000592873ZM36.7672 7.20172H31.5514V24.7732H36.7672V7.20172V7.20172ZM83.2732 26.2301C82.4391 26.2301 81.7334 26.5304 81.1753 27.0991C80.896 27.356 80.6739 27.6685 80.5236 28.0163C80.3733 28.3641 80.2981 28.7395 80.3028 29.1182C80.3028 29.8977 80.5851 30.575 81.1753 31.1373C81.4508 31.4132 81.7789 31.6316 82.1402 31.7797C82.5015 31.9279 82.8889 32.0027 83.2796 31.9999C84.12 31.9999 84.8193 31.706 85.3839 31.1373C85.6635 30.8807 85.8857 30.5682 86.0361 30.2203C86.1864 29.8724 86.2615 29.4969 86.2564 29.1182C86.2564 28.3387 85.9741 27.6614 85.3839 27.0991C85.1125 26.8172 84.7854 26.5944 84.4232 26.4449C84.061 26.2953 83.6716 26.2222 83.2796 26.2301H83.2732ZM85.8907 7.20172H80.6685V24.7732H85.8907V7.20172V7.20172ZM51.9527 7.20172L48.5332 12.077L45.133 7.20172H39.2949L45.5244 15.9364L39.3013 24.7796H45.1394L48.5332 19.8724L51.9527 24.7796H57.7908L51.587 15.9364L57.7908 7.20172H51.9527V7.20172ZM77.2426 7.20172H70.9554L65.5407 14.3965V7.20172H60.3185V24.7732H65.5407V17.291L71.7124 24.786H78.3974L70.9875 15.8341L77.2426 7.20811V7.20172ZM97.4257 7.20172C97.4149 6.53045 97.2711 5.86792 97.0025 5.25215C96.7339 4.63639 96.3459 4.0795 95.8607 3.61347C95.3755 3.14743 94.8026 2.78142 94.1751 2.53643C93.5475 2.29144 92.8775 2.1723 92.2035 2.18585V7.20172H88.6109V11.6745H92.2035V17.9299C92.2035 19.1951 92.396 20.3005 92.8194 21.2462C93.1246 22.0117 93.583 22.7074 94.1667 23.2908C94.7133 23.7328 95.3316 24.0785 95.9951 24.3132C96.7265 24.5624 97.2269 24.6966 97.5669 24.7221C97.9005 24.7477 98.2405 24.7796 98.6319 24.7796C99.7867 24.7796 100.903 24.7221 101.968 24.6135V20.3836C101.442 20.4347 100.961 20.4922 100.486 20.5177C99.8957 20.5177 99.421 20.4347 98.9719 20.2749C98.6222 20.1589 98.3039 19.9643 98.0416 19.7063C97.8492 19.4954 97.708 19.2781 97.6246 19.0034C97.5365 18.8266 97.4779 18.6367 97.4514 18.4411C97.4257 18.3325 97.4257 18.2494 97.4257 18.1983V11.6745H102V7.20172H97.4257V7.20172Z" fill="#ffffff"/>
</svg>
