<svg viewBox="0 0 226 32" fill="none" xmlns="http://www.w3.org/2000/svg">
<g id="logo">
<path fill-rule="evenodd" clip-rule="evenodd" d="M113.051 8.14139H117.937L117.563 9.89551H112.676L109.96 22.3904C109.837 22.9525 109.767 23.5249 109.75 24.1C109.75 25.6826 110.753 26.4579 112.34 26.4579C113.577 26.4224 114.784 26.0725 115.849 25.441L115.507 27.2714C114.34 27.914 113.03 28.2507 111.699 28.2502C109.109 28.2502 107.313 26.9092 107.313 24.5068C107.334 23.8353 107.417 23.1672 107.561 22.5112L110.322 9.89551H107.396L107.77 8.14139H110.696L111.864 2.89175L114.402 1.91936L113.051 8.14139ZM99.8434 8.14139H104.819L101.309 24.3415C101.202 24.769 101.132 25.2049 101.1 25.6444C101.1 26.1719 101.436 26.5024 102.103 26.5024C102.723 26.4767 103.325 26.2929 103.854 25.9686L103.48 27.64C102.799 28.0498 102.021 28.2692 101.227 28.2756C99.5959 28.2756 98.7201 27.3795 98.7201 25.994C98.7432 25.4865 98.8133 24.9822 98.9295 24.4877L102.103 9.92093H99.469L99.8434 8.14139ZM106.368 2.28162C106.313 2.80594 106.071 3.29278 105.686 3.65248C105.301 4.01219 104.799 4.22052 104.273 4.23912C103.937 4.23912 103.614 4.1052 103.376 3.86682C103.138 3.62844 103.004 3.30513 103.004 2.96802C103.043 2.45792 103.27 1.98052 103.64 1.62829C104.011 1.27605 104.499 1.07403 105.009 1.06137C105.35 1.04734 105.683 1.16705 105.936 1.39499C106.19 1.62293 106.345 1.94107 106.368 2.28162V2.28162ZM90.6664 13.2321C90.6664 12.1326 89.9556 11.3255 88.5784 11.3255C85.7795 11.3255 83.4377 14.1346 82.5174 17.1471C83.2617 17.2961 84.0179 17.3769 84.7768 17.3886C88.6228 17.3823 90.6664 15.59 90.6664 13.2321ZM95.7436 13.2321C95.7436 17.3441 91.6056 20.5982 85.5447 20.5982C84.3104 20.6027 83.079 20.4792 81.8701 20.2295C81.8701 20.3948 81.8257 20.56 81.8257 20.6808C81.8257 23.223 83.5392 24.6275 86.0461 24.6275C88.5051 24.5009 90.8985 23.7884 93.0273 22.5493L92.234 26.3626C89.904 27.6032 87.3077 28.2576 84.6689 28.2692C79.8646 28.2692 76.2661 25.8669 76.2661 20.9414C76.2661 14.2236 81.7432 7.79819 89.0544 7.79819C92.9257 7.77913 95.769 9.60951 95.769 13.2321H95.7436ZM76.0694 13.4736C76.0561 13.8429 76.0137 14.2106 75.9424 14.5732L70.5987 14.6939C70.6491 14.4127 70.6767 14.1279 70.6812 13.8423C70.6812 12.5013 70.1798 11.3001 68.5932 11.3001C66.8796 11.3001 65.4199 12.5712 64.4108 14.1473C63.1832 16.1607 62.5068 18.4623 62.4497 20.8206C62.4497 23.3628 63.9094 24.6339 66.5877 24.6339C69.0242 24.5081 71.3919 23.7811 73.48 22.5175L72.6422 26.299C70.4701 27.5612 68.0074 28.2358 65.4961 28.2565C60.6092 28.2565 56.8458 26.0194 56.8458 20.8905C56.8458 14.0901 61.8659 7.78548 69.0501 7.78548C73.2769 7.77913 76.0757 9.97813 76.0757 13.4736H76.0694ZM47.6877 19.702L49.5028 11.5225C49.1153 11.3051 48.6777 11.1934 48.2335 11.1984C43.3848 11.1984 40.294 16.9183 40.294 21.043C40.294 23.3628 41.2587 24.5831 43.1373 24.5831C43.7078 24.6061 44.2764 24.5043 44.8036 24.2847C45.3309 24.0652 45.8039 23.7333 46.19 23.312C46.9757 22.2483 47.4919 21.0095 47.6941 19.702H47.6877ZM52.765 8.89769L55.7732 8.12232L52.5999 22.5747C52.5159 22.9363 52.4607 23.3039 52.4349 23.6742C52.4349 24.2017 52.7269 24.4877 53.3552 24.4877C54.0229 24.4328 54.6715 24.2379 55.2591 23.9157L54.6245 27.0109C53.4316 27.7051 52.0757 28.0692 50.696 28.0659C49.0205 28.0659 47.5989 27.335 47.2244 25.9114C46.47 26.6801 45.5642 27.2833 44.5645 27.6826C43.5648 28.082 42.493 28.2688 41.4174 28.2311C37.235 28.2311 34.6901 25.5427 34.6901 21.1892C34.7017 19.4111 35.0639 17.6528 35.7561 16.0153C36.4483 14.3778 37.4567 12.8933 38.7234 11.6472C39.9902 10.4012 41.4903 9.41798 43.1375 8.75417C44.7848 8.09035 46.5468 7.759 48.3224 7.77913C49.8891 7.77357 51.4305 8.17426 52.7967 8.94218L52.765 8.89769ZM26.7442 0H34.9947L30.0952 22.7527C30.0116 23.1143 29.9565 23.4819 29.9302 23.8522C29.9302 24.3797 30.2602 24.6657 30.8885 24.6657C31.5346 24.6072 32.1614 24.4145 32.729 24.1L32.0563 27.1888C30.8658 27.8896 29.5087 28.2562 28.1278 28.2502C25.9192 28.2502 24.3199 27.2714 24.3199 24.9135C24.334 24.1719 24.4319 23.4342 24.6118 22.7145L28.6736 3.85779H25.9573L26.7442 0ZM18.4049 9.28538C18.4404 8.8611 18.3839 8.43417 18.2393 8.03378C18.0947 7.6334 17.8654 7.26904 17.5672 6.96562C16.8119 6.33007 15.6061 6.0695 13.7593 6.0695H10.5289L8.39644 15.7934H10.7891C13.461 15.7934 15.1745 15.2278 16.3423 14.2045C17.0111 13.5751 17.5403 12.8119 17.8956 11.9645C18.251 11.117 18.4245 10.2043 18.4049 9.28538ZM24.4024 8.94218C24.4216 10.4296 24.1045 11.902 23.4747 13.2493C22.8449 14.5965 21.9188 15.7835 20.7658 16.7213C18.5509 18.5072 15.5045 19.3652 11.6141 19.3652H7.64755L5.80706 27.8816H0L4.72181 6.0695H1.79606L2.63381 2.12274H14.3749C18.0495 2.12274 20.5627 2.65024 22.2699 3.99125C23.6916 5.09075 24.4024 6.67963 24.4024 8.94218Z" fill="white"/>
<path fill-rule="evenodd" clip-rule="evenodd" d="M123.122 26.7376C123.594 27.0663 124.16 27.2314 124.734 27.2079C125.02 27.209 125.304 27.1684 125.577 27.0878C125.713 27.0475 125.847 26.9972 125.976 26.9372C126.366 26.7572 126.711 26.4937 126.987 26.1656C127.724 25.2811 128.228 24.2257 128.453 23.096L128.492 22.9243L128.656 22.0154C128.692 21.7453 128.704 21.4731 128.691 21.202C128.678 20.9178 128.639 20.6348 128.574 20.3567C128.495 19.9384 128.27 19.5621 127.939 19.2952C127.6 19.0512 127.189 18.9281 126.771 18.9458C126.024 18.9466 125.294 19.1675 124.671 19.5813C124.068 19.9466 123.597 20.494 123.325 21.1448L122.354 25.4284C122.431 25.9479 122.707 26.4172 123.122 26.7376ZM129.786 21.8883C129.754 22.266 129.701 22.6415 129.627 23.0133L129.469 23.6043C129.171 24.8929 128.541 26.0807 127.641 27.0491C127.259 27.4517 126.8 27.7721 126.29 27.9906C125.78 28.2092 125.232 28.3212 124.677 28.3202C124.012 28.3324 123.356 28.1703 122.773 27.8499C122.466 27.6784 122.195 27.4497 121.974 27.1761L121.809 27.8815C121.792 27.9555 121.752 28.0218 121.693 28.0693C121.634 28.1167 121.561 28.1423 121.485 28.1422H120.996C120.984 28.1425 120.972 28.1422 120.96 28.1411C120.926 28.1378 120.893 28.1288 120.862 28.1141C120.82 28.0942 120.783 28.0646 120.755 28.0277C120.727 27.9911 120.708 27.9487 120.698 27.9037C120.688 27.8587 120.688 27.8121 120.698 27.7672L123.668 14.2236C123.685 14.1485 123.727 14.0813 123.787 14.0329C123.847 13.9844 123.921 13.9576 123.998 13.9567H124.48C124.527 13.9564 124.574 13.9672 124.615 13.9882C124.657 14.0091 124.694 14.0397 124.721 14.0774C124.751 14.1132 124.772 14.1554 124.782 14.2007C124.791 14.2461 124.791 14.2932 124.779 14.3381L123.738 18.9585C124.024 18.7126 124.337 18.4994 124.671 18.323C125.322 17.9709 126.051 17.7875 126.791 17.7891C127.418 17.7717 128.035 17.9518 128.555 18.3039C129.058 18.6764 129.422 19.2065 129.59 19.8101C129.783 20.4846 129.85 21.1893 129.786 21.8883ZM139.241 18.0165C139.289 18.0443 139.329 18.0843 139.357 18.1323L139.344 18.1514C139.365 18.1886 139.378 18.2294 139.384 18.2716C139.385 18.2854 139.386 18.2994 139.386 18.3135C139.386 18.3701 139.372 18.426 139.344 18.4755L132.724 29.5849C132.357 30.2993 131.839 30.9258 131.208 31.4217C130.705 31.7879 130.103 31.9899 129.481 32C129.211 32.0008 128.942 31.9645 128.682 31.892C128.607 31.8725 128.544 31.8256 128.502 31.7607C128.461 31.6959 128.446 31.618 128.46 31.5424L128.529 31.0849C128.534 31.0625 128.54 31.0408 128.549 31.02C128.574 30.9598 128.615 30.9072 128.669 30.8687C128.704 30.8422 128.744 30.8229 128.786 30.8119C128.829 30.8011 128.873 30.7987 128.916 30.8051C129.098 30.8456 129.283 30.871 129.469 30.8814C129.849 30.8566 130.217 30.7373 130.539 30.5342C130.862 30.3311 131.128 30.0507 131.316 29.7183L131.69 29.1528L132.559 27.6782L130.89 18.3484C130.882 18.3011 130.885 18.2524 130.898 18.2061C130.911 18.1599 130.934 18.1172 130.966 18.0815C130.998 18.0441 131.036 18.014 131.08 17.9932C131.124 17.9725 131.172 17.9613 131.22 17.9607H131.735C131.784 17.9599 131.832 17.9709 131.876 17.9926C131.895 18.0026 131.914 18.0147 131.932 18.0289C131.988 18.0742 132.026 18.1379 132.039 18.2086L133.435 26.1721L138.246 18.1386C138.277 18.0888 138.32 18.0476 138.371 18.0187C138.422 17.9898 138.479 17.9742 138.538 17.9734H139.084C139.139 17.9737 139.193 17.9886 139.241 18.0165Z" fill="white"/>
<path fill-rule="evenodd" clip-rule="evenodd" d="M211.581 18.2339C211.721 18.2544 211.865 18.2437 212.001 18.203C212.137 18.1622 212.263 18.0921 212.369 17.9977C212.475 17.9034 212.56 17.7869 212.617 17.6564C212.673 17.526 212.701 17.3847 212.698 17.2426C212.704 17.0983 212.678 16.9544 212.623 16.8211C212.567 16.6878 212.483 16.5684 212.377 16.4709C212.271 16.3735 212.144 16.3004 212.007 16.257C211.941 16.2362 211.873 16.2224 211.805 16.2157C211.731 16.2084 211.655 16.2095 211.581 16.2193H209.391V14.0266C209.413 13.8558 209.398 13.6822 209.347 13.5177C209.297 13.3531 209.212 13.201 209.098 13.0719C208.984 12.9427 208.844 12.8393 208.687 12.7684C208.531 12.6975 208.361 12.6609 208.189 12.6609C208.017 12.6609 207.847 12.6975 207.69 12.7684C207.533 12.8393 207.393 12.9427 207.28 13.0719C207.166 13.201 207.081 13.3531 207.03 13.5177C206.98 13.6822 206.964 13.8558 206.986 14.0266V24.5323C206.986 26.9601 208.179 28.2438 210.445 28.2438C210.968 28.2582 211.489 28.163 211.974 27.9642C212.168 27.8857 212.334 27.7526 212.454 27.5811C212.51 27.4996 212.555 27.4112 212.588 27.3184C212.623 27.2158 212.643 27.1078 212.647 26.9981C212.651 26.8701 212.629 26.7426 212.583 26.6233C212.554 26.5517 212.518 26.4841 212.473 26.4219C212.444 26.3804 212.411 26.3413 212.374 26.3052C212.284 26.2146 212.176 26.1437 212.057 26.0966C211.938 26.0496 211.81 26.0278 211.682 26.0321C211.534 26.0378 211.387 26.0634 211.245 26.1084C211.209 26.1182 211.173 26.1269 211.137 26.1347C211.084 26.1461 211.03 26.1553 210.976 26.1623C210.898 26.1722 210.821 26.1775 210.743 26.1783C209.823 26.1783 209.391 25.5745 209.391 24.2716V18.2339H211.581ZM196.222 17.1535C197.423 16.331 198.849 15.9044 200.303 15.9333C203.4 15.9333 205.247 17.6365 205.273 20.5537V27.0554C205.296 27.2127 205.286 27.3735 205.242 27.5263C205.198 27.6793 205.121 27.821 205.018 27.9417C204.914 28.0624 204.786 28.1592 204.641 28.2256C204.497 28.2921 204.34 28.3265 204.181 28.3265C204.018 28.3318 203.857 28.3014 203.707 28.2374C203.557 28.1737 203.424 28.0778 203.315 27.9567C203.206 27.8357 203.125 27.6923 203.077 27.5367C203.029 27.3809 203.016 27.2168 203.039 27.0554V26.4199C202.601 27.0535 202.01 27.5656 201.32 27.908C200.631 28.2505 199.866 28.4118 199.097 28.3774C196.959 28.3774 194.794 27.2525 194.794 24.7103C194.794 21.1957 198.901 20.6999 202.937 20.6999V20.433C202.937 18.806 201.909 17.8908 200.107 17.8908C199.126 17.9032 198.173 18.2184 197.377 18.7933C197.336 18.8271 197.292 18.8583 197.247 18.8867C197.19 18.9225 197.131 18.9539 197.069 18.9804C196.986 19.0162 196.9 19.0434 196.811 19.0615C196.751 19.0738 196.69 19.0819 196.629 19.0856C196.502 19.0856 196.377 19.0603 196.261 19.0111C196.144 18.9619 196.039 18.8899 195.951 18.7993C195.927 18.7746 195.904 18.7487 195.883 18.7217C195.827 18.6496 195.781 18.5692 195.748 18.4834C195.701 18.3656 195.679 18.2396 195.683 18.1132C195.682 17.9202 195.731 17.7301 195.826 17.5617C195.92 17.3935 196.057 17.2528 196.222 17.1535ZM202.912 22.4922H202.404V22.4604C200.189 22.4604 197.251 22.6827 197.251 24.6594C197.251 26.3055 199.04 26.4326 199.592 26.4326C200.041 26.4604 200.489 26.3915 200.908 26.2306C201.328 26.0696 201.707 25.8205 202.022 25.4999C202.175 25.3435 202.311 25.1719 202.429 24.9882C202.552 24.7951 202.654 24.5888 202.733 24.3725C202.886 23.9501 202.947 23.4995 202.912 23.0514V22.4922ZM175.601 16.5172C176.271 16.1294 177.031 15.9279 177.805 15.9333C181.067 15.9333 182.228 18.3928 182.241 20.7254V26.8838C182.258 27.0545 182.24 27.2269 182.186 27.3901C182.133 27.5532 182.046 27.7032 181.931 27.8306C181.817 27.9578 181.676 28.0598 181.52 28.1294C181.427 28.1706 181.33 28.2 181.231 28.2171C181.162 28.2291 181.092 28.2351 181.022 28.2351C180.851 28.2351 180.682 28.1991 180.525 28.1294C180.368 28.0598 180.228 27.9578 180.113 27.8306C180.078 27.792 180.046 27.7513 180.016 27.7088C179.949 27.611 179.895 27.5037 179.858 27.3901C179.805 27.2269 179.786 27.0545 179.804 26.8838V21.4689C179.804 19.0983 178.998 17.9479 177.195 17.9479C175.393 17.9479 174.124 19.5241 174.124 21.7612V26.9029C174.141 27.0736 174.122 27.2459 174.069 27.409C174.046 27.4784 174.018 27.5454 173.983 27.6093C173.937 27.6958 173.88 27.7764 173.814 27.8495C173.699 27.9769 173.559 28.0787 173.403 28.1484C173.296 28.1959 173.184 28.2277 173.069 28.2432C173.015 28.2505 172.96 28.2542 172.905 28.2542C172.805 28.2542 172.706 28.2419 172.609 28.2179C172.54 28.2007 172.473 28.1774 172.408 28.1484C172.251 28.0787 172.111 27.9769 171.996 27.8495C171.881 27.7223 171.794 27.5721 171.741 27.409C171.688 27.2459 171.669 27.0736 171.686 26.9029V17.3124C171.679 17.2422 171.678 17.1718 171.684 17.1018C171.691 17.0101 171.708 16.9193 171.737 16.8314C171.787 16.6765 171.87 16.5338 171.979 16.4127C172.034 16.351 172.096 16.2954 172.163 16.2472C172.188 16.2289 172.215 16.2115 172.242 16.1952C172.283 16.1704 172.325 16.148 172.369 16.1285C172.518 16.0622 172.679 16.0279 172.842 16.0279C173.004 16.0279 173.165 16.0622 173.314 16.1285C173.463 16.1947 173.596 16.2916 173.705 16.4127C173.763 16.4773 173.813 16.5479 173.855 16.6233C173.873 16.655 173.889 16.6874 173.904 16.7206L173.924 16.7693C173.932 16.7898 173.939 16.8104 173.946 16.8314C173.997 16.9864 174.014 17.1502 173.997 17.3124V18.1386C174.378 17.4646 174.932 16.9049 175.601 16.5172ZM158.416 22.1871C158.416 18.5644 160.986 15.9333 164.521 15.9333C167.6 15.9333 169.7 17.7574 170.106 20.9033C170.145 21.1598 170.162 21.4192 170.157 21.6787C170.157 22.5429 169.757 22.9498 168.888 22.9498H160.904C160.966 23.8949 161.388 24.7799 162.084 25.4214C162.78 26.0627 163.696 26.4112 164.642 26.3944C164.954 26.3949 165.265 26.3597 165.568 26.2898C165.803 26.2355 166.034 26.1603 166.257 26.0647C166.768 25.8461 167.229 25.5258 167.612 25.1233C167.659 25.0738 167.71 25.0285 167.763 24.9877C167.837 24.932 167.918 24.8847 168.002 24.8468C168.15 24.7813 168.308 24.7458 168.469 24.7421C168.513 24.7401 168.557 24.741 168.601 24.7449C168.693 24.7529 168.782 24.7736 168.868 24.8065C168.922 24.8269 168.973 24.8519 169.023 24.8811L169.057 24.9024C169.112 24.9379 169.163 24.9789 169.209 25.0246C169.256 25.0698 169.297 25.1193 169.334 25.1723C169.353 25.2003 169.371 25.229 169.387 25.2586L169.413 25.3101C169.421 25.3267 169.429 25.3435 169.436 25.3606C169.487 25.4869 169.513 25.6225 169.51 25.7589C169.496 26.0897 169.358 26.4031 169.123 26.636C168.232 27.4799 167.116 28.0475 165.911 28.27C164.705 28.4925 163.46 28.3605 162.328 27.89C161.195 27.4194 160.223 26.6304 159.529 25.6183C158.835 24.6063 158.448 23.4145 158.416 22.1871ZM167.746 21.0495C167.695 19.0983 166.425 17.8717 164.521 17.8717V17.8399C163.626 17.8241 162.758 18.145 162.089 18.7393C161.419 19.3335 160.996 20.1581 160.904 21.0495H167.746ZM193.233 16.0222C192.952 16.027 192.681 16.1251 192.461 16.3012C192.242 16.4771 192.087 16.7211 192.021 16.9946L188.689 25.3776L185.389 16.9946C185.322 16.7169 185.163 16.4698 184.939 16.2933C184.714 16.1168 184.437 16.0214 184.151 16.0222C183.994 16.0197 183.837 16.0483 183.691 16.1063C183.544 16.1645 183.411 16.2508 183.298 16.3606C183.184 16.4703 183.094 16.6014 183.031 16.7462C182.969 16.891 182.935 17.0466 182.933 17.2044C182.934 17.4415 182.986 17.6755 183.085 17.8908L186.893 26.9347C187.004 27.315 187.235 27.6491 187.551 27.8868C187.868 28.1245 188.252 28.253 188.648 28.253C188.905 28.253 189.158 28.1986 189.39 28.0953C189.415 28.0844 189.439 28.0731 189.463 28.0612C189.491 28.0469 189.52 28.0318 189.548 28.016C189.616 27.9774 189.682 27.9342 189.745 27.8868C190.061 27.6491 190.292 27.315 190.403 26.9347L194.274 17.8399C194.361 17.6384 194.413 17.4235 194.426 17.2044C194.428 17.1454 194.426 17.0865 194.419 17.0281C194.415 16.9951 194.409 16.9622 194.402 16.9296L194.389 16.8737C194.378 16.8294 194.363 16.7856 194.346 16.7426C194.323 16.6832 194.294 16.6259 194.261 16.5715C194.213 16.4916 194.155 16.4179 194.088 16.3519C194.044 16.3083 193.997 16.2684 193.947 16.2328C193.907 16.2048 193.866 16.1794 193.824 16.1566C193.799 16.1431 193.773 16.1305 193.747 16.1189L193.695 16.0974C193.548 16.0408 193.391 16.0152 193.233 16.0222ZM213.275 22.1426C213.275 18.5391 215.947 15.9333 219.622 15.9333C223.316 15.9333 226 18.5073 226 22.1426C226.01 22.978 225.851 23.8066 225.532 24.5787C225.213 25.3506 224.742 26.0499 224.146 26.6344C223.55 27.2189 222.841 27.6764 222.064 27.9792C221.287 28.282 220.456 28.4239 219.622 28.3965C217.942 28.425 216.317 27.7931 215.097 26.636C214.863 26.4025 214.649 26.1513 214.456 25.8848C214.163 25.48 213.919 25.0403 213.73 24.5746C213.417 23.8027 213.263 22.9757 213.275 22.1426ZM215.782 22.1426C215.782 24.2272 217.083 26.3309 219.622 26.3309V26.2991C221.494 26.2991 223.468 25.009 223.468 22.1426C223.468 19.2763 221.469 17.9734 219.622 17.9734C217.775 17.9734 215.782 19.2763 215.782 22.1426Z" fill="white"/>
<path d="M154.259 14.7893C152.304 12.4949 145.976 16.9438 146.008 22.6637C146.008 22.7345 145.98 22.8024 145.93 22.8525C145.88 22.9025 145.812 22.9306 145.742 22.9306C145.696 22.9315 145.65 22.9202 145.61 22.8979C145.57 22.8756 145.537 22.843 145.513 22.8035C145.145 22.0064 144.953 21.1395 144.948 20.2613C144.947 19.5975 145.057 18.9381 145.272 18.3102C145.287 18.2559 145.284 18.1979 145.263 18.1455C145.242 18.0931 145.204 18.0492 145.155 18.0208C145.107 17.9924 145.05 17.981 144.994 17.9885C144.938 17.9961 144.886 18.022 144.847 18.0623C143.804 19.1946 143.226 20.6788 143.228 22.2188C143.215 23.0286 143.365 23.8327 143.669 24.5834C143.972 25.3341 144.423 26.016 144.995 26.5887C145.567 27.1614 146.248 27.6132 146.998 27.9171C147.747 28.2211 148.55 28.3711 149.359 28.3582C158.028 28.1549 156.004 16.8357 154.259 14.7893Z" fill="#80B341"/>
</g>
</svg>
