<svg width="15" height="16" viewBox="0 0 15 16" fill="#000" xmlns="http://www.w3.org/2000/svg">
<path d="M12.4675 0.695288C10.2578 -1.89409 3.10667 3.12119 3.16468 9.58673C3.16332 9.66603 3.13121 9.7417 3.07513 9.79779C3.01905 9.85387 2.94338 9.88597 2.86408 9.88733C2.81199 9.88675 2.76092 9.87289 2.7157 9.84705C2.67048 9.82121 2.6326 9.78424 2.60566 9.73967C2.18765 8.83549 1.97169 7.85108 1.97282 6.85496C1.97229 6.10559 2.0934 5.36111 2.33143 4.65056C2.35216 4.58935 2.35104 4.52286 2.32827 4.46239C2.3055 4.40192 2.26248 4.35121 2.20653 4.31888C2.15058 4.28655 2.08516 4.27461 2.0214 4.28508C1.95763 4.29556 1.89947 4.3278 1.8568 4.37632C0.664912 5.64653 0.00119646 7.32279 0.000461774 9.06464C-0.0101426 9.97828 0.161992 10.8848 0.506748 11.731C0.851505 12.5772 1.36193 13.3459 2.00802 13.992C2.65411 14.6381 3.42283 15.1485 4.269 15.4933C5.11517 15.838 6.02172 16.0101 6.93536 15.9995C16.6917 15.778 14.4398 3.00516 12.4675 0.695288Z" />
</svg>
