<svg viewBox="0 0 198 32" fill="none" xmlns="http://www.w3.org/2000/svg">
<g id="logo">
<path fill-rule="evenodd" clip-rule="evenodd" d="M197.214 0H135.123C134.69 0 134.338 0.352532 134.338 0.787402V31.2126C134.338 31.6475 134.69 32 135.123 32H197.214C197.647 32 197.998 31.6475 197.998 31.2126V0.787402C197.998 0.352532 197.647 0 197.214 0ZM150.897 15.71C151.137 15.5339 151.351 15.3245 151.532 15.088C152.033 14.4055 152.29 13.5732 152.262 12.7258C152.292 12.1581 152.188 11.5913 151.959 11.0715C151.73 10.5516 151.382 10.0932 150.944 9.73363C149.887 9.00394 148.616 8.65178 147.336 8.73363H143.814C143.668 8.73363 143.529 8.7917 143.426 8.89507C143.323 8.99843 143.265 9.13863 143.265 9.28481V22.7179C143.265 22.8641 143.323 23.0043 143.426 23.1076C143.529 23.211 143.668 23.2691 143.814 23.2691H148.128C149.379 23.3367 150.61 22.9323 151.579 22.1352C152.013 21.7386 152.354 21.2505 152.578 20.706C152.802 20.1614 152.903 19.5739 152.873 18.9856C152.86 18.0741 152.507 17.2007 151.885 16.5368C151.603 16.2085 151.269 15.9291 150.897 15.71ZM148.183 21.6706H144.888V16.6391H148.395C149.177 16.6066 149.943 16.8613 150.552 17.3557C150.801 17.5585 151.001 17.8156 151.137 18.1075C151.273 18.3994 151.341 18.7185 151.336 19.0407C151.36 19.3998 151.301 19.7595 151.165 20.0925C151.029 20.4255 150.82 20.7229 150.552 20.962C149.879 21.4832 149.038 21.7356 148.191 21.6706H148.183ZM149.948 14.4423C149.222 14.8909 148.374 15.0976 147.524 15.0328H144.888V10.3084H147.469C150.356 10.3084 150.685 11.6706 150.685 12.6706C150.717 13.0033 150.668 13.3389 150.541 13.6479C150.413 13.9568 150.212 14.2296 149.956 14.4423H149.948ZM156.984 21.6681H163.298C163.371 21.6671 163.443 21.6806 163.511 21.7078C163.578 21.735 163.64 21.7755 163.691 21.8268C163.743 21.878 163.784 21.9392 163.812 22.0065C163.84 22.0739 163.855 22.1463 163.855 22.2193V22.7154C163.855 22.8616 163.797 23.0018 163.694 23.1051C163.591 23.2085 163.451 23.2666 163.306 23.2666H155.933C155.787 23.2666 155.647 23.2085 155.544 23.1051C155.441 23.0018 155.384 22.8616 155.384 22.7154V9.2823C155.384 9.13612 155.441 8.99592 155.544 8.89256C155.647 8.78919 155.787 8.73112 155.933 8.73112H156.435C156.58 8.73112 156.72 8.78919 156.823 8.89256C156.926 8.99592 156.984 9.13612 156.984 9.2823V21.6681ZM173.126 9.37011C172.238 8.83422 171.221 8.55111 170.184 8.55111C169.148 8.55111 168.131 8.83422 167.243 9.37011C166.379 9.93375 165.697 10.7383 165.282 11.6851C164.821 12.7279 164.59 13.859 164.608 15V16.937C164.533 18.6521 165.092 20.3344 166.176 21.6614C166.678 22.2478 167.304 22.714 168.008 23.026C168.713 23.338 169.478 23.4879 170.247 23.4646C171.283 23.4914 172.304 23.218 173.189 22.6772C174.057 22.1173 174.744 21.3156 175.165 20.3701C175.627 19.3272 175.857 18.1961 175.84 17.0551V14.9607C175.858 13.8221 175.628 12.6933 175.165 11.6536C174.723 10.7086 174.014 9.91465 173.126 9.37011ZM174.232 14.9607V16.9134C174.311 18.2237 173.921 19.5192 173.134 20.567C172.782 20.9884 172.337 21.3222 171.835 21.5422C171.333 21.7621 170.787 21.8622 170.239 21.8347C169.495 21.8559 168.761 21.6559 168.129 21.2599C167.515 20.8558 167.035 20.2774 166.749 19.5985C166.396 18.7759 166.223 17.8874 166.239 16.9922V15.0394C166.168 13.7398 166.557 12.4567 167.337 11.4174C167.705 11.0139 168.152 10.6917 168.65 10.4713C169.148 10.2509 169.687 10.137 170.232 10.137C170.776 10.137 171.315 10.2509 171.813 10.4713C172.311 10.6917 172.758 11.0139 173.126 11.4174C173.903 12.4289 174.295 13.6851 174.232 14.9607ZM183.935 16.0789H188.523C188.596 16.0778 188.668 16.0913 188.736 16.1186C188.803 16.1458 188.865 16.1862 188.917 16.2375C188.968 16.2888 189.01 16.3499 189.038 16.4173C189.066 16.4847 189.08 16.557 189.08 16.6301V21.2915C189.081 21.4072 189.045 21.5201 188.978 21.6143C188.452 22.2602 187.744 22.7321 186.947 22.9686C185.989 23.3066 184.981 23.4745 183.966 23.4647C182.928 23.4855 181.906 23.2043 181.024 22.6553C180.142 22.1062 179.436 21.3126 178.993 20.3702C178.509 19.358 178.26 18.2489 178.264 17.1261V14.8112C178.248 13.7041 178.484 12.608 178.954 11.6064C179.384 10.681 180.073 9.90064 180.936 9.35982C181.799 8.819 182.8 8.54091 183.817 8.5592C185.112 8.50876 186.383 8.91555 187.409 9.7088C187.88 10.0967 188.269 10.5751 188.554 11.1159C188.838 11.6568 189.011 12.2492 189.064 12.8584C189.073 12.9359 189.066 13.0144 189.042 13.0887C189.019 13.163 188.98 13.2315 188.928 13.2896C188.876 13.3476 188.812 13.3939 188.741 13.4255C188.67 13.457 188.593 13.4731 188.515 13.4726H188.021C187.891 13.4723 187.765 13.4254 187.665 13.3403C187.566 13.2552 187.501 13.1374 187.48 13.008C187.397 12.1799 186.991 11.4184 186.351 10.8899C185.613 10.3632 184.721 10.1023 183.817 10.1498C183.278 10.128 182.741 10.2302 182.248 10.4485C181.754 10.6669 181.317 10.9956 180.97 11.4096C180.187 12.3827 179.786 13.6091 179.84 14.8584V17.0001C179.826 17.8875 180.008 18.767 180.374 19.5749C180.678 20.2674 181.181 20.8533 181.817 21.2585C182.454 21.6637 183.197 21.8697 183.95 21.8505C184.737 21.8574 185.519 21.7323 186.264 21.4805C186.708 21.3506 187.12 21.1279 187.472 20.8269V17.6773H183.935C183.789 17.6773 183.649 17.6192 183.546 17.5159C183.443 17.4125 183.386 17.2723 183.386 17.1261V16.6301C183.386 16.4839 183.443 16.3437 183.546 16.2403C183.649 16.137 183.789 16.0789 183.935 16.0789Z" fill="#80B341"/>
<path fill-rule="evenodd" clip-rule="evenodd" d="M104.59 12.538C104.808 12.5637 105.029 12.5431 105.238 12.4774C105.447 12.4117 105.641 12.3025 105.805 12.1568C105.969 12.0112 106.1 11.8326 106.189 11.6327C106.28 11.4327 106.326 11.216 106.326 10.9969C106.326 10.7777 106.28 10.561 106.189 10.3611C106.1 10.1612 105.969 9.98254 105.805 9.83695C105.641 9.69135 105.447 9.58211 105.238 9.5164C105.029 9.4507 104.808 9.43003 104.59 9.45576H101.233V6.05882C101.261 5.79932 101.234 5.53684 101.154 5.28845C101.074 5.04006 100.942 4.81132 100.768 4.61711C100.593 4.42291 100.38 4.2676 100.141 4.16127C99.9023 4.05495 99.6443 4 99.3829 4C99.1214 4 98.8633 4.05495 98.6246 4.16127C98.3859 4.2676 98.1723 4.42291 97.9978 4.61711C97.8232 4.81132 97.6917 5.04006 97.6113 5.28845C97.5318 5.53684 97.5042 5.79932 97.5326 6.05882V22.1782C97.5326 25.8969 99.3723 27.8994 102.844 27.8994C103.649 27.9181 104.45 27.7746 105.199 27.4774C105.494 27.354 105.747 27.1492 105.93 26.887C106.112 26.6249 106.216 26.3162 106.229 25.997C106.237 25.7995 106.205 25.6026 106.133 25.4184C106.06 25.2343 105.952 25.0671 105.811 24.9273C105.671 24.7875 105.504 24.6782 105.32 24.6063C105.136 24.5345 104.938 24.5015 104.741 24.5095C104.514 24.5207 104.291 24.5592 104.075 24.624C103.824 24.698 103.564 24.7366 103.302 24.7384C101.87 24.7384 101.233 23.8159 101.233 21.8349V12.538H104.59ZM81.0262 10.8358C82.8627 9.56988 85.0515 8.91427 87.2825 8.96209C92.0353 8.96209 94.8988 11.6296 94.8988 16.085V25.9611C94.9297 26.2015 94.9086 26.4458 94.8363 26.6772C94.7641 26.9086 94.6423 27.1217 94.4799 27.3017C94.3167 27.4818 94.1178 27.6245 93.8945 27.7202C93.6713 27.8159 93.4309 27.8623 93.1882 27.8562C92.9414 27.8631 92.6962 27.8167 92.4697 27.7205C92.2423 27.6244 92.0386 27.4805 91.8721 27.2986C91.7057 27.1167 91.5807 26.9012 91.5052 26.6668C91.4296 26.4323 91.4053 26.1843 91.4345 25.9396V24.9957C90.7647 25.973 89.8562 26.7633 88.7951 27.2915C87.734 27.8197 86.5551 28.0682 85.3714 28.0136C82.0857 28.0136 78.7711 26.2829 78.7711 22.4068C78.7711 17.0218 85.0702 16.2637 91.2624 16.2637V15.8632C91.2624 13.4389 89.68 12.0086 86.9245 12.0086C85.4168 12.0295 83.9522 12.5139 82.7295 13.3959C82.4064 13.6335 82.0207 13.7704 81.6205 13.7893C81.4272 13.7895 81.2364 13.7507 81.0586 13.6752C80.8808 13.5998 80.7207 13.4893 80.5869 13.3503C80.4532 13.2115 80.349 13.0469 80.2805 12.8667C80.212 12.6865 80.1807 12.4944 80.1884 12.3018C80.1877 12.0056 80.2645 11.7144 80.4115 11.4572C80.5584 11.2 80.7703 10.9857 81.0262 10.8358ZM91.3192 19.0098H90.5033C87.1104 19.0098 82.6004 19.3531 82.6434 22.3282C82.6434 24.8454 85.3779 25.0457 86.223 25.0457C89.3228 25.0457 91.3192 23.0147 91.3192 19.868V19.0098ZM49.3561 9.85333C50.3873 9.25838 51.5593 8.95062 52.75 8.96214C57.7537 8.96214 59.5361 12.781 59.5505 16.3496V25.8109C59.5785 26.0724 59.5513 26.3368 59.4704 26.587C59.3895 26.8373 59.2568 27.0676 59.0809 27.2632C58.905 27.4589 58.6899 27.6153 58.4495 27.7224C58.2091 27.8295 57.9488 27.8848 57.6857 27.8848C57.4225 27.8848 57.1622 27.8295 56.9218 27.7224C56.6815 27.6153 56.4663 27.4589 56.2905 27.2632C56.1146 27.0676 55.9819 26.8373 55.901 26.587C55.8201 26.3368 55.7928 26.0724 55.8209 25.8109V17.5224C55.8209 13.8894 54.5897 12.1231 51.8122 12.1231C49.0348 12.1231 47.0949 14.5188 47.0949 17.9444V25.8109C47.1176 26.0698 47.0862 26.3305 47.0026 26.5766C46.919 26.8227 46.7851 27.0486 46.6094 27.2403C46.4337 27.4318 46.22 27.5848 45.982 27.6895C45.744 27.7942 45.4867 27.8481 45.2265 27.8481C44.9665 27.8481 44.7092 27.7942 44.4712 27.6895C44.2331 27.5848 44.0194 27.4318 43.8437 27.2403C43.6681 27.0486 43.5342 26.8227 43.4505 26.5766C43.367 26.3305 43.3356 26.0698 43.3582 25.8109V11.129C43.325 10.879 43.3465 10.6247 43.4212 10.3838C43.4958 10.1429 43.6218 9.92097 43.7906 9.73336C43.9593 9.54576 44.1667 9.39692 44.3986 9.29712C44.6304 9.19731 44.8812 9.14891 45.1335 9.15523C45.4557 9.15523 46.8873 9.2482 46.8873 11.129V12.3447C47.4724 11.3086 48.3249 10.4483 49.3561 9.85333ZM23 18.5452C23 12.9956 26.9371 8.96222 32.3631 8.96222C37.0877 8.96222 40.3089 11.8085 40.9675 16.5642C41.028 16.9569 41.0544 17.3541 41.0462 17.7513C41.0462 19.0314 40.3948 19.6536 39.0634 19.6536H26.8226C26.9178 21.0991 27.5652 22.4527 28.631 23.435C29.6967 24.4172 31.0994 24.9529 32.5492 24.9314C33.3992 24.9389 34.2418 24.7734 35.0257 24.4452C35.8097 24.1169 36.5185 23.6327 37.1091 23.022C37.2769 22.8408 37.4791 22.695 37.7041 22.5931C37.9291 22.4911 38.1722 22.4351 38.4191 22.4284C38.6293 22.4185 38.8392 22.4519 39.0358 22.5267C39.2325 22.6014 39.4116 22.7159 39.562 22.8628C39.7125 23.0097 39.831 23.1861 39.9102 23.3807C39.9895 23.5755 40.0277 23.7845 40.0225 23.9945C40.0015 24.5016 39.7893 24.9819 39.4284 25.339C38.5348 26.2462 37.4613 26.9567 36.2765 27.4247C35.0918 27.8927 33.8222 28.108 32.5492 28.0566C26.8941 28.0566 23 24.0947 23 18.5452ZM37.3095 16.8359C37.195 13.8109 35.3052 11.9372 32.3631 11.9372C30.992 11.9102 29.6608 12.3987 28.6333 13.306C27.6057 14.2134 26.957 15.4732 26.8154 16.8359H37.3095ZM76.4298 9.15542C75.9985 9.16235 75.5817 9.31219 75.2448 9.58143C74.9079 9.85066 74.6701 10.2241 74.5686 10.6429L69.4576 23.5156L64.3894 10.6429C64.282 10.2206 64.0377 9.84558 63.6945 9.5765C63.3514 9.30742 62.9287 9.15936 62.4925 9.15542C62.0077 9.14583 61.5388 9.32861 61.1886 9.66372C60.8384 9.99884 60.6355 10.459 60.6242 10.9433C60.6269 11.3065 60.7075 11.665 60.8604 11.9945L66.7303 25.8469C67.4461 27.5132 68.5771 27.8636 69.4217 27.8636C70.2665 27.8636 71.4118 27.5132 72.1133 25.8469L78.0261 11.923C78.1671 11.5999 78.2449 11.2527 78.2552 10.9004C78.2554 10.6644 78.2078 10.4309 78.1152 10.2139C78.0224 9.99692 77.8867 9.80094 77.7161 9.63784C77.5455 9.47474 77.3435 9.34789 77.1225 9.26498C76.9013 9.18205 76.6657 9.14479 76.4298 9.15542ZM107.189 18.4665C107.189 12.9598 111.29 8.96222 116.931 8.96222C122.601 8.96222 126.717 12.9598 126.717 18.4665C126.733 19.7461 126.49 21.0158 126.001 22.1989C125.513 23.3819 124.79 24.4539 123.875 25.35C122.96 26.2462 121.874 26.9481 120.681 27.4132C119.487 27.8784 118.212 28.0972 116.931 28.0566C114.352 28.0987 111.859 27.1281 109.988 25.3534C109.082 24.4522 108.368 23.3778 107.887 22.1946C107.406 21.0114 107.169 19.7434 107.189 18.4665ZM111.04 18.4522C111.04 21.6632 113.059 24.8885 116.931 24.8885C119.774 24.8885 122.816 22.8503 122.816 18.4665C122.816 14.0826 119.767 12.0731 116.931 12.0731C114.097 12.0731 111.04 14.0683 111.04 18.4522Z" fill="#ffffff"/>
<path d="M16.8136 7.4474C13.8262 3.96295 4.15268 10.7185 4.22381 19.394C4.22381 19.6074 4.01042 19.8207 3.79703 19.8207C3.65477 19.8207 3.51252 19.7496 3.44139 19.6074C2.87235 18.3985 2.58784 17.0474 2.58784 15.6963C2.58784 14.7007 2.7301 13.7052 3.08574 12.7096C3.15687 12.5674 3.08574 12.354 2.87235 12.2829C2.7301 12.2118 2.58784 12.2829 2.44558 12.4252C-1.03974 16.194 -0.755236 22.1674 3.01461 25.6518C4.72171 27.2163 6.99784 28.0696 9.34508 28.0696C22.5039 27.7852 19.4454 10.5763 16.8136 7.4474Z" fill="#80B341"/>
</g>
</svg>
