<svg viewBox="0 0 62 70" fill="none" xmlns="http://www.w3.org/2000/svg">
<path d="M54.4726 3.04156C44.8171 -8.2888 13.5633 13.6622 13.749 41.9247C13.7492 42.2134 13.6548 42.4941 13.4802 42.7239C13.3056 42.9536 13.0605 43.1196 12.7825 43.1964C12.5045 43.2731 12.209 43.2564 11.9415 43.1488C11.6739 43.0412 11.449 42.8486 11.3014 42.6006C8.0799 35.6059 7.66003 27.6408 10.1282 20.3455C10.2456 20.0693 10.2576 19.7597 10.162 19.4752C10.0665 19.1908 9.86994 18.9513 9.60972 18.8023C9.3495 18.6533 9.0437 18.6051 8.75032 18.6668C8.45695 18.7286 8.19642 18.896 8.01815 19.1373C2.85332 24.7197 -0.0110427 32.0513 3.19946e-05 39.6603C3.19946e-05 59.5497 16.4752 70.3055 30.3001 69.9929C72.9396 69.0212 63.0815 13.1468 54.4726 3.04156Z" fill="#ffffff"/>
</svg>
