<svg viewBox="0 0 159 32" fill="none" xmlns="http://www.w3.org/2000/svg">
<g>
<path fill-rule="evenodd" clip-rule="evenodd" d="M72.4403 23.8845C72.4403 25.208 73.3964 25.4256 73.8633 25.4256C74.2948 25.4256 75.2687 25.208 75.2687 23.8845V3.20594C75.2687 1.84688 74.2592 1.59814 73.7966 1.59814C73.3341 1.59814 72.3423 1.84688 72.3423 3.20594V12.7414H72.28C71.6806 11.9239 70.8937 11.262 69.9853 10.8107C69.0767 10.3594 68.0735 10.132 67.0589 10.1476C62.6693 10.1476 59.7029 13.5496 59.7029 17.8355C59.7029 22.1213 62.5805 25.5811 67.0945 25.5811C68.1319 25.6014 69.1579 25.3635 70.0802 24.889C71.0027 24.4145 71.7923 23.7183 72.3779 22.863H72.4403V23.8845ZM72.5336 17.8665C72.5336 20.6735 70.5545 23.1428 67.5881 23.1428C64.4037 23.1428 62.736 20.5669 62.736 17.8177C62.736 15.0686 64.4037 12.537 67.5881 12.537C70.5545 12.537 72.5336 15.0597 72.5336 17.8665ZM56.6476 7.10541C56.1481 7.11137 55.6664 6.9201 55.3075 6.57323C54.9485 6.22647 54.7411 5.75209 54.7307 5.25342C54.7546 4.75757 54.9685 4.29003 55.3283 3.9475C55.6882 3.60507 56.1661 3.41402 56.6632 3.41402C57.16 3.41402 57.638 3.60507 57.9978 3.9475C58.3577 4.29003 58.5716 4.75757 58.5954 5.25342C58.5898 5.50281 58.5346 5.74873 58.4337 5.97687C58.3325 6.20501 58.1874 6.41102 58.0063 6.5831C57.8254 6.75518 57.6122 6.88985 57.3792 6.97952C57.1459 7.06908 56.8973 7.11191 56.6476 7.10541ZM58.1018 23.8046C58.1018 25.137 57.1411 25.4079 56.6476 25.4079C56.154 25.4079 55.1976 25.1592 55.1976 23.8046V11.9065C55.1976 10.5741 56.154 10.3031 56.6476 10.3031C57.1411 10.3031 58.1018 10.5519 58.1018 11.9065V23.8046ZM46.1118 25.4257C45.4314 25.4257 44.533 25.146 43.9771 23.8225L39.1873 12.5238C39.0698 12.2624 39.0077 11.9797 39.0049 11.6933C39.0084 11.5068 39.0485 11.3229 39.1235 11.152C39.1612 11.0657 39.2075 10.9836 39.2613 10.9069C39.3139 10.8316 39.374 10.7614 39.4407 10.6976C39.4789 10.6609 39.5191 10.6267 39.5608 10.5947L39.6023 10.5642C39.6223 10.55 39.6427 10.5363 39.6635 10.5231C39.6965 10.5021 39.7306 10.4825 39.7656 10.4642C39.8118 10.4402 39.8596 10.4185 39.9085 10.3994C39.9673 10.3765 40.0275 10.3575 40.0887 10.3428C40.1211 10.335 40.1536 10.3283 40.1864 10.3227C40.2288 10.3156 40.2713 10.3104 40.3141 10.307C40.3608 10.3034 40.4077 10.3021 40.4546 10.3031C40.8994 10.3031 41.5354 10.4586 41.9402 11.4757L46.1118 22.0326H46.1741L50.3635 11.4757C50.7326 10.4897 51.3507 10.3031 51.8132 10.3031L51.8595 10.3019L51.8868 10.302L51.937 10.3034L51.9639 10.3051L52.015 10.3095C52.0849 10.3169 52.1541 10.3297 52.2223 10.3478C52.2664 10.3595 52.3098 10.3734 52.3526 10.3895C52.4536 10.4275 52.5494 10.4771 52.6382 10.5373L52.6686 10.5587C52.6864 10.5714 52.7038 10.5845 52.7207 10.598L52.7528 10.6243L52.7728 10.6416L52.8147 10.6799C52.9476 10.8069 53.0536 10.9593 53.1259 11.128C53.1985 11.2969 53.236 11.4785 53.2365 11.6622C53.2276 11.9383 53.1641 12.2101 53.0497 12.4616L48.2421 23.8225C47.6951 25.146 46.8056 25.4257 46.1118 25.4257ZM79.8583 18.7282C79.918 19.9408 80.4483 21.0826 81.3365 21.9116C82.2249 22.7406 83.4015 23.1917 84.6169 23.1695C85.319 23.1743 86.0145 23.037 86.6618 22.766C87.3094 22.4951 87.8951 22.0959 88.3839 21.5928C88.4629 21.5099 88.5515 21.4369 88.6475 21.3753C88.6855 21.3509 88.7246 21.3284 88.7648 21.3077L88.7791 21.3004L88.8184 21.2814L88.8501 21.2672C89.0258 21.1909 89.2152 21.1507 89.4067 21.1487C89.5687 21.14 89.7307 21.165 89.8827 21.222C90.0345 21.279 90.1728 21.3669 90.289 21.48C90.4052 21.5931 90.4966 21.7289 90.5576 21.8791C90.5798 21.934 90.5978 21.9902 90.6115 22.0475C90.6254 22.1057 90.6347 22.165 90.6397 22.2248C90.6432 22.2671 90.6443 22.3097 90.6432 22.3523C90.6317 22.745 90.4729 23.119 90.1985 23.4005C89.4714 24.1345 88.5982 24.708 87.6351 25.0836C86.6721 25.4593 85.6408 25.6288 84.608 25.5811C80.1606 25.5811 76.8785 22.4722 76.8785 17.8977C76.8785 13.3231 80.1563 10.1476 84.439 10.1476C88.117 10.1476 90.8343 12.2795 91.3902 16.29C91.4156 16.4567 91.4332 16.6245 91.4434 16.7926C91.4478 16.8647 91.4508 16.937 91.4525 17.0093C91.4543 17.0892 91.4543 17.1692 91.4525 17.2492C91.4525 18.2663 90.9277 18.7282 89.9092 18.7282H79.8583ZM88.5707 16.5697C88.5083 14.2558 87.1474 12.4348 84.4612 12.4348C83.312 12.4126 82.1971 12.8273 81.3426 13.595C80.4879 14.3627 79.9574 15.4261 79.8583 16.5697H88.5707ZM92.7379 17.8355C92.7379 22.3389 96.1357 25.5811 100.619 25.5811C105.106 25.5811 108.535 22.3478 108.535 17.8355C108.535 13.3231 105.097 10.1476 100.619 10.1476C96.1401 10.1476 92.7379 13.332 92.7379 17.8355ZM95.7266 17.8355C95.7266 15.0553 97.5056 12.5548 100.619 12.5548C103.776 12.5548 105.511 15.0375 105.511 17.8355C105.511 20.6336 103.732 23.1651 100.619 23.1651C97.5056 23.1651 95.7266 20.6158 95.7266 17.8355ZM120.307 17.0938C120.307 14.7177 119.689 12.617 117.003 12.617C114.712 12.617 113.044 14.5312 113.044 17.4313V23.8224C113.044 25.1548 112.088 25.4256 111.595 25.4256C111.101 25.4256 110.14 25.177 110.14 23.8224V3.20594C110.14 1.84688 111.097 1.59814 111.595 1.59814C112.093 1.59814 113.044 1.84688 113.044 3.20594V12.7724H113.107C113.787 11.3201 115.642 10.1476 117.741 10.1476C121.512 10.1476 123.211 12.8124 123.211 16.1034V23.8224C123.211 25.1548 122.255 25.4256 121.761 25.4256C121.268 25.4256 120.307 25.177 120.307 23.8224V17.0938ZM125.733 6.55903C126.083 6.90882 126.558 7.1053 127.054 7.1053C127.205 7.1092 127.357 7.095 127.504 7.06312C127.545 7.05412 127.587 7.04371 127.628 7.03189C127.681 7.01671 127.733 6.99915 127.785 6.9793C128.018 6.88963 128.23 6.75485 128.411 6.58278C128.592 6.4107 128.736 6.20457 128.837 5.97644C128.938 5.7483 128.992 5.5026 128.997 5.25332C128.996 5.14261 128.985 5.03244 128.965 4.92412C128.951 4.85137 128.933 4.77937 128.911 4.70856C128.891 4.64578 128.868 4.58398 128.842 4.52337C128.743 4.29274 128.598 4.08401 128.418 3.90933C128.237 3.73454 128.023 3.59737 127.789 3.50564C127.67 3.45869 127.546 3.4241 127.42 3.4022C127.299 3.38138 127.177 3.37206 127.054 3.37466C126.558 3.37466 126.083 3.57113 125.733 3.92104C125.383 4.27083 125.186 4.74532 125.186 5.23998C125.186 5.73474 125.383 6.20913 125.733 6.55903ZM127.054 25.4078C127.547 25.4078 128.504 25.137 128.504 23.8046V11.9064C128.504 10.5517 127.547 10.3031 127.054 10.3031C126.56 10.3031 125.6 10.574 125.6 11.9064V23.8046C125.6 25.1592 126.56 25.4078 127.054 25.4078ZM137.532 25.4256C136.851 25.4256 135.957 25.1459 135.402 23.8224L130.616 12.5238C130.555 12.3917 130.509 12.2539 130.477 12.1126C130.447 11.9752 130.431 11.8347 130.429 11.6932C130.433 11.5068 130.473 11.3228 130.548 11.152C130.623 10.9811 130.731 10.8266 130.865 10.6975C131 10.5683 131.159 10.4671 131.333 10.3994C131.507 10.3316 131.693 10.299 131.879 10.3031C132.324 10.3031 132.964 10.4585 133.365 11.4756L137.532 22.0325H137.594L141.797 11.4756C142.166 10.4896 142.784 10.3031 143.251 10.3031C143.434 10.296 143.617 10.3258 143.789 10.3907C143.961 10.4558 144.117 10.5547 144.25 10.6815C144.382 10.8084 144.488 10.9606 144.56 11.1291C144.582 11.1824 144.602 11.2369 144.618 11.2923C144.652 11.4124 144.67 11.5367 144.67 11.6621C144.666 11.7822 144.652 11.9016 144.628 12.0189C144.597 12.1707 144.55 12.3192 144.487 12.4615L139.671 23.8224C139.115 25.1459 138.217 25.4256 137.532 25.4256ZM148.844 21.9103C147.956 21.0816 147.426 19.9405 147.365 18.7282L157.447 18.7416C158.466 18.7416 158.995 18.2796 158.995 17.2626C159.001 16.9416 158.981 16.6207 158.933 16.3033C158.377 12.2928 155.655 10.161 151.977 10.161C147.69 10.161 144.416 13.3364 144.416 17.911C144.416 22.4855 147.694 25.5944 152.142 25.5944C153.171 25.6355 154.197 25.4616 155.155 25.0838C156.113 24.7061 156.982 24.1327 157.705 23.4005C157.978 23.1183 158.137 22.7447 158.15 22.3523C158.154 22.1904 158.125 22.0293 158.064 21.8791C158.003 21.7289 157.912 21.5931 157.796 21.48C157.68 21.3669 157.541 21.279 157.389 21.222C157.238 21.165 157.076 21.14 156.914 21.1487C156.801 21.1497 156.69 21.164 156.582 21.191C156.506 21.2101 156.431 21.2354 156.359 21.267C156.184 21.3433 156.026 21.4542 155.895 21.5928C155.405 22.0957 154.819 22.4945 154.17 22.7655C153.522 23.0365 152.826 23.1738 152.124 23.1695C150.908 23.1907 149.733 22.739 148.844 21.9103ZM151.968 12.435C154.659 12.435 156.015 14.2558 156.077 16.5697H147.365C147.464 15.4261 147.995 14.3627 148.849 13.595C149.704 12.8273 150.819 12.4126 151.968 12.435Z" fill="white"/>
<path d="M31.8805 2.27319H8.26496C7.20633 2.27319 6.34814 3.13021 6.34814 4.18739V27.7706C6.34814 28.8278 7.20633 29.6848 8.26496 29.6848H31.8805C32.9391 29.6848 33.7973 28.8278 33.7973 27.7706V4.18739C33.7973 3.13021 32.9391 2.27319 31.8805 2.27319Z" fill="url(#paint0_radial)" stroke="black"/>
<path d="M14.7398 29.334L9.73654 26.5138C9.60046 26.3788 9.49247 26.2182 9.41877 26.0414C9.34507 25.8646 9.30713 25.6749 9.30713 25.4834C9.30713 25.2918 9.34507 25.1022 9.41877 24.9253C9.49247 24.7485 9.60046 24.588 9.73654 24.453V24.453C10.0051 24.1817 10.3698 24.0268 10.7517 24.0219C11.1337 24.0169 11.5023 24.1622 11.7779 24.4263L14.7398 29.334Z" fill="black"/>
<path d="M3.37687 18.1197C3.73629 17.7598 4.16329 17.4743 4.63339 17.2795C5.10349 17.0847 5.60747 16.9844 6.11645 16.9844C6.62542 16.9844 7.1294 17.0847 7.5995 17.2795C8.06961 17.4743 8.4966 17.7598 8.85603 18.1197L11.5956 20.8733C11.956 21.2323 12.2419 21.6587 12.437 22.1281C12.6321 22.5976 12.7325 23.1009 12.7325 23.6092C12.7325 24.1174 12.6321 24.6207 12.437 25.0902C12.2419 25.5596 11.956 25.9861 11.5956 26.345V26.345C10.8685 27.0697 9.88326 27.4767 8.85603 27.4767C7.82879 27.4767 6.84352 27.0697 6.11645 26.345L3.37687 23.5914C2.65121 22.8653 2.24365 21.8814 2.24365 20.8556C2.24365 19.8297 2.65121 18.8458 3.37687 18.1197V18.1197Z" fill="url(#paint1_linear)"/>
<path d="M3.79992 18.5371C4.41532 17.9234 5.24949 17.5787 6.11922 17.5787C6.98895 17.5787 7.82313 17.9234 8.43852 18.5371L11.1781 21.273C11.7568 21.8945 12.0715 22.7159 12.0561 23.5644C12.0406 24.413 11.6962 25.2224 11.0953 25.8225C10.4944 26.4226 9.68379 26.7666 8.8341 26.782C7.98442 26.7974 7.16186 26.4831 6.5395 25.9052L3.79992 23.1694C3.49401 22.866 3.25122 22.5051 3.08555 22.1076C2.91987 21.7101 2.83458 21.2838 2.83458 20.8533C2.83458 20.4227 2.91987 19.9964 3.08555 19.5989C3.25122 19.2014 3.49401 18.8405 3.79992 18.5371V18.5371ZM2.95937 17.6977C2.54185 18.1107 2.21043 18.6022 1.98424 19.1438C1.75806 19.6854 1.6416 20.2664 1.6416 20.8533C1.6416 21.4401 1.75806 22.0211 1.98424 22.5627C2.21043 23.1044 2.54185 23.5958 2.95937 24.0088L5.69895 26.7446C6.53758 27.5815 7.67478 28.0515 8.86037 28.051C10.046 28.0506 11.1828 27.5799 12.0209 26.7424C12.8589 25.9049 13.3295 24.7693 13.3291 23.5853C13.3287 22.4013 12.8573 21.266 12.0187 20.4291L9.27908 17.6933C8.44034 16.8577 7.30396 16.3884 6.11922 16.3884C4.93448 16.3884 3.79811 16.8577 2.95937 17.6933V17.6977Z" fill="black"/>
<path d="M11.3652 20.8493L6.11523 26.0957L7.25718 27.2353L12.5071 21.9889L11.3652 20.8493Z" fill="black"/>
<path d="M9.46751 18.9568L4.21484 24.2004L5.35619 25.3406L10.6089 20.097L9.46751 18.9568Z" fill="black"/>
<path d="M7.56572 17.0564L2.31396 22.301L3.45551 23.441L8.70727 18.1964L7.56572 17.0564Z" fill="black"/>
<g opacity="0.5">
<path opacity="0.5" d="M13.2847 23.0941C10.5096 23.9513 7.84562 23.3073 7.33417 21.6551C6.82273 20.003 8.66838 17.9777 11.4435 17.1206C14.2187 16.2634 16.8827 16.9118 17.3941 18.5595C17.9056 20.2073 16.0644 22.2325 13.2847 23.0941Z" fill="white"/>
<path opacity="0.5" d="M13.183 22.7432C11.5063 23.2584 9.78073 23.2184 8.67779 22.6366C8.44134 22.538 8.22948 22.3887 8.05723 22.1993C7.88497 22.0098 7.75653 21.7849 7.681 21.5404C7.60547 21.2959 7.58469 21.0378 7.62015 20.7844C7.6556 20.531 7.74641 20.2884 7.88615 20.074C8.46876 18.977 9.87413 17.9732 11.5508 17.458C14.0902 16.6764 16.6074 17.2271 17.0477 18.6572C17.1127 18.9028 17.1281 19.1589 17.093 19.4105C17.0579 19.6622 16.9729 19.9043 16.8432 20.1228C16.2605 21.2242 14.8596 22.228 13.183 22.7432ZM17.7415 18.444C17.1634 16.5787 14.3482 15.8414 11.3373 16.7696C9.45608 17.347 7.92618 18.4573 7.25018 19.7364C7.06257 20.0352 6.94161 20.3709 6.89553 20.7206C6.84945 21.0703 6.87933 21.4258 6.98314 21.7629C7.08695 22.1 7.26225 22.4109 7.49712 22.6743C7.73198 22.9377 8.02091 23.1475 8.34423 23.2894C9.62508 23.969 11.5108 24.0267 13.392 23.4493C15.2732 22.872 16.8031 21.7616 17.4791 20.4781C17.6569 20.1738 17.7717 19.837 17.8167 19.4876C17.8618 19.1382 17.8362 18.7833 17.7415 18.444V18.444Z" fill="#231F20"/>
</g>
<path d="M13.183 22.7432C11.5063 23.2584 9.78073 23.2184 8.67779 22.6366C8.44134 22.538 8.22948 22.3887 8.05723 22.1993C7.88497 22.0098 7.75653 21.7849 7.681 21.5404C7.60547 21.2959 7.58469 21.0378 7.62015 20.7844C7.6556 20.531 7.74641 20.2884 7.88615 20.074C8.46876 18.977 9.87413 17.9732 11.5508 17.458C14.0902 16.6764 16.6074 17.2271 17.0477 18.6572C17.1127 18.9028 17.1281 19.1589 17.093 19.4105C17.0579 19.6622 16.9729 19.9043 16.8432 20.1228C16.2605 21.2242 14.8596 22.228 13.183 22.7432ZM17.7415 18.444C17.1634 16.5787 14.3482 15.8414 11.3373 16.7696C9.45608 17.347 7.92618 18.4573 7.25018 19.7364C7.06257 20.0352 6.94161 20.3709 6.89553 20.7206C6.84945 21.0703 6.87933 21.4258 6.98314 21.7629C7.08695 22.1 7.26225 22.4109 7.49712 22.6743C7.73198 22.9377 8.02091 23.1475 8.34423 23.2894C9.62508 23.969 11.5108 24.0267 13.392 23.4493C15.2732 22.872 16.8031 21.7616 17.4791 20.4781C17.6569 20.1738 17.7717 19.837 17.8167 19.4876C17.8618 19.1382 17.8362 18.7833 17.7415 18.444V18.444Z" fill="black"/>
<path d="M7.49978 27.9794C6.70815 29.5427 5.48068 30.7552 4.30212 31.146C4.06326 31.2361 3.80871 31.2775 3.55355 31.2675C3.2984 31.2576 3.04783 31.1967 2.8167 31.0883C2.37787 30.833 2.05807 30.4147 1.92723 29.9246C1.53586 28.7433 1.78491 27.0378 2.57655 25.4834C3.77289 23.1161 5.91652 21.6816 7.25517 22.3745C7.47361 22.5 7.66504 22.6675 7.81845 22.8672C7.97186 23.0668 8.08423 23.2949 8.1491 23.5381C8.55825 24.715 8.28696 26.4205 7.49978 27.9794ZM7.5576 21.7216C5.80978 20.8333 3.32815 22.3522 1.90944 25.1636C1.01997 26.9223 0.76202 28.7921 1.21565 30.1689C1.31211 30.5041 1.47473 30.8167 1.69393 31.0882C1.91313 31.3597 2.18449 31.5847 2.49205 31.75C2.808 31.899 3.15063 31.9832 3.49972 31.9976C3.8488 32.0121 4.19725 31.9566 4.52449 31.8344C5.90318 31.3903 7.25517 30.0579 8.14465 28.308C9.03412 26.5581 9.28762 24.6839 8.83399 23.3071C8.73753 22.9719 8.57491 22.6594 8.35571 22.3878C8.13651 22.1163 7.86515 21.8913 7.5576 21.726V21.7216Z" fill="black"/>
<path d="M18.5513 14.9042L21.62 9.47692C21.9133 9.18256 22.3105 9.01486 22.7263 9.00988C23.1422 9.0049 23.5433 9.16302 23.8436 9.45028V9.45028C24.1384 9.74319 24.3063 10.1399 24.3113 10.5552C24.3163 10.9704 24.158 11.371 23.8703 11.6709L18.5513 14.9042Z" fill="black"/>
<path d="M30.7506 2.57967C31.142 2.96953 31.4524 3.43264 31.6642 3.94249C31.8761 4.45233 31.9851 4.9989 31.9851 5.55089C31.9851 6.10288 31.8761 6.64945 31.6642 7.1593C31.4524 7.66914 31.142 8.13226 30.7506 8.52211L27.7754 11.4933C27.385 11.8841 26.9212 12.1941 26.4107 12.4057C25.9001 12.6172 25.3528 12.7261 24.8001 12.7261C24.2473 12.7261 23.7 12.6172 23.1895 12.4057C22.6789 12.1941 22.2152 11.8841 21.8248 11.4933V11.4933C21.4335 11.1035 21.123 10.6404 20.9112 10.1305C20.6994 9.62067 20.5903 9.0741 20.5903 8.52211C20.5903 7.97012 20.6994 7.42356 20.9112 6.91371C21.123 6.40386 21.4335 5.94075 21.8248 5.55089L24.8001 2.57967C25.5897 1.79262 26.6597 1.35059 27.7754 1.35059C28.891 1.35059 29.961 1.79262 30.7506 2.57967Z" fill="url(#paint2_linear)"/>
<path d="M30.2967 3.03718C30.6282 3.36724 30.8911 3.75938 31.0706 4.19112C31.25 4.62286 31.3424 5.08572 31.3424 5.55317C31.3424 6.02062 31.25 6.48348 31.0706 6.91522C30.8911 7.34696 30.6282 7.7391 30.2967 8.06916L27.3214 11.0404C26.6532 11.7083 25.7467 12.0837 24.8013 12.0841C23.8559 12.0845 22.9491 11.7099 22.2803 11.0426C21.6115 10.3753 21.2356 9.47006 21.2352 8.52596C21.2347 7.58187 21.6099 6.67627 22.2781 6.0084L25.2578 3.03718C25.5883 2.70617 25.981 2.44353 26.4133 2.26434C26.8457 2.08514 27.3092 1.9929 27.7773 1.9929C28.2453 1.9929 28.7088 2.08514 29.1412 2.26434C29.5735 2.44353 29.9662 2.70617 30.2967 3.03718V3.03718ZM31.2084 2.14892C30.7578 1.69825 30.2226 1.34073 29.6334 1.09679C29.0443 0.852854 28.4128 0.727295 27.775 0.727295C27.1373 0.727295 26.5058 0.852854 25.9166 1.09679C25.3275 1.34073 24.7923 1.69825 24.3417 2.14892L21.3664 5.09794C20.9158 5.5482 20.5584 6.08268 20.3147 6.67086C20.0709 7.25904 19.9456 7.8894 19.9458 8.52596C19.946 9.16252 20.0718 9.7928 20.3159 10.3808C20.56 10.9688 20.9177 11.5031 21.3686 11.9531C21.8195 12.403 22.3547 12.7599 22.9437 13.0033C23.5327 13.2467 24.1639 13.3719 24.8013 13.3717C25.4387 13.3715 26.0699 13.2459 26.6587 13.0021C27.2475 12.7583 27.7825 12.4011 28.2331 11.9508L31.2084 8.97962C31.6595 8.52997 32.0175 7.99588 32.2617 7.40793C32.5059 6.81997 32.6316 6.1897 32.6316 5.55317C32.6316 4.91664 32.5059 4.28636 32.2617 3.69841C32.0175 3.11046 31.6595 2.57637 31.2084 2.12672V2.14892Z" fill="black"/>
<path d="M22.0762 5.54979L20.8374 6.78735L26.543 12.4832L27.7818 11.2456L22.0762 5.54979Z" fill="black"/>
<path d="M24.1372 3.48773L22.8979 4.72485L28.6016 10.4227L29.8408 9.18552L24.1372 3.48773Z" fill="black"/>
<path d="M26.1988 1.42333L24.96 2.66089L30.6656 8.3567L31.9044 7.11914L26.1988 1.42333Z" fill="black"/>
<g opacity="0.5">
<path opacity="0.5" d="M25.3465 13.3232C24.417 10.312 25.1197 7.42072 26.912 6.87C28.7043 6.31928 30.9146 8.31342 31.8441 11.3113C32.7736 14.3092 32.0754 17.2315 30.2787 17.7645C28.4819 18.2974 26.276 16.3433 25.3465 13.3232Z" fill="white"/>
<path opacity="0.5" d="M25.7205 13.2121C25.1601 11.3957 25.2046 9.52588 25.8361 8.32673C25.9429 8.06974 26.1051 7.83943 26.3113 7.65222C26.5174 7.46501 26.7623 7.32551 27.0286 7.24365C27.2949 7.1618 27.576 7.1396 27.8519 7.17865C28.1277 7.2177 28.3916 7.31703 28.6246 7.46956C29.8165 8.10022 30.9105 9.62359 31.4709 11.4401C32.3204 14.1937 31.72 16.9251 30.1634 17.4047C29.8966 17.4762 29.6182 17.4934 29.3447 17.4553C29.0712 17.4171 28.8081 17.3244 28.5712 17.1827C27.3749 16.5564 26.2853 15.0331 25.7205 13.2121ZM30.3946 18.1597C32.4271 17.5335 33.2276 14.4824 32.2181 11.2136C31.591 9.17502 30.3813 7.51841 28.9893 6.77228C28.665 6.57137 28.3014 6.44225 27.923 6.39362C27.5445 6.34498 27.16 6.37798 26.7954 6.49037C26.4308 6.60276 26.0946 6.79193 25.8094 7.04512C25.5242 7.29832 25.2967 7.60965 25.1423 7.9581C24.4085 9.34823 24.3418 11.3957 24.9733 13.4342C25.6048 15.4728 26.8101 17.1338 28.2021 17.8755C28.5304 18.0658 28.8933 18.189 29.2698 18.2378C29.6462 18.2866 30.0286 18.2601 30.3946 18.1597Z" fill="#231F20"/>
</g>
<path d="M25.7205 13.2121C25.1601 11.3957 25.2046 9.52588 25.8361 8.32673C25.9429 8.06974 26.1051 7.83943 26.3113 7.65222C26.5174 7.46501 26.7623 7.32551 27.0286 7.24365C27.2949 7.1618 27.576 7.1396 27.8519 7.17865C28.1277 7.2177 28.3916 7.31703 28.6246 7.46956C29.8165 8.10022 30.9105 9.62359 31.4709 11.4401C32.3204 14.1937 31.72 16.9251 30.1634 17.4047C29.8966 17.4762 29.6182 17.4934 29.3447 17.4553C29.0712 17.4171 28.8081 17.3244 28.5712 17.1827C27.3749 16.5564 26.2853 15.0331 25.7205 13.2121ZM30.3946 18.1597C32.4271 17.5335 33.2276 14.4824 32.2181 11.2136C31.591 9.17502 30.3813 7.51841 28.9893 6.77228C28.665 6.57137 28.3014 6.44225 27.923 6.39362C27.5445 6.34498 27.16 6.37798 26.7954 6.49037C26.4308 6.60276 26.0946 6.79193 25.8094 7.04512C25.5242 7.29832 25.2967 7.60965 25.1423 7.9581C24.4085 9.34823 24.3418 11.3957 24.9733 13.4342C25.6048 15.4728 26.8101 17.1338 28.2021 17.8755C28.5304 18.0658 28.8933 18.189 29.2698 18.2378C29.6462 18.2866 30.0286 18.2601 30.3946 18.1597Z" fill="black"/>
<path d="M20.0188 7.05207C18.3421 6.19046 17.0079 4.88473 16.5632 3.58343C16.3636 3.06136 16.3796 2.48154 16.6077 1.97124C16.7462 1.72906 16.9316 1.5168 17.153 1.34678C17.3744 1.17675 17.6274 1.05236 17.8974 0.980833C19.1827 0.55891 21.0106 0.829829 22.7361 1.687C25.3112 2.98385 26.8677 5.31109 26.1339 6.76339C25.9993 7.00438 25.8178 7.21612 25.6001 7.38618C25.3825 7.55625 25.1331 7.68123 24.8664 7.7538C23.5767 8.17572 21.7221 7.90924 20.0188 7.05207ZM26.8277 7.10537C27.7883 5.21338 26.1428 2.51752 23.083 0.980833C21.1751 0.0259557 19.1427 -0.253845 17.6484 0.239138C17.283 0.342752 16.9421 0.518339 16.6457 0.755557C16.3494 0.992774 16.1036 1.28682 15.9228 1.62038C15.7589 1.96543 15.6665 2.34002 15.6512 2.72163C15.6359 3.10324 15.698 3.484 15.8338 3.84102C16.3275 5.32885 17.7595 6.7856 19.6764 7.74936C21.5932 8.71312 23.6167 8.99292 25.1155 8.49993C25.4797 8.39342 25.8188 8.21515 26.1129 7.97563C26.4069 7.73612 26.65 7.44021 26.8277 7.10537V7.10537Z" fill="black"/>
<g opacity="0.4">
<path opacity="0.4" d="M7.8194 28.1482C6.51187 30.7374 4.19924 32.2075 2.65601 31.4303C1.11277 30.6531 0.921532 27.9217 2.21127 25.3324C3.501 22.7431 5.83587 21.2686 7.37911 22.0458C8.92234 22.8231 9.13137 25.5545 7.8194 28.1482Z" fill="white"/>
<path opacity="0.4" d="M7.49978 27.9794C6.70815 29.5427 5.48068 30.7552 4.30212 31.146C4.06326 31.2361 3.80871 31.2775 3.55355 31.2675C3.2984 31.2576 3.04783 31.1967 2.8167 31.0883C2.37787 30.833 2.05807 30.4147 1.92723 29.9246C1.53586 28.7433 1.78491 27.0378 2.57655 25.4834C3.77289 23.1161 5.91652 21.6816 7.25517 22.3745C7.47361 22.5 7.66504 22.6675 7.81845 22.8672C7.97186 23.0668 8.08423 23.2949 8.1491 23.5381C8.55825 24.715 8.28696 26.4205 7.49978 27.9794ZM7.5576 21.7216C5.80978 20.8333 3.32815 22.3522 1.90944 25.1636C1.01997 26.9223 0.76202 28.7921 1.21565 30.1689C1.31211 30.5041 1.47473 30.8167 1.69393 31.0882C1.91313 31.3597 2.18449 31.5847 2.49205 31.75C2.808 31.899 3.15063 31.9832 3.49972 31.9976C3.8488 32.0121 4.19725 31.9566 4.52449 31.8344C5.90318 31.3903 7.25517 30.0579 8.14465 28.308C9.03412 26.5581 9.28762 24.6839 8.83399 23.3071C8.73753 22.9719 8.57491 22.6594 8.35571 22.3878C8.13651 22.1163 7.86515 21.8913 7.5576 21.726V21.7216Z" fill="#231F20"/>
</g>
<g opacity="0.4">
<path opacity="0.4" d="M19.8449 7.39858C17.0253 5.97737 15.4242 3.47248 16.287 1.79811C17.1498 0.123748 20.0895 -0.0805513 22.9047 1.33178C25.7199 2.74411 27.3254 5.26232 26.4626 6.93668C25.5998 8.61105 22.6601 8.81979 19.8449 7.39858Z" fill="white"/>
<path opacity="0.4" d="M20.0188 7.05207C18.3421 6.19046 17.0079 4.88473 16.5632 3.58343C16.3636 3.06136 16.3796 2.48154 16.6077 1.97124C16.7462 1.72906 16.9316 1.5168 17.153 1.34678C17.3744 1.17675 17.6274 1.05236 17.8974 0.980833C19.1827 0.55891 21.0106 0.829829 22.7361 1.687C25.3112 2.98385 26.8677 5.31109 26.1339 6.76339C25.9993 7.00438 25.8178 7.21612 25.6001 7.38618C25.3825 7.55625 25.1331 7.68123 24.8664 7.7538C23.5767 8.17572 21.7221 7.90924 20.0188 7.05207ZM26.8277 7.10537C27.7883 5.21338 26.1428 2.51752 23.083 0.980833C21.1751 0.0259557 19.1427 -0.253845 17.6484 0.239138C17.283 0.342752 16.9421 0.518339 16.6457 0.755557C16.3494 0.992774 16.1036 1.28682 15.9228 1.62038C15.7589 1.96543 15.6665 2.34002 15.6512 2.72163C15.6359 3.10324 15.698 3.484 15.8338 3.84102C16.3275 5.32885 17.7595 6.7856 19.6764 7.74936C21.5932 8.71312 23.6167 8.99292 25.1155 8.49993C25.4797 8.39342 25.8188 8.21515 26.1129 7.97563C26.4069 7.73612 26.65 7.44021 26.8277 7.10537V7.10537Z" fill="#231F20"/>
</g>
<defs>
<radialGradient id="paint0_radial" cx="0" cy="0" r="1" gradientUnits="userSpaceOnUse" gradientTransform="translate(15.6076 12.6791) scale(21.0716 21.0428)">
<stop stop-color="#373638"/>
<stop offset="1"/>
</radialGradient>
<linearGradient id="paint1_linear" x1="11.5957" y1="26.3464" x2="3.3865" y2="18.126" gradientUnits="userSpaceOnUse">
<stop stop-color="#FBED1F"/>
<stop offset="0.65" stop-color="#F8B020"/>
<stop offset="1" stop-color="#F79420"/>
</linearGradient>
<linearGradient id="paint2_linear" x1="-22887" y1="-10897.7" x2="-22658.6" y2="-11126.5" gradientUnits="userSpaceOnUse">
<stop stop-color="#FBED1F"/>
<stop offset="0.65" stop-color="#F8B020"/>
<stop offset="1" stop-color="#F79420"/>
</linearGradient>
</defs>
</g>
</svg>
