<svg viewBox="0 0 204 32" fill="none" xmlns="http://www.w3.org/2000/svg">
<path fill-rule="evenodd" clip-rule="evenodd" d="M185.359 30.9208C183.487 30.9526 182.853 29.5006 181.225 25.4898L181.216 25.467C180.005 22.4824 178.186 17.9981 173.407 17.9981C172.165 17.9981 171.236 18.2281 170.059 18.5197C169.773 18.5906 169.472 18.6651 169.148 18.7409L170.65 17.3425C173.699 14.4568 177.576 11.4185 181.202 10.887C181.269 10.8778 181.319 10.8206 181.319 10.7528V10.731C181.319 10.6548 181.258 10.5928 181.181 10.5919H172.381C172.31 10.5997 172.256 10.6592 172.256 10.7302C172.256 10.8012 172.31 10.8608 172.381 10.8685C175.764 11.0178 172.123 15.1174 170.184 16.7003L167.873 18.7543V0.311712C167.876 0.264148 167.855 0.218452 167.817 0.18961C167.779 0.160767 167.729 0.152497 167.683 0.167511L156.849 3.08004C156.772 3.09948 156.725 3.17792 156.744 3.25526C156.764 3.33258 156.842 3.3795 156.92 3.36004C160.115 2.64072 160.649 3.6954 160.649 6.26922V25.951C160.408 26.8464 159.845 27.9228 158.931 28.28C158.154 28.5834 157.307 28.1526 156.977 27.413C156.784 26.9826 156.77 26.4612 156.757 25.9988L156.755 25.9274C156.746 25.622 156.746 25.3166 156.747 25.011V25.0096L156.747 24.8058V10.6841C156.39 11.0543 155.979 11.3686 155.527 11.6164C155.157 11.8299 154.749 11.9721 154.325 12.0356C153.901 12.0777 153.472 12.0419 153.06 11.9299C152.368 11.759 151.71 11.4763 151.053 11.1944V11.1943C150.84 11.1028 150.627 11.0114 150.413 10.9239C149.609 10.5889 148.766 10.3551 147.904 10.228C144.507 9.84272 141.126 11.0819 138.789 13.5698C137.7 14.7391 136.863 16.1183 136.33 17.6225C135.765 19.2158 135.524 20.9052 135.62 22.5924C135.716 24.3464 136.172 26.1018 137.097 27.606C137.865 28.8982 139.005 29.93 140.37 30.567C141.823 31.1852 143.443 31.2968 144.968 30.884C146.602 30.4692 148.014 29.4462 148.915 28.025C149.151 27.6518 149.354 27.2592 149.524 26.8514C149.597 27.2954 149.698 27.7344 149.826 28.166C149.962 28.5718 150.141 28.9616 150.363 29.328C150.721 29.9322 151.24 30.425 151.863 30.7514C152.643 31.1438 153.511 31.1656 154.365 31.0868C155.267 31.0078 156.152 30.7906 156.987 30.443C157.405 30.2668 157.81 30.0594 158.196 29.8226C158.545 29.6114 158.878 29.3744 159.19 29.1134C159.73 28.6456 160.218 28.121 160.645 27.5488V30.852H169.871C169.948 30.852 170.009 30.7906 170.009 30.7146C170.009 30.6386 169.948 30.5772 169.871 30.5772C167.899 30.505 167.853 28.8148 167.853 26.417V20.3288C167.855 20.087 168.003 19.87 168.228 19.7805C171.017 18.6582 171.928 22.179 172.592 24.7428C172.721 25.2434 172.841 25.7076 172.964 26.0934C174.368 30.6828 174.992 31.459 179.91 31.459C181.381 31.459 182.638 31.3748 183.997 31.2836C184.436 31.2542 184.886 31.224 185.357 31.1958C185.431 31.1906 185.488 31.13 185.488 31.0566C185.487 30.9848 185.431 30.926 185.359 30.9208ZM149.528 25.4462C149.522 25.8498 149.437 26.2486 149.279 26.62C148.796 27.8776 147.679 29.1786 146.563 29.1786C143.246 29.1786 143.246 23.1424 143.246 20.6994C143.246 13.5027 144.378 10.4711 147.114 10.4711C147.591 10.4466 148.066 10.5393 148.498 10.7411C148.973 10.9993 149.232 11.4487 149.371 12.1261C149.511 12.8035 149.539 13.7056 149.539 14.8659V25.4462H149.528ZM90.9844 31.0752C90.9846 31.1486 90.9268 31.209 90.8532 31.2126C90.3746 31.2414 89.918 31.272 89.4722 31.3022H89.4718C88.1208 31.3932 86.8688 31.4776 85.406 31.4776C80.4902 31.4776 79.8644 30.6996 78.4602 26.112C78.3374 25.7262 78.2174 25.2624 78.0878 24.7622C77.4244 22.199 76.5134 18.6797 73.7244 19.8006C73.5078 19.8871 73.3618 20.0916 73.351 20.3238V26.439C73.351 28.835 73.388 30.5252 75.3606 30.599C75.4368 30.599 75.4986 30.6604 75.4986 30.7364C75.4986 30.8124 75.4368 30.874 75.3606 30.874H27.5442C27.4688 30.873 27.408 30.8118 27.408 30.7364C27.409 30.6618 27.4694 30.6016 27.5442 30.6006C29.4766 30.5554 29.5154 29.4822 29.5154 26.4406V16.9049C29.5154 15.426 29.5154 13.216 27.329 13.216C26.4882 13.216 25.3932 13.7392 24.2228 14.5826C24.0688 14.7016 23.9888 14.8927 24.0126 15.0856V26.4456C24.0126 29.4872 24.0496 30.5604 25.9836 30.6056C26.0578 30.6074 26.1172 30.6674 26.1182 30.7414C26.1182 30.8168 26.0574 30.878 25.982 30.879H14.825C14.7495 30.878 14.6887 30.8168 14.6887 30.7414C14.6897 30.6668 14.7501 30.6066 14.825 30.6056C16.759 30.5604 16.796 29.4872 16.796 26.4456V16.9049C16.796 15.426 16.796 13.216 14.6097 13.216C13.7688 13.216 12.7076 13.6553 11.522 14.5574C11.3722 14.664 11.2862 14.8385 11.2932 15.0219V26.4422C11.2932 28.84 11.3302 30.5302 13.3114 30.6022C13.3862 30.6032 13.4467 30.6634 13.4476 30.738C13.4476 30.814 13.3859 30.8756 13.3097 30.8756H0.819102C0.74294 30.8756 0.681196 30.814 0.681196 30.738C0.682118 30.6628 0.743592 30.6022 0.819102 30.6022C3.73532 30.5788 4.07672 29.764 4.07672 25.6626V16.3214C4.07672 13.7492 3.54358 12.6929 0.336432 13.4139C0.263596 13.4332 0.1887 13.3906 0.168254 13.3183V13.3032C0.149966 13.2302 0.19317 13.1559 0.265796 13.1355L10.861 10.2851C10.9638 10.258 11.0734 10.2809 11.1566 10.347C11.2397 10.4131 11.2867 10.5144 11.2831 10.6204V14.326C14.8721 11.3699 17.2905 10.1744 19.7105 10.1744C22.4014 10.1744 23.6122 11.4973 23.915 14.3763C27.4652 11.4973 30.0014 10.1744 32.4214 10.1744C35.5428 10.1744 36.7134 11.9249 36.7134 15.8938V20.4646V28.0822C36.7132 29.3452 37.6628 30.4076 38.9214 30.5526C40.1798 30.6974 41.3474 29.8788 41.636 28.6488C41.7162 28.3064 41.7102 27.9426 41.7044 27.584V27.5838C41.703 27.4912 41.7016 27.399 41.7016 27.3074V25.6508V16.3214C41.7016 13.7509 41.17 12.6945 37.973 13.4122C37.8954 13.4316 37.8168 13.3847 37.7972 13.3074C37.7778 13.2301 37.8248 13.1516 37.9024 13.1322L48.7364 10.2817C48.78 10.2696 48.8268 10.2786 48.8628 10.3059C48.8986 10.3332 48.9198 10.3758 48.9198 10.4209V25.6542V28.0788C48.8962 28.9822 49.3662 29.8274 50.1472 30.286C50.9284 30.7446 51.8976 30.7446 52.6786 30.286C53.4598 29.8274 53.9298 28.9822 53.9062 28.0788V20.483V6.28432C53.9062 3.71388 53.3764 2.65752 50.1794 3.37516C50.1058 3.3896 50.033 3.34614 50.0112 3.27456C50.0004 3.2374 50.0054 3.1975 50.0246 3.16398C50.044 3.13048 50.0762 3.10624 50.1138 3.09682L60.958 0.187661C61.0012 0.176223 61.0474 0.185482 61.083 0.212728C61.1186 0.239972 61.1394 0.28212 61.1396 0.326832V25.6542C61.1396 25.9326 61.1362 26.2134 61.1328 26.4954V26.4956V26.4958C61.1262 27.063 61.1194 27.6346 61.1396 28.1978C61.2092 29.5416 62.3382 30.5864 63.6874 30.5554C65.0368 30.5246 66.1166 29.4294 66.1244 28.0838V20.483V6.28432C66.1244 3.71388 65.5928 2.65752 62.3976 3.37516C62.3238 3.3896 62.2512 3.34614 62.2294 3.27456C62.2186 3.23764 62.2232 3.19794 62.2422 3.16446C62.2612 3.131 62.293 3.1066 62.3302 3.09682L73.1576 0.187661C73.201 0.176315 73.2474 0.185561 73.2832 0.212734C73.319 0.239906 73.3402 0.281984 73.3408 0.326832V18.7795L75.6516 16.7255C77.594 15.1409 81.23 11.0413 77.8514 10.8987C77.7752 10.8987 77.7134 10.8372 77.7134 10.7613C77.7134 10.6853 77.7752 10.6238 77.8514 10.6238H86.6556C86.7316 10.6238 86.7934 10.6853 86.7934 10.7613V10.7763C86.794 10.8447 86.7436 10.9029 86.6756 10.9122C83.0498 11.4437 79.1732 14.4803 76.1242 17.3676L74.624 18.7644C74.9528 18.6877 75.258 18.6121 75.5484 18.5403L75.5486 18.5402C76.7178 18.2508 77.6438 18.0216 78.8806 18.0216C83.6582 18.0216 85.4828 22.5168 86.6938 25.4998L86.6992 25.5134C88.3272 29.5258 88.9612 30.9762 90.833 30.946C90.8704 30.9422 90.9078 30.954 90.9364 30.9784C90.965 31.0028 90.9824 31.0376 90.9844 31.0752ZM45.9328 8.2653C47.5066 7.60434 48.5248 6.0619 48.5112 4.35938C48.5156 3.24662 48.072 2.17862 47.2796 1.39492C46.4874 0.611236 45.4126 0.177487 44.2966 0.190979C42.5888 0.191034 41.05 1.21847 40.3998 2.79276C39.7494 4.36702 40.1162 6.17696 41.3286 7.37602C42.5408 8.57508 44.3592 8.92626 45.9328 8.2653ZM189.798 19.8945C189.654 19.9674 189.547 20.0956 189.501 20.2492C189.455 20.4028 189.474 20.5684 189.554 20.7078C191.506 24.0512 195.104 26.278 199.385 24.0864C202.076 22.7064 203.286 20.483 203.5 17.9092C203.504 17.8363 203.566 17.7799 203.638 17.7801C203.714 17.7789 203.776 17.8351 203.784 17.9092C204.23 22.8172 202.744 27.5706 197.823 30.0858C192.166 32.9798 186.555 30.9494 183.711 25.411C180.867 19.8727 183.748 13.719 189.407 10.8233C194.957 7.98956 199.498 9.14652 200.844 13.714C200.92 13.9845 200.796 14.2714 200.544 14.3998L189.798 19.8945ZM189.5 19.1819L194.143 16.8109C194.404 16.6787 194.528 16.3746 194.432 16.0983C193.591 13.6436 191.439 10.0268 188.993 11.3867C186.869 12.5704 187.648 16.2274 188.681 18.8683C188.741 19.0237 188.864 19.1464 189.02 19.2061C189.176 19.2658 189.35 19.257 189.5 19.1819ZM90.9688 26.7306C90.9688 24.7856 92.4118 23.8902 93.895 23.8902C95.2254 23.8902 96.66 24.6582 96.8752 26.2258C96.8954 26.3762 96.812 26.5212 96.6716 26.5796C95.9872 26.8882 95.5734 27.6378 95.5734 28.4812C95.5734 29.7252 96.549 30.8152 99.7476 30.8152C103.416 30.8152 104.976 29.6096 104.976 28.1324C104.976 26.2606 102.416 25.3008 99.4942 24.2052C95.61 22.7488 91.0864 21.0526 91.0864 16.6566C91.0864 11.8729 96.2748 10.1609 101.191 10.1609C104.741 10.1609 108.838 11.0563 108.838 14.1667C108.838 15.8786 107.59 16.7354 106.186 16.7354C105.008 16.7354 103.727 16.0094 103.552 14.5892C103.535 14.4409 103.619 14.2994 103.757 14.2421C104.353 13.9569 104.723 13.3479 104.702 12.6894C104.702 11.2893 102.985 10.4728 100.723 10.4728C97.8354 10.4728 96.665 11.8343 96.665 13.1556C96.665 15.0845 99.1976 15.9423 102.079 16.9181C105.88 18.2055 110.287 19.6982 110.287 24.1266C110.287 28.2498 106.502 31.127 99.5576 31.127C95.6946 31.1254 90.9688 30.2316 90.9688 26.7306ZM123.851 30.5988C123.776 30.5988 123.715 30.6596 123.715 30.7346C123.718 30.808 123.777 30.8662 123.851 30.867H136.296C136.371 30.867 136.432 30.8062 136.432 30.7312C136.432 30.6564 136.371 30.5956 136.296 30.5938C133.375 30.5702 133.039 29.7538 133.039 25.654V15.8953C133.039 11.9281 131.673 10.1776 128.513 10.1776C126.14 10.1776 123.804 11.1954 119.936 14.3477V0.58156C119.94 0.47522 119.892 0.373444 119.809 0.307296C119.725 0.24115 119.615 0.218482 119.512 0.24621L108.917 3.09668C108.839 3.11866 108.794 3.1988 108.816 3.2761C108.837 3.3482 108.91 3.39198 108.984 3.3767C112.181 2.65906 112.713 3.71542 112.713 6.28586V25.6658C112.713 29.7672 112.373 30.582 109.455 30.6054C109.38 30.6064 109.319 30.6678 109.319 30.743C109.319 30.818 109.38 30.8788 109.455 30.8788H121.947C121.984 30.8788 122.019 30.8644 122.045 30.8386C122.071 30.8128 122.085 30.7778 122.085 30.7414C122.084 30.6664 122.024 30.6056 121.949 30.6038C119.968 30.5318 119.931 28.8416 119.931 26.4438V15.01C119.929 14.8354 120.007 14.6696 120.143 14.559C121.259 13.6636 122.484 13.2176 123.363 13.2176C125.627 13.2176 125.822 15.3101 125.822 16.9064V26.437C125.822 29.4804 125.785 30.5518 123.851 30.5988Z" fill="#FF4716"/>
</svg>
