<svg viewBox="0 0 111 48" fill="none" xmlns="http://www.w3.org/2000/svg">
<g id="logo">
<path fill-rule="evenodd" clip-rule="evenodd" d="M106.401 7.6592H111L110.648 9.30942H106.048L103.492 21.0643C103.376 21.5931 103.31 22.1316 103.295 22.6727C103.295 24.1614 104.238 24.8909 105.732 24.8909C106.896 24.8575 108.033 24.5283 109.035 23.9342L108.712 25.6562C107.614 26.2607 106.381 26.5775 105.128 26.577C102.691 26.577 101.001 25.3154 101.001 23.0553C101.02 22.4236 101.098 21.7951 101.234 21.1779L103.832 9.30942H101.079L101.431 7.6592H104.185L105.284 2.72048L107.673 1.80568L106.401 7.6592ZM93.9704 7.6592H98.6534L95.3502 22.8999C95.2494 23.302 95.1834 23.7121 95.1531 24.1256C95.1531 24.6218 95.4697 24.9328 96.0969 24.9328C96.6802 24.9086 97.2476 24.7357 97.7455 24.4305L97.3931 26.003C96.7523 26.3885 96.0201 26.5949 95.2726 26.6009C93.7374 26.6009 92.9131 25.7579 92.9131 24.4544C92.9349 23.977 93.0009 23.5026 93.1103 23.0374L96.0969 9.33334H93.618L93.9704 7.6592ZM100.111 2.14649C100.059 2.63975 99.8314 3.09776 99.4692 3.43616C99.107 3.77456 98.6349 3.97055 98.1397 3.98804C97.8229 3.98804 97.519 3.86206 97.295 3.6378C97.0709 3.41354 96.9451 3.10938 96.9451 2.79223C96.9819 2.31235 97.1953 1.86322 97.5441 1.53185C97.8928 1.20047 98.3519 1.01042 98.8326 0.998506C99.1531 0.985312 99.4661 1.09793 99.7049 1.31237C99.9437 1.52681 100.089 1.82611 100.111 2.14649ZM85.3332 12.4484C85.3332 11.4141 84.6642 10.6547 83.368 10.6547C80.7338 10.6547 78.5297 13.2975 77.6636 16.1315C78.364 16.2717 79.0758 16.3477 79.79 16.3588C83.4098 16.3528 85.3332 14.6667 85.3332 12.4484ZM90.1117 12.4484C90.1117 16.3169 86.2172 19.3782 80.5128 19.3782C79.3511 19.3825 78.1921 19.2663 77.0543 19.0314C77.0543 19.1869 77.0125 19.3423 77.0125 19.4559C77.0125 21.8475 78.6253 23.1689 80.9847 23.1689C83.2991 23.0498 85.5516 22.3795 87.5552 21.2138L86.8085 24.8012C84.6157 25.9684 82.1721 26.584 79.6885 26.5949C75.1668 26.5949 71.78 24.3348 71.78 19.7011C71.78 13.3812 76.9348 7.33633 83.816 7.33633C87.4596 7.31839 90.1356 9.04036 90.1356 12.4484H90.1117ZM71.5948 12.6756C71.5823 13.0231 71.5424 13.3689 71.4753 13.71L66.4459 13.8236C66.4933 13.5591 66.5193 13.2912 66.5235 13.0224C66.5235 11.7608 66.0517 10.6308 64.5584 10.6308C62.9456 10.6308 61.5718 11.8266 60.622 13.3094C59.4666 15.2035 58.83 17.3688 58.7763 19.5875C58.7763 21.9791 60.1501 23.1749 62.6708 23.1749C64.964 23.0566 67.1924 22.3726 69.1577 21.1839L68.3693 24.7414C66.3249 25.9289 64.007 26.5635 61.6434 26.583C57.0441 26.583 53.502 24.4783 53.502 19.6532C53.502 13.2556 58.2268 7.32437 64.9884 7.32437C68.9666 7.31839 71.6008 9.38715 71.6008 12.6756H71.5948ZM44.8826 18.5351L46.591 10.8401C46.2263 10.6356 45.8143 10.5304 45.3963 10.5351C40.8328 10.5351 37.9239 15.9163 37.9239 19.7967C37.9239 21.9791 38.8318 23.1271 40.5998 23.1271C41.1368 23.1487 41.672 23.0529 42.1682 22.8464C42.6644 22.6399 43.1096 22.3276 43.473 21.9313C44.2125 20.9306 44.6983 19.7652 44.8886 18.5351H44.8826ZM49.6612 8.37071L52.4925 7.64126L49.5059 21.2377C49.4268 21.5778 49.3748 21.9237 49.3506 22.2721C49.3506 22.7683 49.6254 23.0374 50.2167 23.0374C50.8451 22.9857 51.4556 22.8024 52.0087 22.4993L51.4113 25.4111C50.2886 26.0642 49.0125 26.4068 47.7139 26.4036C46.137 26.4036 44.799 25.716 44.4466 24.3767C43.7365 25.0999 42.884 25.6674 41.9431 26.0431C41.0022 26.4188 39.9935 26.5945 38.9811 26.5591C35.0448 26.5591 32.6495 24.0299 32.6495 19.9342C32.6604 18.2614 33.0014 16.6072 33.6529 15.0667C34.3043 13.5262 35.2534 12.1297 36.4456 10.9574C37.6378 9.78513 39.0497 8.86018 40.6001 8.23568C42.1505 7.61118 43.8089 7.29945 45.48 7.31839C46.9545 7.31317 48.4052 7.69012 49.6911 8.41256L49.6612 8.37071ZM25.1711 0H32.9362L28.3249 21.4051C28.2463 21.7453 28.1944 22.0912 28.1696 22.4395C28.1696 22.9357 28.4802 23.2048 29.0716 23.2048C29.6796 23.1497 30.2696 22.9685 30.8038 22.6727L30.1706 25.5785C29.0502 26.2378 27.7729 26.5827 26.4732 26.577C24.3946 26.577 22.8893 25.6562 22.8893 23.438C22.9026 22.7402 22.9948 22.0462 23.1641 21.3692L26.9869 3.6293H24.4304L25.1711 0ZM17.3223 8.73543C17.3557 8.33629 17.3025 7.93463 17.1664 7.55797C17.0303 7.1813 16.8145 6.83851 16.5338 6.55307C15.823 5.95516 14.6881 5.71002 12.9499 5.71002H9.90954L7.90254 14.858H10.1544C12.6692 14.858 14.2819 14.3259 15.381 13.3632C16.0104 12.7711 16.5085 12.0531 16.843 11.2558C17.1774 10.4586 17.3407 9.59991 17.3223 8.73543ZM22.967 8.41256C22.9851 9.81186 22.6866 11.1971 22.0938 12.4645C21.5011 13.732 20.6295 14.8487 19.5443 15.731C17.4597 17.4111 14.5925 18.2182 10.931 18.2182H7.19771L5.46548 26.2302H0L4.44406 5.71002H1.69042L2.47888 1.99701H13.5293C16.9878 1.99701 19.3532 2.49328 20.96 3.75486C22.298 4.78924 22.967 6.28401 22.967 8.41256Z" fill="white"/>
<path fill-rule="evenodd" clip-rule="evenodd" d="M32.5185 44.0058C32.876 44.2628 33.3094 44.3931 33.7493 44.3766C34.0788 44.3779 34.4049 44.3051 34.7024 44.1632C35.0005 44.0215 35.2624 43.8143 35.4695 43.5574C36.026 42.8913 36.4063 42.0955 36.5743 41.2436V41.1121L36.688 40.4124C36.7423 39.9954 36.7201 39.5719 36.6221 39.1629C36.562 38.8461 36.3929 38.5606 36.1444 38.3556C35.8877 38.1708 35.5762 38.0781 35.2601 38.0926C34.696 38.0954 34.1448 38.266 33.6775 38.5828C33.2184 38.8623 32.8603 39.2813 32.6561 39.7786L31.9211 43.0134C31.9836 43.4095 32.1976 43.7657 32.5185 44.0058ZM37.5659 40.3587C37.5426 40.6436 37.5023 40.9271 37.4463 41.2077L37.3332 41.6741C37.1039 42.643 36.6268 43.5355 35.9472 44.2629C35.6596 44.5696 35.3131 44.8142 34.9276 44.9818C34.5426 45.1494 34.1273 45.2364 33.7073 45.2376C33.3736 45.2434 33.0429 45.1926 32.7285 45.0885C32.5657 45.0347 32.4076 44.9666 32.256 44.8848C32.025 44.7442 31.8226 44.5616 31.6586 44.3467L31.5391 44.8848C31.5268 44.9423 31.4953 44.9938 31.4492 45.0309C31.4037 45.0678 31.3466 45.0879 31.2882 45.0881H30.9237C30.8887 45.0888 30.8542 45.0811 30.8233 45.0655C30.7918 45.0497 30.765 45.0268 30.7446 44.9985C30.7224 44.9712 30.7061 44.9393 30.6979 44.9052C30.6897 44.871 30.6892 44.8354 30.6967 44.8011L32.9425 34.5708C32.9559 34.5155 32.9869 34.466 33.0312 34.4303C33.0755 34.3947 33.1309 34.3747 33.1875 34.3736H33.5579C33.5923 34.3726 33.6262 34.3798 33.6571 34.3942C33.6886 34.4088 33.716 34.4304 33.737 34.4573C33.7592 34.4857 33.7749 34.5186 33.7831 34.5538C33.7913 34.5888 33.7918 34.6253 33.7848 34.6606L32.9962 38.1523C33.2132 37.9643 33.4494 37.7999 33.7014 37.6621C34.1938 37.3989 34.7438 37.2613 35.3021 37.2614C35.7775 37.2474 36.2459 37.3833 36.6402 37.6502C37.0194 37.9306 37.2929 38.3308 37.4166 38.7861C37.5653 39.296 37.6161 39.8297 37.5659 40.3587ZM44.7157 37.4338C44.7513 37.456 44.7804 37.4872 44.7997 37.5246C44.8201 37.5611 44.8312 37.6023 44.8312 37.6442C44.8312 37.6861 44.8201 37.7272 44.7997 37.7637L39.7761 46.1763C39.4956 46.7141 39.1047 47.1868 38.6293 47.5635C38.2484 47.8356 37.7952 47.9877 37.3274 48C37.1255 47.9975 36.9249 47.9693 36.73 47.9163C36.6734 47.902 36.6244 47.8671 36.5924 47.8184C36.5603 47.7698 36.5475 47.7108 36.5568 47.6531L36.6163 47.3065C36.6215 47.2732 36.6326 47.2412 36.6501 47.2124C36.6676 47.1837 36.6909 47.1587 36.7184 47.139C36.7452 47.1192 36.7767 47.1053 36.8094 47.0981C36.842 47.0908 36.8764 47.0906 36.9091 47.0971C37.0474 47.125 37.1868 47.143 37.3274 47.151C37.5443 47.1367 37.7561 47.0814 37.9515 46.9888C38.0145 46.959 38.0758 46.9255 38.1347 46.8882C38.3779 46.7347 38.5786 46.5229 38.7192 46.2721L39.0056 45.8415L39.663 44.7294L38.4024 37.6861C38.396 37.6503 38.3972 37.6135 38.4065 37.5783C38.4158 37.5432 38.4327 37.5106 38.4561 37.4827C38.4806 37.4535 38.5103 37.4299 38.5442 37.4134C38.5786 37.3969 38.6153 37.388 38.6532 37.3871H39.0417C39.096 37.3875 39.1479 37.407 39.1893 37.4418C39.2307 37.4769 39.2587 37.5251 39.2686 37.5785L40.3256 43.5933L43.9877 37.5246C44.0099 37.4871 44.0414 37.456 44.0787 37.434C44.095 37.4246 44.112 37.417 44.1295 37.4115C44.1528 37.4039 44.1773 37.3997 44.2024 37.3991H44.5967C44.6387 37.3997 44.6801 37.4118 44.7157 37.4338Z" fill="white"/>
<path fill-rule="evenodd" clip-rule="evenodd" d="M99.3812 37.5964C99.488 37.6122 99.5965 37.6044 99.6991 37.5738C99.8024 37.5433 99.8975 37.4906 99.9785 37.4195C100.004 37.3967 100.029 37.3722 100.051 37.3462C100.064 37.3316 100.075 37.3166 100.086 37.3011C100.118 37.2579 100.145 37.2113 100.167 37.162C100.195 37.0985 100.214 37.0315 100.222 36.963C100.228 36.9254 100.23 36.8873 100.229 36.849C100.233 36.7401 100.213 36.6315 100.17 36.5311C100.128 36.4307 100.064 36.3408 99.9832 36.2673C99.9027 36.1941 99.807 36.1392 99.7032 36.1063C99.5994 36.0736 99.4891 36.0638 99.3812 36.0779H97.7269V34.4037C97.7532 34.2709 97.7503 34.1339 97.7176 34.0024C97.6849 33.871 97.6237 33.7486 97.5379 33.6437C97.4522 33.5389 97.3443 33.4546 97.2218 33.3966C97.0999 33.3387 96.9663 33.3086 96.8309 33.3086C96.7679 33.3086 96.7055 33.3152 96.6449 33.3279C96.5743 33.3425 96.5055 33.3655 96.4395 33.3966C96.3176 33.4546 96.2097 33.5389 96.124 33.6437C96.0808 33.6967 96.0435 33.7541 96.0131 33.815C95.9834 33.8745 95.96 33.9373 95.9437 34.0024C95.911 34.1339 95.9081 34.2709 95.935 34.4037V42.3559C95.935 44.1914 96.8368 45.16 98.5453 45.16C98.9414 45.17 99.3357 45.0987 99.7038 44.9507C99.849 44.8897 99.9733 44.7888 100.063 44.6596C100.154 44.5306 100.205 44.3785 100.212 44.2213C100.216 44.1241 100.2 44.0271 100.165 43.9363C100.13 43.8457 100.077 43.7632 100.008 43.6942C99.9395 43.6251 99.8572 43.571 99.7674 43.5351C99.677 43.4993 99.5801 43.4825 99.4827 43.4859C99.4401 43.487 99.3976 43.4907 99.3556 43.4968C99.2873 43.5067 99.2202 43.5231 99.1543 43.5457C99.0814 43.5647 99.0079 43.5789 98.9332 43.5879C98.8796 43.5943 98.8259 43.5981 98.7722 43.5994C98.0734 43.5994 97.7508 43.145 97.7508 42.1645V37.5964H99.3812ZM62.009 36.167C62.5824 35.9328 63.1973 35.8189 63.8168 35.8328C64.8673 35.7764 65.8986 36.1329 66.6908 36.8264C67.4829 37.5199 67.9735 38.4956 68.0575 39.5458C68.0855 39.7437 68.0977 39.9437 68.0937 40.1437C68.0937 40.7775 67.7769 41.0824 67.1195 41.0824H61.0868C61.1329 41.7971 61.452 42.4667 61.9781 42.952C62.5043 43.4374 63.1967 43.7015 63.9124 43.6892C64.3272 43.6974 64.739 43.6216 65.124 43.4665C65.509 43.3114 65.8584 43.0801 66.1524 42.7864C66.2031 42.7312 66.2609 42.6827 66.3233 42.6419L66.3699 42.6131C66.3944 42.5992 66.4195 42.5865 66.4452 42.5748C66.556 42.5245 66.6756 42.4968 66.7969 42.4934C66.8704 42.4899 66.9434 42.4972 67.0145 42.5149C67.0419 42.5217 67.0693 42.5302 67.0962 42.5401C67.1918 42.5759 67.2788 42.6305 67.3528 42.701C67.4263 42.7715 67.4853 42.8561 67.5249 42.95C67.5652 43.0437 67.5856 43.1447 67.5856 43.2468C67.5757 43.4973 67.4713 43.7345 67.2928 43.9105C66.6237 44.5541 65.7814 44.9887 64.8691 45.1611C63.9568 45.3333 63.0141 45.2361 62.1566 44.8809C61.2986 44.5258 60.5624 43.9282 60.0386 43.1612C59.5148 42.3943 59.2249 41.4911 59.205 40.5622C59.1764 39.9431 59.275 39.3246 59.4949 38.7454C59.5748 38.5356 59.6699 38.3327 59.779 38.1381C59.8408 38.0276 59.9073 37.9199 59.9785 37.8151C60.1278 37.5942 60.297 37.3865 60.4842 37.1946C60.584 37.0922 60.6884 36.995 60.7969 36.903C60.885 36.8286 60.9754 36.7575 61.0687 36.6899C61.1545 36.6276 61.2426 36.5683 61.333 36.5121C61.5476 36.3787 61.774 36.2631 62.009 36.167ZM64.7588 37.4408C64.4578 37.3277 64.137 37.2789 63.8168 37.2976C63.1454 37.2856 62.4938 37.5237 61.988 37.9656C61.4829 38.4076 61.1591 39.022 61.081 39.6892H66.2475C66.2609 39.3681 66.2066 39.0477 66.0882 38.7489C65.9704 38.4499 65.7907 38.1791 65.562 37.9539C65.3328 37.7285 65.0592 37.5538 64.7588 37.4408ZM72.1822 36.2736C72.4178 36.1373 72.6686 36.0314 72.9282 35.9577C73.0268 35.9297 73.1271 35.9063 73.228 35.8877C73.3284 35.8691 73.4293 35.8552 73.5308 35.8461C73.637 35.8364 73.7443 35.8319 73.8516 35.8328C76.3185 35.8328 77.1964 37.7101 77.1964 39.5039V44.1436C77.2115 44.2734 77.1987 44.4048 77.159 44.5291C77.12 44.6537 77.0546 44.7684 76.9677 44.8658C76.8808 44.9633 76.7741 45.0412 76.6551 45.0945C76.5361 45.1479 76.4071 45.1755 76.2765 45.1755C76.1464 45.1755 76.0175 45.1479 75.8985 45.0945C75.7795 45.0412 75.6727 44.9633 75.5858 44.8658C75.5537 44.8296 75.5246 44.791 75.4983 44.7504C75.4709 44.7081 75.447 44.6636 75.4272 44.6172C75.4149 44.5884 75.4038 44.5591 75.3945 44.5291C75.3694 44.45 75.3548 44.3681 75.3519 44.2857C75.3502 44.2384 75.3519 44.1909 75.3572 44.1436V40.0599C75.3572 38.2661 74.7534 37.3932 73.3855 37.3932C72.0177 37.3932 71.0622 38.5711 71.0622 40.2632V44.1436C71.0768 44.2734 71.0639 44.4048 71.0248 44.5291C70.9852 44.6537 70.9198 44.7684 70.8329 44.8658C70.8114 44.8901 70.7886 44.9132 70.7641 44.9351C70.7443 44.9531 70.7239 44.9701 70.7023 44.9863C70.6463 45.0291 70.5856 45.0655 70.5209 45.0945C70.4019 45.1479 70.2729 45.1755 70.1423 45.1755C70.0116 45.1755 69.8827 45.1479 69.7637 45.0945C69.7083 45.0695 69.6552 45.0392 69.6056 45.004C69.5496 44.964 69.4977 44.9177 69.4516 44.8658C69.3647 44.7684 69.2994 44.6537 69.2597 44.5291C69.2206 44.4048 69.2078 44.2734 69.2224 44.1436V36.8911C69.2061 36.7667 69.2166 36.6404 69.2539 36.5207C69.2912 36.401 69.3542 36.2908 69.4382 36.1981C69.5222 36.1053 69.626 36.032 69.741 35.9833C69.8565 35.9347 69.9813 35.9119 70.1067 35.9164C70.2309 35.9141 70.3546 35.939 70.4689 35.9895C70.5827 36.0402 70.6842 36.1151 70.7664 36.2091C70.8079 36.2567 70.844 36.3085 70.8738 36.3637C70.9029 36.4175 70.9263 36.4746 70.9432 36.5339C70.9776 36.6537 70.9858 36.7797 70.9665 36.903V37.501C71.2553 36.9906 71.6747 36.5669 72.1822 36.2736ZM85.511 35.9164C85.2993 35.9199 85.094 35.9942 84.9283 36.1273C84.7632 36.2605 84.6465 36.445 84.5975 36.6518L82.0829 42.9837L79.5857 36.6518C79.5332 36.4437 79.4136 36.2586 79.245 36.1256C79.0764 35.9926 78.8688 35.919 78.6541 35.9164C78.4161 35.9116 78.1857 36.0014 78.013 36.166C77.8409 36.3307 77.7406 36.5569 77.7342 36.7953C77.7342 36.9749 77.7727 37.1522 77.8479 37.3156L80.7389 44.1496C80.8217 44.4376 80.9955 44.6909 81.2347 44.8712C81.4739 45.0514 81.7655 45.1489 82.0648 45.1489C82.2013 45.1489 82.3366 45.1287 82.4661 45.0892C82.5367 45.0679 82.6049 45.0409 82.6708 45.0085C82.7152 44.9866 82.7589 44.9624 82.8009 44.9358C82.833 44.9157 82.8645 44.8941 82.8948 44.8712C83.134 44.6909 83.3078 44.4376 83.3907 44.1496L86.2997 37.2797C86.3323 37.2067 86.358 37.1311 86.3767 37.0537C86.3895 37.0025 86.3988 36.9505 86.4047 36.8981C86.4093 36.8581 86.4123 36.8178 86.4134 36.7774C86.4134 36.6607 86.3901 36.5453 86.344 36.438C86.2979 36.3307 86.2308 36.2338 86.1468 36.1533C86.1288 36.1362 86.1101 36.1199 86.0908 36.1044L86.0663 36.0852L86.0348 36.063C85.9783 36.0249 85.9176 35.9935 85.8534 35.9695C85.7444 35.9288 85.6277 35.9107 85.511 35.9164ZM87.8052 36.7534C88.7035 36.1383 89.7698 35.8167 90.8577 35.8326C93.1811 35.8326 94.5968 37.148 94.6091 39.3482V44.2213C94.6231 44.3389 94.6126 44.4582 94.577 44.5715C94.5671 44.6024 94.556 44.6328 94.5432 44.6623C94.5268 44.6988 94.5082 44.7342 94.4866 44.7682C94.4627 44.8068 94.4352 44.8434 94.4049 44.8777C94.3635 44.9244 94.3174 44.9662 94.2673 45.0024C94.2218 45.0351 94.1733 45.0631 94.122 45.0862C94.0788 45.1056 94.0345 45.1214 93.989 45.1332C93.9295 45.1485 93.8694 45.1573 93.8082 45.1595L93.7784 45.1599C93.66 45.1599 93.5428 45.1348 93.4343 45.0862C93.3264 45.0376 93.2295 44.9666 93.1502 44.878C93.0714 44.7894 93.0119 44.685 92.9764 44.5719C92.9402 44.4586 92.9285 44.3392 92.9425 44.2213V43.7549C92.7506 44.032 92.5208 44.2784 92.26 44.4868C92.0687 44.6394 91.8611 44.7716 91.64 44.8808C91.325 45.0368 90.9884 45.1425 90.6437 45.1957C90.4173 45.2305 90.1869 45.2428 89.9559 45.2317C88.3372 45.2317 86.7062 44.3767 86.7062 42.4635C86.7062 39.8087 89.8124 39.438 92.8585 39.438V39.2347C92.8585 38.0269 92.0821 37.3394 90.7201 37.3394C89.9793 37.3478 89.2594 37.5861 88.6592 38.0209C88.5892 38.0727 88.5128 38.1146 88.4323 38.1459C88.3296 38.1857 88.2206 38.2083 88.1097 38.2123C88.0152 38.2123 87.9213 38.1933 87.8338 38.1565C87.7463 38.1196 87.667 38.0656 87.6011 37.9976C87.5672 37.963 87.5375 37.925 87.5112 37.8844C87.4861 37.8455 87.4651 37.804 87.4482 37.7606C87.4132 37.6722 87.3969 37.5777 87.3992 37.4829C87.3987 37.4186 87.4057 37.3548 87.4197 37.2927C87.4302 37.2468 87.4442 37.2019 87.4622 37.1582C87.4751 37.1262 87.4896 37.095 87.5066 37.0646C87.5777 36.9369 87.6804 36.8296 87.8052 36.7534ZM92.8288 40.7893H92.4467C90.7918 40.7893 88.5519 40.9627 88.528 42.4276C88.528 43.6711 89.9017 43.7669 90.3199 43.7669C90.5602 43.7794 90.8006 43.7556 91.0327 43.6967C91.1115 43.6767 91.1891 43.6526 91.2661 43.6244L91.3104 43.6078C91.626 43.4851 91.9112 43.297 92.1486 43.0555C92.3855 42.8142 92.5692 42.5254 92.6865 42.2077C92.7162 42.1269 92.7419 42.0447 92.7629 41.9613C92.7885 41.8597 92.8072 41.7565 92.8189 41.6526C92.8235 41.6101 92.827 41.5673 92.8299 41.5246C92.8364 41.4214 92.8358 41.3176 92.8288 41.2138V40.7893ZM104.94 35.8405C105.113 35.828 105.287 35.8253 105.462 35.8326C106.093 35.8004 106.723 35.8987 107.315 36.1214C107.906 36.344 108.445 36.6861 108.899 37.1264C109.352 37.5668 109.71 38.0959 109.95 38.6809C110.19 39.2658 110.307 39.8939 110.294 40.5261C110.302 41.1567 110.181 41.7822 109.941 42.3651C109.701 42.9478 109.345 43.4759 108.895 43.9172C108.445 44.3586 107.911 44.7043 107.324 44.9332C106.995 45.0615 106.653 45.1517 106.306 45.2027C106.033 45.2427 105.756 45.2586 105.48 45.2497C104.208 45.2721 102.979 44.7932 102.057 43.9163C101.611 43.4735 101.26 42.9447 101.023 42.3622C100.787 41.7794 100.672 41.1548 100.683 40.5261C100.669 39.8983 100.783 39.2739 101.019 38.692C101.255 38.1101 101.608 37.5828 102.056 37.1429C102.504 36.7031 103.037 36.3597 103.624 36.1344C104.047 35.9716 104.49 35.8729 104.94 35.8405ZM102.559 40.5261C102.559 42.0987 103.557 43.6891 105.462 43.6891C106.859 43.6891 108.365 42.6906 108.365 40.5261C108.365 38.3618 106.859 37.3753 105.462 37.3753C104.064 37.3753 102.559 38.3618 102.559 40.5261Z" fill="white"/>
<path d="M56.0584 34.9956C54.583 33.2617 49.8045 36.6219 49.8344 40.9448C49.8344 40.9987 49.813 41.0504 49.7749 41.0885C49.7368 41.1267 49.6851 41.1481 49.6313 41.1481C49.597 41.1472 49.5635 41.1373 49.5342 41.1195C49.5048 41.1017 49.4806 41.0765 49.464 41.0464C49.1827 40.4438 49.0378 39.7864 49.0399 39.1212C49.0386 38.6192 49.1193 38.1203 49.2788 37.6443C49.2958 37.603 49.2973 37.5569 49.283 37.5146C49.2687 37.4722 49.2396 37.4364 49.2011 37.4139C49.1625 37.3913 49.1171 37.3834 49.0732 37.3917C49.0294 37.4 48.9899 37.4239 48.9623 37.459C48.3531 38.1212 47.9497 38.9466 47.8015 39.8345C47.6534 40.7224 47.7668 41.6343 48.1279 42.4587C48.489 43.2832 49.0822 43.9845 49.8351 44.4769C50.5879 44.9694 51.4677 45.2317 52.367 45.2318C58.8838 45.0883 57.3785 36.5442 56.0584 34.9956Z" fill="#80B341"/>
</g>
</svg>
