<svg viewBox="0 0 133 32" fill="none" xmlns="http://www.w3.org/2000/svg">
<g id="logo">
<path d="M20.4744 9.91113C19.2222 9.91113 18.5792 11.4672 18.1731 15.1205C17.8686 17.8266 17.8686 19.4841 18.9854 19.4841C20.1021 19.4841 20.9482 17.1839 21.2528 14.3425C21.5574 11.501 21.5574 9.91113 20.4744 9.91113Z" fill="#1588CA"/>
<path d="M27.5476 7.71247L14.3491 0.10148C14.1122 -0.0338266 13.8076 -0.0338266 13.5707 0.10148L0.372265 7.71247C0.135369 7.84778 0 8.11839 0 8.38901V23.611C0 23.8816 0.135369 24.1522 0.372265 24.2875L13.5707 31.8985C13.8076 32.0338 14.1122 32.0338 14.3491 31.8985L27.5476 24.2875C27.7845 24.1522 27.9537 23.8816 27.9198 23.611V8.38901C27.9537 8.11839 27.8183 7.84778 27.5476 7.71247ZM14.9244 12.8541C14.5183 15.1882 10.5249 16.9471 8.22366 17.7252C6.43003 18.3002 5.48244 18.9091 4.94097 19.7886C5.88855 18.8414 7.30992 18.1311 9.50967 18.7061C12.7585 19.5856 12.9954 21.2431 13.7738 17.3192C13.8415 16.9471 14.0107 16.8795 14.1799 16.9133C14.2476 16.9133 14.2814 16.981 14.3153 17.0148C14.383 17.1501 14.4168 17.3192 14.3491 17.4884C12.9954 22.3932 10.4911 23.1036 7.71603 21.9873C5.14402 20.9725 4.29796 21.3108 4.26412 21.9873C4.23028 22.6638 3.35038 22.63 3.45191 21.9535C3.72265 19.9239 3.82417 18.3679 7.78372 17.0486C10.4573 16.1691 10.931 14.4778 11.2018 13.0571C11.574 11.5011 11.6756 9.9112 9.81425 9.9112C6.46387 9.9112 6.26081 13.1924 8.12214 14.9514C8.59593 15.4249 8.83282 15.5941 8.76514 15.8647C8.69746 16.1353 8.4944 16.203 7.95293 16.3383C6.59924 16.7104 4.33181 16.203 4.02723 14.8837C3.48575 12.1099 6.53155 9.33615 10.0511 9.33615C13.1646 9.36998 15.3305 10.4186 14.9244 12.8541ZM20.9483 21.9873C20.8468 22.0888 20.7791 22.1564 20.6438 22.2241C20.5084 22.3256 20.3392 22.3932 20.17 22.4271C19.9669 22.4947 19.7639 22.5285 19.5608 22.4947H19.527C19.2901 22.4947 19.087 22.4271 18.884 22.3594L18.1056 22.0888C17.8687 21.9873 17.6318 21.9535 17.3949 21.9197H17.2934C17.0903 21.9197 16.8873 21.9535 16.6842 22.055C16.4812 22.1564 16.3458 22.2918 16.0412 22.4271C15.9059 22.4947 15.7366 22.4609 15.669 22.2918C15.6351 22.2579 15.6351 22.2241 15.6351 22.1564C15.6351 21.9535 15.7366 21.7505 15.872 21.5814C15.9735 21.4799 16.0751 21.3784 16.2104 21.3108C16.3458 21.2093 16.515 21.1755 16.6842 21.1078C16.8873 21.0402 17.0903 21.0402 17.2934 21.0402H17.3611C17.7672 21.074 18.1394 21.1755 18.5117 21.3108C18.8163 21.4461 19.1547 21.5137 19.4931 21.5814H19.527C20.0008 21.5814 20.4407 21.4123 20.813 21.1416C20.9483 21.0402 21.1176 21.074 21.2191 21.2093C21.2191 21.2093 21.2191 21.2431 21.2529 21.2431C21.3545 21.5476 21.016 21.9197 20.9483 21.9873ZM24.2987 14.3425C23.8926 18.334 20.4746 20.093 18.5794 20.093C16.9211 20.093 14.6875 19.112 15.1275 15.1543C15.5674 11.1966 18.6132 9.4038 20.7115 9.4038C22.6066 9.36998 24.7387 10.351 24.2987 14.3425Z" fill="#1588CA"/>
<path fill-rule="evenodd" clip-rule="evenodd" d="M128.059 5.41235C124.878 5.41235 123.118 7.30668 123.118 10.6216V21.3785C123.118 24.6935 124.878 26.5879 128.059 26.5879C131.241 26.5879 133 24.6935 133 21.3785V10.6216C133 7.34046 131.241 5.41235 128.059 5.41235ZM128.059 23.5772C127.01 23.5772 126.367 23.0361 126.367 21.5476V10.3849C126.367 8.93029 127.01 8.35525 128.059 8.35525C129.109 8.35525 129.751 8.89651 129.751 10.3849V21.5476C129.751 23.0022 129.109 23.5772 128.059 23.5772ZM116.418 8.42297C115.368 8.42297 114.726 8.99801 114.726 10.4863V12.7189H111.646V10.6893C111.646 7.34054 113.304 5.44621 116.519 5.44621C119.734 5.44621 121.393 7.34054 121.393 10.6893C121.393 14.5013 119.189 16.9208 117.341 18.9489C116.008 20.4122 114.861 21.6718 114.861 23.1037C114.861 23.2391 114.861 23.4082 114.895 23.5435H121.393V26.5202H111.612V23.9494C111.612 20.8753 113.25 19.0889 114.882 17.3098C116.499 15.5456 118.11 13.7888 118.11 10.7908C118.11 8.93037 117.433 8.42297 116.418 8.42297ZM45.823 5.47999H35.6025V8.49053H39.0545V26.4864H42.371V8.49053H45.823V5.47999ZM53.4034 26.4864L54.5879 15.2897L55.8064 26.5201H60.2059L62.5408 5.51377H59.6642L57.9384 22.1903L56.28 5.47999H53.099L51.5084 22.055L49.7485 5.47999H46.5335L48.8688 26.4864H53.4034ZM67.5835 14.3426H72.1185V17.3531H67.5835V23.5096H73.3029V26.5201H64.267V5.47999H73.2689V8.49053H67.5497V14.3426H67.5835ZM78.0405 26.4864V11.2643L82.1356 26.4864H85.5198V5.47999H82.5755V18.0635L79.1913 5.47999H75.0625V26.4864H78.0405ZM87.3134 5.47999H97.4998V8.49053H94.0482V26.4864H90.7314V8.49053H87.3134V5.47999ZM98.2107 5.47999L102.373 19.518V26.4864H105.69V19.518L109.853 5.47999H106.705L104.201 15.0529L101.663 5.47999H98.2107Z" fill="#030000"/>
</g>
</svg>
